<svg width="275" height="275" viewBox="0 0 275 275" fill="none" xmlns="http://www.w3.org/2000/svg">
<rect width="275" height="275" rx="15" fill="white"/>
<path d="M54.024 132.976C54.024 131.168 52.744 130.352 51.72 130.144C52.744 129.808 53.56 128.928 53.56 127.568C53.56 125.568 51.768 124.608 49.4 124.608C48.056 124.608 46.936 124.832 45.8 125.328V126.672C47 126.112 48.04 125.872 49.288 125.888C50.984 125.888 52.2 126.352 52.2 127.728C52.2 128.928 51.096 129.552 49.496 129.552H47.352V130.832H49.64C51.096 130.832 52.648 131.232 52.648 132.848C52.648 134.512 51.016 134.912 49.496 134.912C48.072 134.928 46.84 134.72 45.608 134.144V135.488C46.856 135.968 48.088 136.192 49.592 136.192C51.672 136.192 54.024 135.392 54.024 132.976ZM57.1359 136V132.752H61.5839V136H62.8639V128.32H61.5839V131.568H57.1359V128.32H55.8559V136H57.1359ZM71.4709 134.4V131.392C71.4709 129.248 70.1749 128.128 68.1269 128.128C66.8629 128.128 65.8069 128.432 65.1989 128.64V129.888C65.8709 129.6 66.8149 129.312 67.9989 129.312C69.4069 129.312 70.1909 130.08 70.1909 131.232V131.504C69.5509 131.36 68.7349 131.264 68.0629 131.264C66.4149 131.264 64.5909 131.872 64.5909 133.856C64.5909 135.472 65.9349 136.192 67.2949 136.192C68.5429 136.192 69.5189 135.808 70.2869 135.168C70.5109 135.84 71.0709 136.096 71.6949 136.096C72.0149 136.096 72.3509 136.032 72.6549 135.92V134.88C72.4629 134.944 72.2549 134.992 72.0629 134.992C71.7269 134.992 71.4709 134.864 71.4709 134.4ZM65.9029 133.792C65.9029 132.672 67.1189 132.336 68.2389 132.336C68.8629 132.336 69.6469 132.448 70.1909 132.56V133.968C69.5189 134.688 68.5429 135.088 67.5669 135.088C66.7189 135.088 65.9029 134.688 65.9029 133.792ZM79.8871 136V128.32H78.6071V132.208C78.0151 132.448 77.4711 132.544 76.7031 132.544C75.4231 132.544 74.6391 132.176 74.6391 130.88V128.32H73.3591V130.976C73.3591 132.864 74.5591 133.728 76.3191 133.728C77.2791 133.728 77.9031 133.6 78.6071 133.328V136H79.8871ZM83.3501 136L88.0541 130.384V136H89.3341V128.32H88.2461L83.5421 133.936V128.32H82.2621V136H83.3501ZM92.9156 136V130.208L95.4116 134H96.3716L98.8676 130.208V136H100.084V128.32H98.6916L95.8916 132.576L93.0916 128.32H91.6996V136H92.9156ZM101.922 132.16C101.922 134.784 103.938 136.192 106.018 136.192C108.114 136.192 110.114 134.784 110.114 132.16C110.114 129.536 108.114 128.128 106.018 128.128C103.938 128.128 101.922 129.536 101.922 132.16ZM108.834 132.16C108.834 133.936 107.586 134.976 106.018 134.976C104.45 134.976 103.202 133.936 103.202 132.16C103.202 130.384 104.45 129.344 106.018 129.344C107.586 129.344 108.834 130.384 108.834 132.16ZM111.422 132.192C111.422 134.928 113.518 136.192 115.534 136.192C116.494 136.192 117.31 136.016 118.03 135.664V134.384C117.39 134.768 116.542 135.008 115.71 135.008C114.206 135.008 112.702 134.128 112.702 132.16C112.702 130.144 114.254 129.312 115.742 129.312C116.558 129.312 117.374 129.552 117.95 130V128.752C117.294 128.32 116.446 128.128 115.582 128.128C113.582 128.128 111.422 129.392 111.422 132.192ZM123.103 136V129.504H125.919V128.32H118.991V129.504H121.823V136H123.103ZM131.02 136C132.892 136 133.996 134.928 133.996 133.504C133.996 132.08 132.892 131.008 131.02 131.008H128.652V128.32H127.372V136H131.02ZM128.652 132.16H130.86C131.98 132.16 132.7 132.592 132.7 133.504C132.7 134.416 131.98 134.848 130.86 134.848H128.652V132.16ZM145.846 132.272C145.846 129.36 143.67 128.128 141.59 128.128C140.71 128.128 139.878 128.368 139.174 128.816V130C139.814 129.568 140.678 129.312 141.446 129.312C142.918 129.312 144.342 129.888 144.534 131.568H140.566V132.752H144.534C144.406 134.496 143.062 135.008 141.574 135.008C140.694 135.008 139.798 134.752 139.094 134.32V135.52C139.926 135.968 140.726 136.192 141.83 136.192C143.734 136.192 145.846 135.072 145.846 132.272ZM150.634 136V129.504H153.45V128.32H146.522V129.504H149.354V136H150.634ZM154.125 132.16C154.125 134.784 156.141 136.192 158.221 136.192C160.317 136.192 162.317 134.784 162.317 132.16C162.317 129.536 160.317 128.128 158.221 128.128C156.141 128.128 154.125 129.536 154.125 132.16ZM161.037 132.16C161.037 133.936 159.789 134.976 158.221 134.976C156.653 134.976 155.405 133.936 155.405 132.16C155.405 130.384 156.653 129.344 158.221 129.344C159.789 129.344 161.037 130.384 161.037 132.16ZM165.433 136V129.504H169.769V128.32H164.153V136H165.433ZM170.422 132.16C170.422 134.784 172.438 136.192 174.518 136.192C176.614 136.192 178.614 134.784 178.614 132.16C178.614 129.536 176.614 128.128 174.518 128.128C172.438 128.128 170.422 129.536 170.422 132.16ZM177.334 132.16C177.334 133.936 176.086 134.976 174.518 134.976C172.95 134.976 171.702 133.936 171.702 132.16C171.702 130.384 172.95 129.344 174.518 129.344C176.086 129.344 177.334 130.384 177.334 132.16ZM47.464 168V164.752H51.912V168H53.192V160.32H51.912V163.568H47.464V160.32H46.184V168H47.464ZM61.799 166.4V163.392C61.799 161.248 60.503 160.128 58.455 160.128C57.191 160.128 56.135 160.432 55.527 160.64V161.888C56.199 161.6 57.143 161.312 58.327 161.312C59.735 161.312 60.519 162.08 60.519 163.232V163.504C59.879 163.36 59.063 163.264 58.391 163.264C56.743 163.264 54.919 163.872 54.919 165.856C54.919 167.472 56.263 168.192 57.623 168.192C58.871 168.192 59.847 167.808 60.615 167.168C60.839 167.84 61.399 168.096 62.023 168.096C62.343 168.096 62.679 168.032 62.983 167.92V166.88C62.791 166.944 62.583 166.992 62.391 166.992C62.055 166.992 61.799 166.864 61.799 166.4ZM56.231 165.792C56.231 164.672 57.447 164.336 58.567 164.336C59.191 164.336 59.975 164.448 60.519 164.56V165.968C59.847 166.688 58.871 167.088 57.895 167.088C57.047 167.088 56.231 166.688 56.231 165.792ZM63.8279 164.192C63.8279 166.928 65.9239 168.192 67.9399 168.192C68.8999 168.192 69.7159 168.016 70.4359 167.664V166.384C69.7959 166.768 68.9479 167.008 68.1159 167.008C66.6119 167.008 65.1079 166.128 65.1079 164.16C65.1079 162.144 66.6599 161.312 68.1479 161.312C68.9639 161.312 69.7799 161.552 70.3559 162V160.752C69.6999 160.32 68.8519 160.128 67.9879 160.128C65.9879 160.128 63.8279 161.392 63.8279 164.192ZM75.509 168V161.504H78.325V160.32H71.397V161.504H74.229V168H75.509ZM78.9998 164.16C78.9998 166.784 81.0158 168.192 83.0958 168.192C85.1918 168.192 87.1918 166.784 87.1918 164.16C87.1918 161.536 85.1918 160.128 83.0958 160.128C81.0158 160.128 78.9998 161.536 78.9998 164.16ZM85.9118 164.16C85.9118 165.936 84.6638 166.976 83.0958 166.976C81.5278 166.976 80.2798 165.936 80.2798 164.16C80.2798 162.384 81.5278 161.344 83.0958 161.344C84.6638 161.344 85.9118 162.384 85.9118 164.16ZM91.5446 161.504H94.6646V168H95.9446V160.32H90.2966C90.1526 164.448 89.7046 167.04 88.3446 167.04C88.1846 167.04 88.0086 167.008 87.8326 166.944V167.952C88.1686 168.08 88.4726 168.128 88.7606 168.128C90.7446 168.128 91.2886 165.44 91.5446 161.504ZM101.957 168C103.829 168 104.933 166.928 104.933 165.504C104.933 164.08 103.829 163.008 101.957 163.008H99.589V160.32H98.309V168H101.957ZM99.589 164.16H101.797C102.917 164.16 103.637 164.592 103.637 165.504C103.637 166.416 102.917 166.848 101.797 166.848H99.589V164.16ZM107.855 168V164.704H109.359L112.175 168H113.679L110.415 164.144L113.327 160.32H111.839L109.407 163.52H107.855V160.32H106.575V168H107.855ZM114.031 164.16C114.031 166.784 116.047 168.192 118.127 168.192C120.223 168.192 122.223 166.784 122.223 164.16C122.223 161.536 120.223 160.128 118.127 160.128C116.047 160.128 114.031 161.536 114.031 164.16ZM120.943 164.16C120.943 165.936 119.695 166.976 118.127 166.976C116.559 166.976 115.311 165.936 115.311 164.16C115.311 162.384 116.559 161.344 118.127 161.344C119.695 161.344 120.943 162.384 120.943 164.16ZM127.515 164.16C127.515 166.784 129.531 168.192 131.611 168.192C133.707 168.192 135.707 166.784 135.707 164.16C135.707 161.536 133.707 160.128 131.611 160.128C129.531 160.128 127.515 161.536 127.515 164.16ZM134.427 164.16C134.427 165.936 133.179 166.976 131.611 166.976C130.043 166.976 128.795 165.936 128.795 164.16C128.795 162.384 130.043 161.344 131.611 161.344C133.179 161.344 134.427 162.384 134.427 164.16ZM143.543 168V160.32H142.263V164.208C141.671 164.448 141.127 164.544 140.359 164.544C139.079 164.544 138.295 164.176 138.295 162.88V160.32H137.015V162.976C137.015 164.864 138.215 165.728 139.975 165.728C140.935 165.728 141.559 165.6 142.263 165.328V168H143.543ZM145.39 164.16C145.39 166.896 147.374 168.192 149.646 168.192C150.654 168.192 151.662 168 152.366 167.632V166.384C151.71 166.752 150.782 167.008 149.838 167.008C148.286 167.008 146.83 166.336 146.67 164.72H152.782C153.262 162.544 152.174 160.128 149.214 160.128C147.39 160.128 145.39 161.472 145.39 164.16ZM151.646 163.6H146.67C146.766 162.096 147.982 161.312 149.294 161.312C151.246 161.312 151.758 162.784 151.646 163.6ZM158.989 168C160.653 168 161.469 167.136 161.469 165.872C161.469 164.912 160.829 164.304 160.205 164.096C160.781 163.84 161.229 163.2 161.229 162.4C161.229 161.04 160.205 160.32 158.861 160.32H154.653V168H158.989ZM155.933 164.672H158.861C159.501 164.672 160.189 164.88 160.189 165.792C160.189 166.64 159.613 166.88 158.813 166.88H155.933V164.672ZM155.933 161.44H158.733C159.277 161.44 159.933 161.664 159.933 162.528C159.933 163.312 159.405 163.568 158.733 163.568H155.933V161.44ZM164.506 168L169.21 162.384V168H170.49V160.32H169.402L164.698 165.936V160.32H163.418V168H164.506ZM173.336 170.08V168H180.024V170.08H181.272V166.848H180.152V160.32H174.424C174.456 163.184 174.072 165.152 173.112 166.848H172.088V170.08H173.336ZM175.656 161.472H178.872V166.848H174.504C175.208 165.376 175.592 163.776 175.656 161.472ZM184.261 168V164.752H188.709V168H189.989V160.32H188.709V163.568H184.261V160.32H182.981V168H184.261ZM198.596 166.4V163.392C198.596 161.248 197.3 160.128 195.252 160.128C193.988 160.128 192.932 160.432 192.324 160.64V161.888C192.996 161.6 193.94 161.312 195.124 161.312C196.532 161.312 197.316 162.08 197.316 163.232V163.504C196.676 163.36 195.86 163.264 195.188 163.264C193.54 163.264 191.716 163.872 191.716 165.856C191.716 167.472 193.06 168.192 194.42 168.192C195.668 168.192 196.644 167.808 197.412 167.168C197.636 167.84 198.196 168.096 198.82 168.096C199.14 168.096 199.476 168.032 199.78 167.92V166.88C199.588 166.944 199.38 166.992 199.188 166.992C198.852 166.992 198.596 166.864 198.596 166.4ZM193.028 165.792C193.028 164.672 194.244 164.336 195.364 164.336C195.988 164.336 196.772 164.448 197.316 164.56V165.968C196.644 166.688 195.668 167.088 194.692 167.088C193.844 167.088 193.028 166.688 193.028 165.792ZM201.345 170.4L202.545 166.72H201.185L200.305 170.4H201.345ZM214.715 168V160.32H213.435V164.208C212.843 164.448 212.299 164.544 211.531 164.544C210.251 164.544 209.467 164.176 209.467 162.88V160.32H208.187V162.976C208.187 164.864 209.387 165.728 211.147 165.728C212.107 165.728 212.731 165.6 213.435 165.328V168H214.715ZM220.29 168V161.504H223.106V160.32H216.178V161.504H219.01V168H220.29ZM223.781 164.16C223.781 166.784 225.797 168.192 227.877 168.192C229.973 168.192 231.973 166.784 231.973 164.16C231.973 161.536 229.973 160.128 227.877 160.128C225.797 160.128 223.781 161.536 223.781 164.16ZM230.693 164.16C230.693 165.936 229.445 166.976 227.877 166.976C226.309 166.976 225.061 165.936 225.061 164.16C225.061 162.384 226.309 161.344 227.877 161.344C229.445 161.344 230.693 162.384 230.693 164.16ZM47.464 200V196.704H48.968L51.784 200H53.288L50.024 196.144L52.936 192.32H51.448L49.016 195.52H47.464V192.32H46.184V200H47.464ZM53.6404 196.16C53.6404 198.784 55.6564 200.192 57.7364 200.192C59.8324 200.192 61.8324 198.784 61.8324 196.16C61.8324 193.536 59.8324 192.128 57.7364 192.128C55.6564 192.128 53.6404 193.536 53.6404 196.16ZM60.5524 196.16C60.5524 197.936 59.3044 198.976 57.7364 198.976C56.1684 198.976 54.9204 197.936 54.9204 196.16C54.9204 194.384 56.1684 193.344 57.7364 193.344C59.3044 193.344 60.5524 194.384 60.5524 196.16ZM64.9484 200V196.752H69.3964V200H70.6764V192.32H69.3964V195.568H64.9484V192.32H63.6684V200H64.9484ZM72.5154 196.192C72.5154 198.928 74.6114 200.192 76.6274 200.192C77.5874 200.192 78.4034 200.016 79.1234 199.664V198.384C78.4834 198.768 77.6354 199.008 76.8034 199.008C75.2994 199.008 73.7954 198.128 73.7954 196.16C73.7954 194.144 75.3474 193.312 76.8354 193.312C77.6514 193.312 78.4674 193.552 79.0434 194V192.752C78.3874 192.32 77.5394 192.128 76.6754 192.128C74.6754 192.128 72.5154 193.392 72.5154 196.192ZM84.1504 198.544L81.2544 192.32H79.8944L83.5424 200.016L83.2544 200.72C82.7584 201.968 82.1344 202.592 81.2704 202.592C81.0464 202.592 80.8224 202.56 80.5984 202.496V203.6C80.8864 203.68 81.1584 203.712 81.4304 203.712C82.5504 203.712 83.5264 203.008 84.3264 201.152L88.1024 192.32H86.7424L84.1504 198.544ZM91.5759 193.504H94.6959V200H95.9759V192.32H90.3279C90.1839 196.448 89.7359 199.04 88.3759 199.04C88.2159 199.04 88.0399 199.008 87.8639 198.944V199.952C88.1999 200.08 88.5039 200.128 88.7919 200.128C90.7759 200.128 91.3199 197.44 91.5759 193.504ZM101.988 200C103.86 200 104.964 198.928 104.964 197.504C104.964 196.08 103.86 195.008 101.988 195.008H99.6203V192.32H98.3403V200H101.988ZM99.6203 196.16H101.828C102.948 196.16 103.668 196.592 103.668 197.504C103.668 198.416 102.948 198.848 101.828 198.848H99.6203V196.16ZM108.822 200V193.504H111.638V192.32H104.71V193.504H107.542V200H108.822ZM119.252 198.4V195.392C119.252 193.248 117.956 192.128 115.908 192.128C114.644 192.128 113.588 192.432 112.98 192.64V193.888C113.652 193.6 114.596 193.312 115.78 193.312C117.188 193.312 117.972 194.08 117.972 195.232V195.504C117.332 195.36 116.516 195.264 115.844 195.264C114.196 195.264 112.372 195.872 112.372 197.856C112.372 199.472 113.716 200.192 115.076 200.192C116.324 200.192 117.3 199.808 118.068 199.168C118.292 199.84 118.852 200.096 119.476 200.096C119.796 200.096 120.132 200.032 120.436 199.92V198.88C120.244 198.944 120.036 198.992 119.844 198.992C119.508 198.992 119.252 198.864 119.252 198.4ZM113.684 197.792C113.684 196.672 114.9 196.336 116.02 196.336C116.644 196.336 117.428 196.448 117.972 196.56V197.968C117.3 198.688 116.324 199.088 115.348 199.088C114.5 199.088 113.684 198.688 113.684 197.792ZM129.713 202.08V198.816H128.577V192.32H127.297V198.816H123.089V192.32H121.809V200H128.465V202.08H129.713ZM132.506 200L137.21 194.384V200H138.49V192.32H137.402L132.698 197.936V192.32H131.418V200H132.506ZM141.624 200L143.72 197.312H145.88V200H147.16V192.32H143.384C141.512 192.32 140.504 193.472 140.504 194.816C140.504 195.888 141.144 196.832 142.344 197.184L140.12 200H141.624ZM141.784 194.816C141.784 193.968 142.424 193.472 143.496 193.472H145.88V196.16H143.496C142.424 196.16 141.784 195.664 141.784 194.816ZM154.792 200V196.752H159.24V200H160.52V192.32H159.24V195.568H154.792V192.32H153.512V200H154.792ZM169.127 198.4V195.392C169.127 193.248 167.831 192.128 165.783 192.128C164.519 192.128 163.463 192.432 162.855 192.64V193.888C163.527 193.6 164.471 193.312 165.655 193.312C167.063 193.312 167.847 194.08 167.847 195.232V195.504C167.207 195.36 166.391 195.264 165.719 195.264C164.071 195.264 162.247 195.872 162.247 197.856C162.247 199.472 163.591 200.192 164.951 200.192C166.199 200.192 167.175 199.808 167.943 199.168C168.167 199.84 168.727 200.096 169.351 200.096C169.671 200.096 170.007 200.032 170.311 199.92V198.88C170.119 198.944 169.911 198.992 169.719 198.992C169.383 198.992 169.127 198.864 169.127 198.4ZM163.559 197.792C163.559 196.672 164.775 196.336 165.895 196.336C166.519 196.336 167.303 196.448 167.847 196.56V197.968C167.175 198.688 166.199 199.088 165.223 199.088C164.375 199.088 163.559 198.688 163.559 197.792ZM182.404 200V192.32H181.124V198.816H177.684V192.32H176.404V198.816H172.964V192.32H171.684V200H182.404ZM185.866 200L190.57 194.384V200H191.85V192.32H190.762L186.058 197.936V192.32H184.778V200H185.866ZM199.031 192.32L196.951 195.152L194.855 192.32H193.383L196.215 196.048L193.223 200H194.695L196.951 196.96L199.191 200H200.663L197.687 196.048L200.503 192.32H199.031ZM52.408 228.272C52.408 225.36 50.232 224.128 48.152 224.128C47.272 224.128 46.44 224.368 45.736 224.816V226C46.376 225.568 47.24 225.312 48.008 225.312C49.48 225.312 50.904 225.888 51.096 227.568H47.128V228.752H51.096C50.968 230.496 49.624 231.008 48.136 231.008C47.256 231.008 46.36 230.752 45.656 230.32V231.52C46.488 231.968 47.288 232.192 48.392 232.192C50.296 232.192 52.408 231.072 52.408 228.272ZM55.5265 232V228.704H57.0305L59.8465 232H61.3505L58.0865 228.144L60.9985 224.32H59.5105L57.0785 227.52H55.5265V224.32H54.2465V232H55.5265ZM61.7029 228.192C61.7029 230.928 63.7989 232.192 65.8149 232.192C66.7749 232.192 67.5909 232.016 68.3109 231.664V230.384C67.6709 230.768 66.8229 231.008 65.9909 231.008C64.4869 231.008 62.9829 230.128 62.9829 228.16C62.9829 226.144 64.5349 225.312 66.0229 225.312C66.8389 225.312 67.6549 225.552 68.2309 226V224.752C67.5749 224.32 66.7269 224.128 65.8629 224.128C63.8629 224.128 61.7029 225.392 61.7029 228.192ZM71.464 232V225.504H75.912V232H77.192V224.32H70.184V232H71.464ZM79.031 228.16C79.031 230.896 81.015 232.192 83.287 232.192C84.295 232.192 85.303 232 86.007 231.632V230.384C85.351 230.752 84.423 231.008 83.479 231.008C81.927 231.008 80.471 230.336 80.311 228.72H86.423C86.903 226.544 85.815 224.128 82.855 224.128C81.031 224.128 79.031 225.472 79.031 228.16ZM85.287 227.6H80.311C80.407 226.096 81.623 225.312 82.935 225.312C84.887 225.312 85.399 226.784 85.287 227.6ZM89.4454 225.6V224.32H88.2934V235.52H89.5734V230.848C90.1334 231.504 91.0774 232.192 92.5494 232.192C94.7414 232.192 96.3894 230.464 96.3894 228.16C96.3894 225.856 94.7414 224.128 92.5494 224.128C91.0774 224.128 90.1334 224.816 89.4454 225.6ZM95.1094 228.16C95.1094 229.92 93.8934 231.008 92.4054 231.008C91.0294 231.008 90.0054 230.112 89.5734 229.12V227.2C90.0054 226.208 91.0294 225.312 92.4054 225.312C93.8934 225.312 95.1094 226.4 95.1094 228.16ZM101.197 232V225.504H104.013V224.32H97.0845V225.504H99.9165V232H101.197ZM104.687 228.16C104.687 230.784 106.703 232.192 108.783 232.192C110.879 232.192 112.879 230.784 112.879 228.16C112.879 225.536 110.879 224.128 108.783 224.128C106.703 224.128 104.687 225.536 104.687 228.16ZM111.599 228.16C111.599 229.936 110.351 230.976 108.783 230.976C107.215 230.976 105.967 229.936 105.967 228.16C105.967 226.384 107.215 225.344 108.783 225.344C110.351 225.344 111.599 226.384 111.599 228.16ZM119.051 232C120.715 232 121.531 231.136 121.531 229.872C121.531 228.912 120.891 228.304 120.267 228.096C120.843 227.84 121.291 227.2 121.291 226.4C121.291 225.04 120.267 224.32 118.923 224.32H114.715V232H119.051ZM115.995 228.672H118.923C119.563 228.672 120.251 228.88 120.251 229.792C120.251 230.64 119.675 230.88 118.875 230.88H115.995V228.672ZM115.995 225.44H118.795C119.339 225.44 119.995 225.664 119.995 226.528C119.995 227.312 119.467 227.568 118.795 227.568H115.995V225.44ZM128.745 232V225.504H133.193V232H134.473V224.32H127.465V232H128.745ZM136.312 228.16C136.312 230.784 138.328 232.192 140.408 232.192C142.504 232.192 144.504 230.784 144.504 228.16C144.504 225.536 142.504 224.128 140.408 224.128C138.328 224.128 136.312 225.536 136.312 228.16ZM143.224 228.16C143.224 229.936 141.976 230.976 140.408 230.976C138.84 230.976 137.592 229.936 137.592 228.16C137.592 226.384 138.84 225.344 140.408 225.344C141.976 225.344 143.224 226.384 143.224 228.16ZM147.556 232V226.208L150.052 230H151.012L153.508 226.208V232H154.724V224.32H153.332L150.532 228.576L147.732 224.32H146.34V232H147.556ZM156.562 228.16C156.562 230.784 158.578 232.192 160.658 232.192C162.754 232.192 164.754 230.784 164.754 228.16C164.754 225.536 162.754 224.128 160.658 224.128C158.578 224.128 156.562 225.536 156.562 228.16ZM163.474 228.16C163.474 229.936 162.226 230.976 160.658 230.976C159.09 230.976 157.842 229.936 157.842 228.16C157.842 226.384 159.09 225.344 160.658 225.344C162.226 225.344 163.474 226.384 163.474 228.16ZM167.87 232V225.504H172.206V224.32H166.59V232H167.87ZM179.815 230.4V227.392C179.815 225.248 178.519 224.128 176.471 224.128C175.207 224.128 174.151 224.432 173.543 224.64V225.888C174.215 225.6 175.159 225.312 176.343 225.312C177.751 225.312 178.535 226.08 178.535 227.232V227.504C177.895 227.36 177.079 227.264 176.407 227.264C174.759 227.264 172.935 227.872 172.935 229.856C172.935 231.472 174.279 232.192 175.639 232.192C176.887 232.192 177.863 231.808 178.631 231.168C178.855 231.84 179.415 232.096 180.039 232.096C180.359 232.096 180.695 232.032 180.999 231.92V230.88C180.807 230.944 180.599 230.992 180.407 230.992C180.071 230.992 179.815 230.864 179.815 230.4ZM174.247 229.792C174.247 228.672 175.463 228.336 176.583 228.336C177.207 228.336 177.991 228.448 178.535 228.56V229.968C177.863 230.688 176.887 231.088 175.911 231.088C175.063 231.088 174.247 230.688 174.247 229.792ZM181.844 228.16C181.844 230.896 183.828 232.192 186.1 232.192C187.108 232.192 188.116 232 188.82 231.632V230.384C188.164 230.752 187.236 231.008 186.292 231.008C184.74 231.008 183.284 230.336 183.124 228.72H189.236C189.716 226.544 188.628 224.128 185.668 224.128C183.844 224.128 181.844 225.472 181.844 228.16ZM188.1 227.6H183.124C183.22 226.096 184.436 225.312 185.748 225.312C187.7 225.312 188.212 226.784 188.1 227.6ZM194.15 232V225.504H196.966V224.32H190.038V225.504H192.87V232H194.15Z" fill="black"/>
<g clip-path="url(#clip0_96182:409)">
<path d="M74.7875 71.5453C73.8 71.5453 72.9875 70.7203 72.9875 69.6891V48.6387C73 45.3258 75.775 42.6445 79.2 42.6445C82.625 42.6445 85.4 45.3387 85.4 48.6516C85.4 49.6699 84.6 50.5078 83.6 50.5078C82.6 50.5078 81.8 49.6828 81.8 48.6516C81.8 47.3883 80.625 46.357 79.1875 46.357C77.75 46.357 76.575 47.3883 76.575 48.6516V69.702C76.5875 70.7074 75.7875 71.5453 74.7875 71.5453Z" fill="#F0BF5F"/>
<path d="M95.3875 76.9078C94.4 76.9078 93.5875 76.0828 93.5875 75.0516V48.6387C93.6 45.3258 96.375 42.6445 99.8 42.6445C103.225 42.6445 106 45.3258 106 48.6387C106 49.657 105.2 50.4949 104.2 50.4949C103.212 50.4949 102.4 49.6699 102.4 48.6387C102.4 47.3754 101.225 46.3441 99.7875 46.3441C98.35 46.3441 97.175 47.3754 97.175 48.6387V75.0516C97.1875 76.0699 96.3875 76.9078 95.3875 76.9078Z" fill="#F0BF5F"/>
<path d="M84.5008 58.1133H74.8008C73.8133 58.1133 73.0008 57.2883 73.0008 56.257C73.0008 55.2258 73.8008 54.4008 74.8008 54.4008H84.5008C85.4883 54.4008 86.3008 55.2258 86.3008 56.257C86.3008 57.2883 85.4883 58.1133 84.5008 58.1133Z" fill="#F0BF5F"/>
<path d="M84.5008 71.5453H74.8008C73.8133 71.5453 73.0008 70.7203 73.0008 69.6891C73.0008 68.6578 73.8008 67.8328 74.8008 67.8328H84.5008C85.4883 67.8328 86.3008 68.6578 86.3008 69.6891C86.2883 70.7074 85.4883 71.5453 84.5008 71.5453Z" fill="#F0BF5F"/>
<path d="M95.3875 64.8293H85.6875C84.7 64.8293 83.8875 64.0043 83.8875 62.9731C83.8875 61.9418 84.6875 61.1168 85.6875 61.1168H95.3875C96.375 61.1168 97.1875 61.9418 97.1875 62.9731C97.1875 64.0043 96.3875 64.8293 95.3875 64.8293Z" fill="#F0BF5F"/>
<path d="M100.962 90.3527C100.962 92.5699 98.4 94.3617 95.225 94.3617C92.0625 94.3617 89.4875 92.5699 89.4875 90.3527C89.4875 92.5699 86.925 94.3617 83.75 94.3617C80.5875 94.3617 78.0125 92.5699 78.0125 90.3527H78.1C78.1 92.5699 75.5375 94.3617 72.3625 94.3617C69.1875 94.3617 66.625 92.5699 66.625 90.3527C66.625 92.5699 64.0625 94.3617 60.8875 94.3617C57.7125 94.3617 55.15 92.5699 55.15 90.3527H55.2375C55.2375 92.5699 52.675 94.3617 49.5 94.3617C46.325 94.3617 43.7625 92.5699 43.7625 90.3527V79.009C43.7625 81.2262 46.325 83.018 49.5 83.018C52.675 83.018 55.2375 81.2262 55.2375 79.009H55.15C55.15 81.2262 57.7125 83.018 60.8875 83.018C64.0625 83.018 66.625 81.2262 66.625 79.009C66.625 81.2262 69.1875 83.018 72.3625 83.018C75.5375 83.018 78.1 81.2262 78.1 79.009H78.0125C78.0125 81.2262 80.575 83.018 83.75 83.018C86.925 83.018 89.4875 81.2262 89.4875 79.009C89.4875 81.2262 92.05 83.018 95.225 83.018C98.4 83.018 100.962 81.2262 100.962 79.009V90.3527Z" fill="#CEE8FA"/>
<path d="M95.225 96.218C92.9 96.218 90.8625 95.4445 89.4875 94.1941C88.1125 95.4445 86.075 96.218 83.75 96.218C81.475 96.218 79.4375 95.4574 78.0625 94.2328C76.6875 95.4574 74.65 96.218 72.375 96.218C70.05 96.218 68.0125 95.4445 66.6375 94.1941C65.2625 95.4445 63.225 96.218 60.9 96.218C58.625 96.218 56.5875 95.4574 55.2125 94.2328C53.8375 95.4703 51.8 96.218 49.525 96.218C45.3 96.218 42 93.6398 42 90.3527V79.009C42 77.9906 42.8 77.1527 43.8 77.1527C44.8 77.1527 45.6 77.9777 45.6 79.009C45.6 80.0016 47.325 81.1617 49.5375 81.1617C51.5375 81.1617 53.075 80.2723 53.4125 79.3699C53.4 79.2539 53.4 79.125 53.4 79.009C53.4 77.9906 54.2 77.1527 55.2 77.1527H55.2875C56.275 77.1527 57.0875 77.9777 57.0875 79.009C57.0875 79.125 57.0875 79.2539 57.075 79.3699C57.4125 80.2723 58.95 81.1617 60.95 81.1617C63.1625 81.1617 64.8875 80.0016 64.8875 79.009C64.8875 77.9906 65.6875 77.1527 66.6875 77.1527C67.6875 77.1527 68.4875 77.9777 68.4875 79.009C68.4875 80.0016 70.2125 81.1617 72.425 81.1617C74.425 81.1617 75.9625 80.2723 76.3 79.3699C76.2875 79.2539 76.2875 79.125 76.2875 79.009C76.2875 77.9906 77.0875 77.1527 78.0875 77.1527H78.175C79.1625 77.1527 79.975 77.9777 79.975 79.009C79.975 79.125 79.975 79.2539 79.9625 79.3699C80.3 80.2723 81.8375 81.1617 83.8375 81.1617C86.05 81.1617 87.775 80.0016 87.775 79.009C87.775 77.9906 88.575 77.1527 89.575 77.1527C90.5625 77.1527 91.375 77.9777 91.375 79.009C91.375 80.0016 93.1 81.1617 95.3125 81.1617C97.525 81.1617 99.25 80.0016 99.25 79.009C99.25 77.9906 100.05 77.1527 101.05 77.1527C102.05 77.1527 102.85 77.9777 102.85 79.009V90.3527C102.762 93.6398 99.45 96.218 95.225 96.218ZM91.2875 90.3527C91.2875 91.3453 93.0125 92.5055 95.225 92.5055C97.4375 92.5055 99.1625 91.3453 99.1625 90.3527V84.0234C98.025 84.552 96.675 84.8613 95.225 84.8613C92.9 84.8613 90.8625 84.0879 89.4875 82.8375C88.1125 84.0879 86.075 84.8613 83.75 84.8613C81.475 84.8613 79.4375 84.1008 78.0625 82.8762C76.6875 84.1137 74.65 84.8613 72.375 84.8613C70.05 84.8613 68.0125 84.0879 66.6375 82.8375C65.2625 84.0879 63.225 84.8613 60.9 84.8613C58.625 84.8613 56.5875 84.1008 55.2125 82.8762C53.8375 84.1137 51.8 84.8613 49.525 84.8613C48.075 84.8613 46.725 84.552 45.5875 84.0234V90.3527C45.5875 91.3453 47.3125 92.5055 49.525 92.5055C51.525 92.5055 53.0625 91.616 53.4 90.7137C53.3875 90.5977 53.3875 90.4688 53.3875 90.3527C53.3875 89.3344 54.1875 88.4965 55.1875 88.4965H55.275C56.2625 88.4965 57.075 89.3215 57.075 90.3527C57.075 90.4688 57.075 90.5977 57.0625 90.7137C57.4 91.616 58.9375 92.5055 60.9375 92.5055C63.15 92.5055 64.875 91.3453 64.875 90.3527C64.875 89.3344 65.675 88.4965 66.675 88.4965C67.675 88.4965 68.475 89.3215 68.475 90.3527C68.475 91.3453 70.2 92.5055 72.4125 92.5055C74.4125 92.5055 75.95 91.616 76.2875 90.7137C76.275 90.5977 76.275 90.4688 76.275 90.3527C76.275 89.3344 77.075 88.4965 78.075 88.4965H78.1625C79.15 88.4965 79.9625 89.3215 79.9625 90.3527C79.9625 90.4688 79.9625 90.5977 79.95 90.7137C80.2875 91.616 81.825 92.5055 83.825 92.5055C86.0375 92.5055 87.7625 91.3453 87.7625 90.3527C87.7625 89.3344 88.5625 88.4965 89.5625 88.4965C90.4875 88.5094 91.2875 89.3344 91.2875 90.3527Z" fill="#2D527C"/>
<path d="M83.7625 107.356C81.4625 107.356 79.4375 106.595 78.075 105.37C76.7 106.595 74.675 107.356 72.3875 107.356C70.0625 107.356 68.025 106.582 66.65 105.332C65.275 106.582 63.2375 107.356 60.9125 107.356C56.6875 107.356 53.3875 104.777 53.3875 101.49C53.3875 100.472 54.1875 99.634 55.1875 99.634H55.275C56.2625 99.634 57.075 100.459 57.075 101.49C57.075 101.593 57.0625 101.709 57.05 101.813C57.3625 102.728 58.95 103.656 60.9375 103.656C63.15 103.656 64.875 102.496 64.875 101.503C64.875 100.485 65.675 99.6469 66.675 99.6469C67.675 99.6469 68.475 100.472 68.475 101.503C68.475 102.496 70.2 103.656 72.4125 103.656C74.375 103.656 75.9375 102.754 76.275 101.851C76.2625 101.735 76.2625 101.619 76.2625 101.49C76.2625 100.472 77.0625 99.634 78.0625 99.634H78.15C79.1375 99.634 79.95 100.459 79.95 101.49C79.95 101.606 79.95 101.722 79.9375 101.851C80.275 102.754 81.85 103.656 83.8 103.656C86.0125 103.656 87.7375 102.496 87.7375 101.503C87.7375 100.485 88.5375 99.6469 89.5375 99.6469C90.525 99.6469 91.3375 100.472 91.3375 101.503C91.2875 104.79 87.9875 107.356 83.7625 107.356Z" fill="#2D527C"/>
</g>
<defs>
<clipPath id="clip0_96182:409">
<rect width="64" height="66" fill="white" transform="translate(42 42)"/>
</clipPath>
</defs>
</svg>
