<svg width="275" height="275" viewBox="0 0 275 275" fill="none" xmlns="http://www.w3.org/2000/svg">
<rect width="275" height="275" rx="15" fill="white"/>
<path d="M47.816 136V126.08H54.264V136H55.608V124.8H46.472V136H47.816ZM57.5623 132.16C57.5623 134.784 59.5783 136.192 61.6583 136.192C63.7543 136.192 65.7543 134.784 65.7543 132.16C65.7543 129.536 63.7543 128.128 61.6583 128.128C59.5783 128.128 57.5623 129.536 57.5623 132.16ZM64.4743 132.16C64.4743 133.936 63.2263 134.976 61.6583 134.976C60.0903 134.976 58.8423 133.936 58.8423 132.16C58.8423 130.384 60.0903 129.344 61.6583 129.344C63.2263 129.344 64.4743 130.384 64.4743 132.16ZM71.9263 136C73.5903 136 74.4062 135.136 74.4062 133.872C74.4062 132.912 73.7663 132.304 73.1423 132.096C73.7183 131.84 74.1663 131.2 74.1663 130.4C74.1663 129.04 73.1423 128.32 71.7983 128.32H67.5903V136H71.9263ZM68.8703 132.672H71.7983C72.4383 132.672 73.1263 132.88 73.1263 133.792C73.1263 134.64 72.5503 134.88 71.7503 134.88H68.8703V132.672ZM68.8703 129.44H71.6703C72.2143 129.44 72.8703 129.664 72.8703 130.528C72.8703 131.312 72.3423 131.568 71.6703 131.568H68.8703V129.44ZM75.8279 132.192C75.8279 134.928 77.9239 136.192 79.9399 136.192C80.8999 136.192 81.7159 136.016 82.4359 135.664V134.384C81.7959 134.768 80.9479 135.008 80.1159 135.008C78.6119 135.008 77.1079 134.128 77.1079 132.16C77.1079 130.144 78.6599 129.312 80.1479 129.312C80.9639 129.312 81.7799 129.552 82.3559 130V128.752C81.6999 128.32 80.8519 128.128 79.9879 128.128C77.9879 128.128 75.8279 129.392 75.8279 132.192ZM83.6404 132.16C83.6404 134.896 85.6244 136.192 87.8964 136.192C88.9044 136.192 89.9124 136 90.6164 135.632V134.384C89.9604 134.752 89.0324 135.008 88.0884 135.008C86.5364 135.008 85.0804 134.336 84.9204 132.72H91.0324C91.5124 130.544 90.4244 128.128 87.4644 128.128C85.6404 128.128 83.6404 129.472 83.6404 132.16ZM89.8964 131.6H84.9204C85.0164 130.096 86.2324 129.312 87.5444 129.312C89.4964 129.312 90.0084 130.784 89.8964 131.6ZM93.2578 138.08V136H99.9458V138.08H101.194V134.848H100.074V128.32H94.3458C94.3778 131.184 93.9938 133.152 93.0338 134.848H92.0098V138.08H93.2578ZM95.5778 129.472H98.7938V134.848H94.4258C95.1298 133.376 95.5138 131.776 95.5778 129.472ZM104.183 136V132.752H108.631V136H109.911V128.32H108.631V131.568H104.183V128.32H102.903V136H104.183ZM111.75 132.16C111.75 134.896 113.734 136.192 116.006 136.192C117.014 136.192 118.022 136 118.726 135.632V134.384C118.07 134.752 117.142 135.008 116.198 135.008C114.646 135.008 113.19 134.336 113.03 132.72H119.142C119.622 130.544 118.534 128.128 115.574 128.128C113.75 128.128 111.75 129.472 111.75 132.16ZM118.006 131.6H113.03C113.126 130.096 114.342 129.312 115.654 129.312C117.606 129.312 118.118 130.784 118.006 131.6ZM125.348 136C127.012 136 127.828 135.136 127.828 133.872C127.828 132.912 127.188 132.304 126.564 132.096C127.14 131.84 127.588 131.2 127.588 130.4C127.588 129.04 126.564 128.32 125.22 128.32H121.012V136H125.348ZM122.292 132.672H125.22C125.86 132.672 126.548 132.88 126.548 133.792C126.548 134.64 125.972 134.88 125.172 134.88H122.292V132.672ZM122.292 129.44H125.092C125.636 129.44 126.292 129.664 126.292 130.528C126.292 131.312 125.764 131.568 125.092 131.568H122.292V129.44ZM131.058 136V132.752H135.506V136H136.786V128.32H135.506V131.568H131.058V128.32H129.778V136H131.058ZM145.393 134.4V131.392C145.393 129.248 144.097 128.128 142.049 128.128C140.785 128.128 139.729 128.432 139.121 128.64V129.888C139.793 129.6 140.737 129.312 141.921 129.312C143.329 129.312 144.113 130.08 144.113 131.232V131.504C143.473 131.36 142.657 131.264 141.985 131.264C140.337 131.264 138.513 131.872 138.513 133.856C138.513 135.472 139.857 136.192 141.217 136.192C142.465 136.192 143.441 135.808 144.209 135.168C144.433 135.84 144.993 136.096 145.617 136.096C145.937 136.096 146.273 136.032 146.577 135.92V134.88C146.385 134.944 146.177 134.992 145.985 134.992C145.649 134.992 145.393 134.864 145.393 134.4ZM139.825 133.792C139.825 132.672 141.041 132.336 142.161 132.336C142.785 132.336 143.569 132.448 144.113 132.56V133.968C143.441 134.688 142.465 135.088 141.489 135.088C140.641 135.088 139.825 134.688 139.825 133.792ZM148.718 136L150.814 133.312H152.974V136H154.254V128.32H150.478C148.606 128.32 147.598 129.472 147.598 130.816C147.598 131.888 148.238 132.832 149.438 133.184L147.214 136H148.718ZM148.878 130.816C148.878 129.968 149.518 129.472 150.59 129.472H152.974V132.16H150.59C149.518 132.16 148.878 131.664 148.878 130.816ZM161.886 136V129.504H166.334V136H167.614V128.32H160.606V136H161.886ZM171.133 129.6V128.32H169.981V139.52H171.261V134.848C171.821 135.504 172.765 136.192 174.237 136.192C176.429 136.192 178.077 134.464 178.077 132.16C178.077 129.856 176.429 128.128 174.237 128.128C172.765 128.128 171.821 128.816 171.133 129.6ZM176.797 132.16C176.797 133.92 175.581 135.008 174.093 135.008C172.717 135.008 171.693 134.112 171.261 133.12V131.2C171.693 130.208 172.717 129.312 174.093 129.312C175.581 129.312 176.797 130.4 176.797 132.16ZM186.158 134.4V131.392C186.158 129.248 184.862 128.128 182.814 128.128C181.55 128.128 180.494 128.432 179.886 128.64V129.888C180.558 129.6 181.502 129.312 182.686 129.312C184.094 129.312 184.878 130.08 184.878 131.232V131.504C184.238 131.36 183.422 131.264 182.75 131.264C181.102 131.264 179.278 131.872 179.278 133.856C179.278 135.472 180.622 136.192 181.982 136.192C183.23 136.192 184.206 135.808 184.974 135.168C185.198 135.84 185.758 136.096 186.382 136.096C186.702 136.096 187.038 136.032 187.342 135.92V134.88C187.15 134.944 186.942 134.992 186.75 134.992C186.414 134.992 186.158 134.864 186.158 134.4ZM180.59 133.792C180.59 132.672 181.806 132.336 182.926 132.336C183.55 132.336 184.334 132.448 184.878 132.56V133.968C184.206 134.688 183.23 135.088 182.254 135.088C181.406 135.088 180.59 134.688 180.59 133.792ZM189.995 136V132.704H191.499L194.315 136H195.819L192.555 132.144L195.467 128.32H193.979L191.547 131.52H189.995V128.32H188.715V136H189.995ZM200.29 136V129.504H203.106V128.32H196.178V129.504H199.01V136H200.29ZM205.647 136L210.351 130.384V136H211.631V128.32H210.543L205.839 133.936V128.32H204.559V136H205.647ZM215.277 136V132.704H216.781L219.597 136H221.101L217.837 132.144L220.749 128.32H219.261L216.829 131.52H215.277V128.32H213.997V136H215.277ZM228.549 134.4V131.392C228.549 129.248 227.253 128.128 225.205 128.128C223.941 128.128 222.885 128.432 222.277 128.64V129.888C222.949 129.6 223.893 129.312 225.077 129.312C226.485 129.312 227.269 130.08 227.269 131.232V131.504C226.629 131.36 225.813 131.264 225.141 131.264C223.493 131.264 221.669 131.872 221.669 133.856C221.669 135.472 223.013 136.192 224.373 136.192C225.621 136.192 226.597 135.808 227.365 135.168C227.589 135.84 228.149 136.096 228.773 136.096C229.093 136.096 229.429 136.032 229.733 135.92V134.88C229.541 134.944 229.333 134.992 229.141 134.992C228.805 134.992 228.549 134.864 228.549 134.4ZM222.981 133.792C222.981 132.672 224.197 132.336 225.317 132.336C225.941 132.336 226.725 132.448 227.269 132.56V133.968C226.597 134.688 225.621 135.088 224.645 135.088C223.797 135.088 222.981 134.688 222.981 133.792ZM47.464 168V161.504H51.912V168H53.192V160.32H46.184V168H47.464ZM55.031 164.16C55.031 166.784 57.047 168.192 59.127 168.192C61.223 168.192 63.223 166.784 63.223 164.16C63.223 161.536 61.223 160.128 59.127 160.128C57.047 160.128 55.031 161.536 55.031 164.16ZM61.943 164.16C61.943 165.936 60.695 166.976 59.127 166.976C57.559 166.976 56.311 165.936 56.311 164.16C56.311 162.384 57.559 161.344 59.127 161.344C60.695 161.344 61.943 162.384 61.943 164.16ZM66.339 168V164.704H67.843L70.659 168H72.163L68.899 164.144L71.811 160.32H70.323L67.891 163.52H66.339V160.32H65.059V168H66.339ZM79.6115 166.4V163.392C79.6115 161.248 78.3155 160.128 76.2675 160.128C75.0035 160.128 73.9475 160.432 73.3395 160.64V161.888C74.0115 161.6 74.9555 161.312 76.1395 161.312C77.5475 161.312 78.3315 162.08 78.3315 163.232V163.504C77.6915 163.36 76.8755 163.264 76.2035 163.264C74.5555 163.264 72.7315 163.872 72.7315 165.856C72.7315 167.472 74.0755 168.192 75.4355 168.192C76.6835 168.192 77.6595 167.808 78.4275 167.168C78.6515 167.84 79.2115 168.096 79.8355 168.096C80.1555 168.096 80.4915 168.032 80.7955 167.92V166.88C80.6035 166.944 80.3955 166.992 80.2035 166.992C79.8675 166.992 79.6115 166.864 79.6115 166.4ZM74.0435 165.792C74.0435 164.672 75.2595 164.336 76.3795 164.336C77.0035 164.336 77.7875 164.448 78.3315 164.56V165.968C77.6595 166.688 76.6835 167.088 75.7075 167.088C74.8595 167.088 74.0435 166.688 74.0435 165.792ZM87.9124 165.936C87.9124 164.944 87.1924 164.288 86.3284 164.064C87.1924 163.872 87.7524 163.264 87.7524 162.336C87.7524 160.992 86.6484 160.112 84.5044 160.112C83.4804 160.112 82.5204 160.352 81.7524 160.704V161.904C82.4564 161.552 83.4484 161.296 84.3604 161.296C85.5604 161.296 86.4724 161.664 86.4724 162.512C86.4724 163.248 85.8004 163.504 84.9364 163.504H83.2564V164.688H84.9364C85.7044 164.688 86.6324 164.848 86.6324 165.792C86.6324 166.784 85.5124 167.008 84.2964 167.008C83.3684 167.008 82.2804 166.736 81.6244 166.384V167.6C82.3444 167.952 83.3684 168.192 84.4564 168.192C86.5844 168.192 87.9124 167.392 87.9124 165.936ZM93.4414 168C95.3134 168 96.4174 166.928 96.4174 165.504C96.4174 164.08 95.3134 163.008 93.4414 163.008H91.0734V160.32H89.7934V168H93.4414ZM91.0734 164.16H93.2814C94.4014 164.16 95.1214 164.592 95.1214 165.504C95.1214 166.416 94.4014 166.848 93.2814 166.848H91.0734V164.16ZM99.1854 168V160.32H97.9054V168H99.1854ZM105.895 168C107.559 168 108.375 167.136 108.375 165.872C108.375 164.912 107.735 164.304 107.111 164.096C107.687 163.84 108.135 163.2 108.135 162.4C108.135 161.04 107.111 160.32 105.767 160.32H101.559V168H105.895ZM102.839 164.672H105.767C106.407 164.672 107.095 164.88 107.095 165.792C107.095 166.64 106.519 166.88 105.719 166.88H102.839V164.672ZM102.839 161.44H105.639C106.183 161.44 106.839 161.664 106.839 162.528C106.839 163.312 106.311 163.568 105.639 163.568H102.839V161.44ZM116.565 166.4V163.392C116.565 161.248 115.269 160.128 113.221 160.128C111.957 160.128 110.901 160.432 110.293 160.64V161.888C110.965 161.6 111.909 161.312 113.093 161.312C114.501 161.312 115.285 162.08 115.285 163.232V163.504C114.645 163.36 113.829 163.264 113.157 163.264C111.509 163.264 109.685 163.872 109.685 165.856C109.685 167.472 111.029 168.192 112.389 168.192C113.637 168.192 114.613 167.808 115.381 167.168C115.605 167.84 116.165 168.096 116.789 168.096C117.109 168.096 117.445 168.032 117.749 167.92V166.88C117.557 166.944 117.349 166.992 117.157 166.992C116.821 166.992 116.565 166.864 116.565 166.4ZM110.997 165.792C110.997 164.672 112.213 164.336 113.333 164.336C113.957 164.336 114.741 164.448 115.285 164.56V165.968C114.613 166.688 113.637 167.088 112.661 167.088C111.813 167.088 110.997 166.688 110.997 165.792ZM118.594 164.16C118.594 166.896 120.578 168.192 122.85 168.192C123.858 168.192 124.866 168 125.57 167.632V166.384C124.914 166.752 123.986 167.008 123.042 167.008C121.49 167.008 120.034 166.336 119.874 164.72H125.986C126.466 162.544 125.378 160.128 122.418 160.128C120.594 160.128 118.594 161.472 118.594 164.16ZM124.85 163.6H119.874C119.97 162.096 121.186 161.312 122.498 161.312C124.45 161.312 124.962 162.784 124.85 163.6ZM130.9 168V161.504H133.716V160.32H126.788V161.504H129.62V168H130.9ZM134.501 170.4L135.701 166.72H134.341L133.461 170.4H134.501ZM147.872 168V160.32H146.592V164.208C146 164.448 145.456 164.544 144.688 164.544C143.408 164.544 142.624 164.176 142.624 162.88V160.32H141.344V162.976C141.344 164.864 142.544 165.728 144.304 165.728C145.264 165.728 145.888 165.6 146.592 165.328V168H147.872ZM153.447 168V161.504H156.263V160.32H149.335V161.504H152.167V168H153.447ZM156.937 164.16C156.937 166.784 158.953 168.192 161.033 168.192C163.129 168.192 165.129 166.784 165.129 164.16C165.129 161.536 163.129 160.128 161.033 160.128C158.953 160.128 156.937 161.536 156.937 164.16ZM163.849 164.16C163.849 165.936 162.601 166.976 161.033 166.976C159.465 166.976 158.217 165.936 158.217 164.16C158.217 162.384 159.465 161.344 161.033 161.344C162.601 161.344 163.849 162.384 163.849 164.16ZM45.656 196.192C45.656 198.928 47.752 200.192 49.768 200.192C50.728 200.192 51.544 200.016 52.264 199.664V198.384C51.624 198.768 50.776 199.008 49.944 199.008C48.44 199.008 46.936 198.128 46.936 196.16C46.936 194.144 48.488 193.312 49.976 193.312C50.792 193.312 51.608 193.552 52.184 194V192.752C51.528 192.32 50.68 192.128 49.816 192.128C47.816 192.128 45.656 193.392 45.656 196.192ZM56.8571 193.504H59.9771V200H61.2571V192.32H55.6091C55.4651 196.448 55.0171 199.04 53.6571 199.04C53.4971 199.04 53.3211 199.008 53.1451 198.944V199.952C53.4811 200.08 53.7851 200.128 54.0731 200.128C56.0571 200.128 56.6011 197.44 56.8571 193.504ZM63.0935 196.16C63.0935 198.784 65.1095 200.192 67.1895 200.192C69.2855 200.192 71.2855 198.784 71.2855 196.16C71.2855 193.536 69.2855 192.128 67.1895 192.128C65.1095 192.128 63.0935 193.536 63.0935 196.16ZM70.0055 196.16C70.0055 197.936 68.7575 198.976 67.1895 198.976C65.6215 198.976 64.3735 197.936 64.3735 196.16C64.3735 194.384 65.6215 193.344 67.1895 193.344C68.7575 193.344 70.0055 194.384 70.0055 196.16ZM83.5145 200L80.4585 196.144L83.1625 192.32H81.7385L79.4025 195.6H78.2345V192.32H76.9545V195.6H75.7865L73.4505 192.32H72.0265L74.7305 196.144L71.6745 200H73.1145L75.7225 196.784H76.9545V200H78.2345V196.784H79.4665L82.0745 200H83.5145ZM85.897 200L90.601 194.384V200H91.881V192.32H90.793L86.089 197.936V192.32H84.809V200H85.897ZM98.5825 200C100.247 200 101.062 199.136 101.062 197.872C101.062 196.912 100.423 196.304 99.7985 196.096C100.375 195.84 100.823 195.2 100.823 194.4C100.823 193.04 99.7985 192.32 98.4545 192.32H94.2465V200H98.5825ZM95.5265 196.672H98.4545C99.0945 196.672 99.7825 196.88 99.7825 197.792C99.7825 198.64 99.2065 198.88 98.4065 198.88H95.5265V196.672ZM95.5265 193.44H98.3265C98.8705 193.44 99.5265 193.664 99.5265 194.528C99.5265 195.312 98.9985 195.568 98.3265 195.568H95.5265V193.44ZM113.732 200V192.32H112.452V198.816H109.012V192.32H107.732V198.816H104.292V192.32H103.012V200H113.732ZM122.346 198.4V195.392C122.346 193.248 121.05 192.128 119.002 192.128C117.738 192.128 116.682 192.432 116.074 192.64V193.888C116.746 193.6 117.69 193.312 118.874 193.312C120.282 193.312 121.066 194.08 121.066 195.232V195.504C120.426 195.36 119.61 195.264 118.938 195.264C117.29 195.264 115.466 195.872 115.466 197.856C115.466 199.472 116.81 200.192 118.17 200.192C119.418 200.192 120.394 199.808 121.162 199.168C121.386 199.84 121.946 200.096 122.57 200.096C122.89 200.096 123.226 200.032 123.53 199.92V198.88C123.338 198.944 123.13 198.992 122.938 198.992C122.602 198.992 122.346 198.864 122.346 198.4ZM116.778 197.792C116.778 196.672 117.994 196.336 119.114 196.336C119.738 196.336 120.522 196.448 121.066 196.56V197.968C120.394 198.688 119.418 199.088 118.442 199.088C117.594 199.088 116.778 198.688 116.778 197.792ZM125.671 200L127.767 197.312H129.927V200H131.207V192.32H127.431C125.559 192.32 124.551 193.472 124.551 194.816C124.551 195.888 125.191 196.832 126.391 197.184L124.167 200H125.671ZM125.831 194.816C125.831 193.968 126.471 193.472 127.543 193.472H129.927V196.16H127.543C126.471 196.16 125.831 195.664 125.831 194.816ZM133.047 196.192C133.047 198.928 135.143 200.192 137.159 200.192C138.119 200.192 138.935 200.016 139.655 199.664V198.384C139.015 198.768 138.167 199.008 137.335 199.008C135.831 199.008 134.327 198.128 134.327 196.16C134.327 194.144 135.879 193.312 137.367 193.312C138.183 193.312 138.999 193.552 139.575 194V192.752C138.919 192.32 138.071 192.128 137.207 192.128C135.207 192.128 133.047 193.392 133.047 196.192ZM142.296 200L144.392 197.312H146.552V200H147.832V192.32H144.056C142.184 192.32 141.176 193.472 141.176 194.816C141.176 195.888 141.816 196.832 143.016 197.184L140.792 200H142.296ZM142.456 194.816C142.456 193.968 143.096 193.472 144.168 193.472H146.552V196.16H144.168C143.096 196.16 142.456 195.664 142.456 194.816ZM153.656 196.192C153.656 198.928 155.752 200.192 157.768 200.192C158.728 200.192 159.544 200.016 160.264 199.664V198.384C159.624 198.768 158.776 199.008 157.944 199.008C156.44 199.008 154.936 198.128 154.936 196.16C154.936 194.144 156.488 193.312 157.976 193.312C158.792 193.312 159.608 193.552 160.184 194V192.752C159.528 192.32 158.68 192.128 157.816 192.128C155.816 192.128 153.656 193.392 153.656 196.192ZM165.337 200V193.504H168.153V192.32H161.225V193.504H164.057V200H165.337ZM170.758 193.6V192.32H169.606V203.52H170.886V198.848C171.446 199.504 172.39 200.192 173.862 200.192C176.054 200.192 177.702 198.464 177.702 196.16C177.702 193.856 176.054 192.128 173.862 192.128C172.39 192.128 171.446 192.816 170.758 193.6ZM176.422 196.16C176.422 197.92 175.206 199.008 173.718 199.008C172.342 199.008 171.318 198.112 170.886 197.12V195.2C171.318 194.208 172.342 193.312 173.718 193.312C175.206 193.312 176.422 194.4 176.422 196.16ZM182.51 198.544L179.614 192.32H178.254L181.902 200.016L181.614 200.72C181.118 201.968 180.494 202.592 179.63 202.592C179.406 202.592 179.182 202.56 178.958 202.496V203.6C179.246 203.68 179.518 203.712 179.79 203.712C180.91 203.712 181.886 203.008 182.686 201.152L186.462 192.32H185.102L182.51 198.544ZM189.167 200V196.704H190.671L193.487 200H194.991L191.727 196.144L194.639 192.32H193.151L190.719 195.52H189.167V192.32H187.887V200H189.167ZM199.462 200V193.504H202.278V192.32H195.35V193.504H198.182V200H199.462ZM206.963 198.544L204.067 192.32H202.707L206.355 200.016L206.067 200.72C205.571 201.968 204.947 202.592 204.083 202.592C203.859 202.592 203.635 202.56 203.411 202.496V203.6C203.699 203.68 203.971 203.712 204.243 203.712C205.363 203.712 206.339 203.008 207.139 201.152L210.915 192.32H209.555L206.963 198.544ZM213.492 193.6V192.32H212.34V203.52H213.62V198.848C214.18 199.504 215.124 200.192 216.596 200.192C218.788 200.192 220.436 198.464 220.436 196.16C220.436 193.856 218.788 192.128 216.596 192.128C215.124 192.128 214.18 192.816 213.492 193.6ZM219.156 196.16C219.156 197.92 217.94 199.008 216.452 199.008C215.076 199.008 214.052 198.112 213.62 197.12V195.2C214.052 194.208 215.076 193.312 216.452 193.312C217.94 193.312 219.156 194.4 219.156 196.16ZM228.518 198.4V195.392C228.518 193.248 227.222 192.128 225.174 192.128C223.91 192.128 222.854 192.432 222.246 192.64V193.888C222.918 193.6 223.862 193.312 225.046 193.312C226.454 193.312 227.238 194.08 227.238 195.232V195.504C226.598 195.36 225.782 195.264 225.11 195.264C223.462 195.264 221.638 195.872 221.638 197.856C221.638 199.472 222.982 200.192 224.342 200.192C225.59 200.192 226.566 199.808 227.334 199.168C227.558 199.84 228.118 200.096 228.742 200.096C229.062 200.096 229.398 200.032 229.702 199.92V198.88C229.51 198.944 229.302 198.992 229.11 198.992C228.774 198.992 228.518 198.864 228.518 198.4ZM222.95 197.792C222.95 196.672 224.166 196.336 225.286 196.336C225.91 196.336 226.694 196.448 227.238 196.56V197.968C226.566 198.688 225.59 199.088 224.614 199.088C223.766 199.088 222.95 198.688 222.95 197.792ZM45.656 228.16C45.656 230.784 47.672 232.192 49.752 232.192C51.848 232.192 53.848 230.784 53.848 228.16C53.848 225.536 51.848 224.128 49.752 224.128C47.672 224.128 45.656 225.536 45.656 228.16ZM52.568 228.16C52.568 229.936 51.32 230.976 49.752 230.976C48.184 230.976 46.936 229.936 46.936 228.16C46.936 226.384 48.184 225.344 49.752 225.344C51.32 225.344 52.568 226.384 52.568 228.16ZM56.836 225.6V224.32H55.684V235.52H56.964V230.848C57.524 231.504 58.468 232.192 59.94 232.192C62.132 232.192 63.78 230.464 63.78 228.16C63.78 225.856 62.132 224.128 59.94 224.128C58.468 224.128 57.524 224.816 56.836 225.6ZM62.5 228.16C62.5 229.92 61.284 231.008 59.796 231.008C58.42 231.008 57.396 230.112 56.964 229.12V227.2C57.396 226.208 58.42 225.312 59.796 225.312C61.284 225.312 62.5 226.4 62.5 228.16ZM66.9015 232V225.504H71.2375V224.32H65.6215V232H66.9015ZM78.8459 230.4V227.392C78.8459 225.248 77.5499 224.128 75.5019 224.128C74.2379 224.128 73.1819 224.432 72.5739 224.64V225.888C73.2459 225.6 74.1899 225.312 75.3739 225.312C76.7819 225.312 77.5659 226.08 77.5659 227.232V227.504C76.9259 227.36 76.1099 227.264 75.4379 227.264C73.7899 227.264 71.9659 227.872 71.9659 229.856C71.9659 231.472 73.3099 232.192 74.6699 232.192C75.9179 232.192 76.8939 231.808 77.6619 231.168C77.8859 231.84 78.4459 232.096 79.0699 232.096C79.3899 232.096 79.7259 232.032 80.0299 231.92V230.88C79.8379 230.944 79.6299 230.992 79.4379 230.992C79.1019 230.992 78.8459 230.864 78.8459 230.4ZM73.2779 229.792C73.2779 228.672 74.4939 228.336 75.6139 228.336C76.2379 228.336 77.0219 228.448 77.5659 228.56V229.968C76.8939 230.688 75.9179 231.088 74.9419 231.088C74.0939 231.088 73.2779 230.688 73.2779 229.792ZM82.6828 232V228.752H87.1308V232H88.4108V224.32H87.1308V227.568H82.6828V224.32H81.4028V232H82.6828ZM91.8658 232L96.5698 226.384V232H97.8498V224.32H96.7618L92.0578 229.936V224.32H90.7778V232H91.8658ZM105.959 229.936C105.959 228.944 105.239 228.288 104.375 228.064C105.239 227.872 105.799 227.264 105.799 226.336C105.799 224.992 104.695 224.112 102.551 224.112C101.527 224.112 100.567 224.352 99.7993 224.704V225.904C100.503 225.552 101.495 225.296 102.407 225.296C103.607 225.296 104.519 225.664 104.519 226.512C104.519 227.248 103.847 227.504 102.983 227.504H101.303V228.688H102.983C103.751 228.688 104.679 228.848 104.679 229.792C104.679 230.784 103.559 231.008 102.343 231.008C101.415 231.008 100.327 230.736 99.6713 230.384V231.6C100.391 231.952 101.415 232.192 102.503 232.192C104.631 232.192 105.959 231.392 105.959 229.936ZM114.08 230.4V227.392C114.08 225.248 112.784 224.128 110.736 224.128C109.472 224.128 108.416 224.432 107.808 224.64V225.888C108.48 225.6 109.424 225.312 110.608 225.312C112.016 225.312 112.8 226.08 112.8 227.232V227.504C112.16 227.36 111.344 227.264 110.672 227.264C109.024 227.264 107.2 227.872 107.2 229.856C107.2 231.472 108.544 232.192 109.904 232.192C111.152 232.192 112.128 231.808 112.896 231.168C113.12 231.84 113.68 232.096 114.304 232.096C114.624 232.096 114.96 232.032 115.264 231.92V230.88C115.072 230.944 114.864 230.992 114.672 230.992C114.336 230.992 114.08 230.864 114.08 230.4ZM108.512 229.792C108.512 228.672 109.728 228.336 110.848 228.336C111.472 228.336 112.256 228.448 112.8 228.56V229.968C112.128 230.688 111.152 231.088 110.176 231.088C109.328 231.088 108.512 230.688 108.512 229.792ZM124.541 234.08V230.816H123.405V224.32H122.125V230.816H117.917V224.32H116.637V232H123.293V234.08H124.541ZM127.335 232L132.039 226.384V232H133.319V224.32H132.231L127.527 229.936V224.32H126.247V232H127.335ZM136.772 232L141.476 226.384V232H142.756V224.32H141.668L136.964 229.936V224.32H135.684V232H136.772Z" fill="black"/>
<g clip-path="url(#clip0_96182:334)">
<path d="M83.4527 58.4851H64.207C63.1758 58.4851 62.3379 57.6472 62.3379 56.616C62.3379 55.5847 63.1758 54.7469 64.207 54.7469H83.4527C84.484 54.7469 85.3219 55.5847 85.3219 56.616C85.3219 57.6472 84.484 58.4851 83.4527 58.4851Z" fill="#2D527C"/>
<path d="M68.3191 89.4871H62.3766C52.7988 89.4871 45 81.6883 45 72.1105C45 65.7683 48.4547 59.9289 54.0234 56.8738C54.9258 56.3711 56.073 56.7062 56.5758 57.6215C57.0785 58.5238 56.7434 59.6711 55.8281 60.1738C51.4582 62.5715 48.7512 67.1476 48.7512 72.1234C48.7512 79.6386 54.8613 85.7488 62.3766 85.7488H68.3191C69.3504 85.7488 70.1883 86.5867 70.1883 87.6179C70.2012 88.6363 69.3504 89.4871 68.3191 89.4871Z" fill="#2D527C"/>
<path d="M69.9176 103.203C61.3711 103.203 54.4102 96.2418 54.4102 87.6824C54.4102 86.6512 55.248 85.8133 56.2793 85.8133C57.3105 85.8133 58.1484 86.6512 58.1484 87.6824C58.1484 94.1664 63.4207 99.4515 69.9176 99.4515C76.4145 99.4515 81.6867 94.1793 81.6867 87.6824C81.6867 81.1984 76.4145 75.9133 69.9176 75.9133C66.6563 75.9133 63.627 77.2152 61.384 79.5742C60.675 80.3219 59.4891 80.3605 58.7285 79.6387C57.9809 78.9297 57.9422 77.7437 58.6641 76.9832C61.6289 73.8637 65.625 72.1492 69.9176 72.1492C78.477 72.1492 85.4379 79.1101 85.4379 87.6695C85.4379 96.2289 78.477 103.203 69.9176 103.203Z" fill="#F0BF5F"/>
<path d="M94.5645 85.7875H83.1176C82.0864 85.7875 81.2485 84.9496 81.2485 83.9183C81.2485 82.8871 82.0864 82.0492 83.1176 82.0492H94.5645C95.5957 82.0492 96.4336 82.8871 96.4336 83.9183C96.4336 84.9496 95.5957 85.7875 94.5645 85.7875Z" fill="#F0BF5F"/>
<path d="M106.811 93.3285H83.5559C82.5246 93.3285 81.6867 92.4906 81.6867 91.4593C81.6867 90.4281 82.5246 89.5902 83.5559 89.5902H106.811C107.055 89.5902 107.249 89.3968 107.249 89.1519V78.5043C107.249 78.1433 106.952 77.8597 106.604 77.8597H104.98C104.619 77.8597 104.336 78.1562 104.336 78.5043V83.5058C104.336 84.5371 103.498 85.375 102.466 85.375C101.435 85.375 100.597 84.5371 100.597 83.5058V78.5043C100.597 76.0808 102.57 74.1086 104.993 74.1086H106.617C109.041 74.1086 111.013 76.0808 111.013 78.5043V89.1519C111 91.4464 109.118 93.3285 106.811 93.3285Z" fill="#F0BF5F"/>
<path d="M69.9176 92.9418C72.865 92.9418 75.2543 90.5524 75.2543 87.6051C75.2543 84.6577 72.865 82.2683 69.9176 82.2683C66.9702 82.2683 64.5808 84.6577 64.5808 87.6051C64.5808 90.5524 66.9702 92.9418 69.9176 92.9418Z" fill="#CEE8FA"/>
<path d="M69.9176 94.8109C65.9472 94.8109 62.7117 91.5754 62.7117 87.6051C62.7117 83.6347 65.9472 80.3992 69.9176 80.3992C73.8879 80.3992 77.1234 83.6347 77.1234 87.6051C77.1234 91.5754 73.9008 94.8109 69.9176 94.8109ZM69.9176 84.1504C68.0097 84.1504 66.4629 85.6972 66.4629 87.6051C66.4629 89.5129 68.0097 91.0598 69.9176 91.0598C71.8254 91.0598 73.3723 89.5129 73.3723 87.6051C73.3723 85.6972 71.8254 84.1504 69.9176 84.1504Z" fill="#F0BF5F"/>
<path d="M72.8953 64.5695V48.6496C72.8953 46.4582 74.6742 44.6793 76.8656 44.6793H105.148C107.339 44.6793 109.118 46.4582 109.118 48.6496V64.5695C109.118 66.7609 107.339 68.5398 105.148 68.5398H76.8785C74.6742 68.5398 72.8953 66.7609 72.8953 64.5695Z" fill="#CEE8FA"/>
<path d="M105.148 70.4219H76.8785C73.6558 70.4219 71.0262 67.7922 71.0262 64.5696V48.6496C71.0262 45.427 73.6558 42.7973 76.8785 42.7973H105.161C108.383 42.7973 111.013 45.427 111.013 48.6496V64.5696C111 67.7922 108.37 70.4219 105.148 70.4219ZM76.8785 46.5485C75.7183 46.5485 74.7773 47.4895 74.7773 48.6496V64.5696C74.7773 65.7297 75.7183 66.6707 76.8785 66.6707H105.161C106.321 66.6707 107.262 65.7297 107.262 64.5696V48.6496C107.262 47.4895 106.321 46.5485 105.161 46.5485H76.8785Z" fill="#2D527C"/>
<path d="M89.4468 57.7118H88.8152V56.5645C88.8152 55.9071 88.1578 55.4817 87.1394 55.4817C86.1211 55.4817 85.4636 55.9071 85.4636 56.5645V57.7118H84.3164L87.5519 51.2149C87.6035 51.086 87.6679 50.9313 87.6679 50.7766C87.6679 49.9645 86.5851 49.4618 85.9922 49.4618C85.3734 49.4618 84.8707 49.7711 84.5871 50.3254L80.2043 58.9493C80.0496 59.2329 80.0238 59.4778 80.0238 59.6067C80.0238 60.3286 80.5008 60.8184 81.1968 60.8184H85.4636V62.6489C85.4636 63.4094 86.3273 63.7446 87.1394 63.7446C87.9386 63.7446 88.8152 63.3965 88.8152 62.6489V60.8184H89.4468C90.014 60.8184 90.5425 60.0579 90.5425 59.2586C90.5425 58.511 90.1945 57.7118 89.4468 57.7118Z" fill="#2D527C"/>
<path d="M100.894 57.7118H100.262V56.5645C100.262 55.9071 99.6046 55.4817 98.5863 55.4817C97.5679 55.4817 96.9105 55.9071 96.9105 56.5645V57.7118H95.7632L99.0117 51.2149C99.0632 51.086 99.1277 50.9313 99.1277 50.7766C99.1277 49.9645 98.0449 49.4618 97.4519 49.4618C96.8332 49.4618 96.3304 49.7711 96.0468 50.3254L91.664 58.9493C91.5093 59.2329 91.4836 59.4778 91.4836 59.6067C91.4836 60.3286 91.9605 60.8184 92.6566 60.8184H96.9234V62.6489C96.9234 63.4094 97.7871 63.7446 98.5992 63.7446C99.4113 63.7446 100.275 63.3965 100.275 62.6489V60.8184H100.907C101.474 60.8184 102.002 60.0579 102.002 59.2586C102.002 58.511 101.654 57.7118 100.894 57.7118Z" fill="#2D527C"/>
</g>
<defs>
<clipPath id="clip0_96182:334">
<rect width="66" height="66" fill="white" transform="translate(45 40)"/>
</clipPath>
</defs>
</svg>
