<svg width="275" height="275" viewBox="0 0 275 275" fill="none" xmlns="http://www.w3.org/2000/svg">
<rect width="275" height="275" rx="15" fill="white"/>
<path d="M47.816 136V126.08H54.264V136H55.608V124.8H46.472V136H47.816ZM57.5623 132.16C57.5623 134.784 59.5783 136.192 61.6583 136.192C63.7543 136.192 65.7543 134.784 65.7543 132.16C65.7543 129.536 63.7543 128.128 61.6583 128.128C59.5783 128.128 57.5623 129.536 57.5623 132.16ZM64.4743 132.16C64.4743 133.936 63.2263 134.976 61.6583 134.976C60.0903 134.976 58.8423 133.936 58.8423 132.16C58.8423 130.384 60.0903 129.344 61.6583 129.344C63.2263 129.344 64.4743 130.384 64.4743 132.16ZM71.9263 136C73.5903 136 74.4062 135.136 74.4062 133.872C74.4062 132.912 73.7663 132.304 73.1423 132.096C73.7183 131.84 74.1663 131.2 74.1663 130.4C74.1663 129.04 73.1423 128.32 71.7983 128.32H67.5903V136H71.9263ZM68.8703 132.672H71.7983C72.4383 132.672 73.1263 132.88 73.1263 133.792C73.1263 134.64 72.5503 134.88 71.7503 134.88H68.8703V132.672ZM68.8703 129.44H71.6703C72.2143 129.44 72.8703 129.664 72.8703 130.528C72.8703 131.312 72.3423 131.568 71.6703 131.568H68.8703V129.44ZM75.8279 132.192C75.8279 134.928 77.9239 136.192 79.9399 136.192C80.8999 136.192 81.7159 136.016 82.4359 135.664V134.384C81.7959 134.768 80.9479 135.008 80.1159 135.008C78.6119 135.008 77.1079 134.128 77.1079 132.16C77.1079 130.144 78.6599 129.312 80.1479 129.312C80.9639 129.312 81.7799 129.552 82.3559 130V128.752C81.6999 128.32 80.8519 128.128 79.9879 128.128C77.9879 128.128 75.8279 129.392 75.8279 132.192ZM83.6404 132.16C83.6404 134.896 85.6244 136.192 87.8964 136.192C88.9044 136.192 89.9124 136 90.6164 135.632V134.384C89.9604 134.752 89.0324 135.008 88.0884 135.008C86.5364 135.008 85.0804 134.336 84.9204 132.72H91.0324C91.5124 130.544 90.4244 128.128 87.4644 128.128C85.6404 128.128 83.6404 129.472 83.6404 132.16ZM89.8964 131.6H84.9204C85.0164 130.096 86.2324 129.312 87.5444 129.312C89.4964 129.312 90.0084 130.784 89.8964 131.6ZM93.2578 138.08V136H99.9458V138.08H101.194V134.848H100.074V128.32H94.3458C94.3778 131.184 93.9938 133.152 93.0338 134.848H92.0098V138.08H93.2578ZM95.5778 129.472H98.7938V134.848H94.4258C95.1298 133.376 95.5138 131.776 95.5778 129.472ZM104.183 136V132.752H108.631V136H109.911V128.32H108.631V131.568H104.183V128.32H102.903V136H104.183ZM111.75 132.16C111.75 134.896 113.734 136.192 116.006 136.192C117.014 136.192 118.022 136 118.726 135.632V134.384C118.07 134.752 117.142 135.008 116.198 135.008C114.646 135.008 113.19 134.336 113.03 132.72H119.142C119.622 130.544 118.534 128.128 115.574 128.128C113.75 128.128 111.75 129.472 111.75 132.16ZM118.006 131.6H113.03C113.126 130.096 114.342 129.312 115.654 129.312C117.606 129.312 118.118 130.784 118.006 131.6ZM125.348 136C127.012 136 127.828 135.136 127.828 133.872C127.828 132.912 127.188 132.304 126.564 132.096C127.14 131.84 127.588 131.2 127.588 130.4C127.588 129.04 126.564 128.32 125.22 128.32H121.012V136H125.348ZM122.292 132.672H125.22C125.86 132.672 126.548 132.88 126.548 133.792C126.548 134.64 125.972 134.88 125.172 134.88H122.292V132.672ZM122.292 129.44H125.092C125.636 129.44 126.292 129.664 126.292 130.528C126.292 131.312 125.764 131.568 125.092 131.568H122.292V129.44ZM131.058 136V132.752H135.506V136H136.786V128.32H135.506V131.568H131.058V128.32H129.778V136H131.058ZM145.393 134.4V131.392C145.393 129.248 144.097 128.128 142.049 128.128C140.785 128.128 139.729 128.432 139.121 128.64V129.888C139.793 129.6 140.737 129.312 141.921 129.312C143.329 129.312 144.113 130.08 144.113 131.232V131.504C143.473 131.36 142.657 131.264 141.985 131.264C140.337 131.264 138.513 131.872 138.513 133.856C138.513 135.472 139.857 136.192 141.217 136.192C142.465 136.192 143.441 135.808 144.209 135.168C144.433 135.84 144.993 136.096 145.617 136.096C145.937 136.096 146.273 136.032 146.577 135.92V134.88C146.385 134.944 146.177 134.992 145.985 134.992C145.649 134.992 145.393 134.864 145.393 134.4ZM139.825 133.792C139.825 132.672 141.041 132.336 142.161 132.336C142.785 132.336 143.569 132.448 144.113 132.56V133.968C143.441 134.688 142.465 135.088 141.489 135.088C140.641 135.088 139.825 134.688 139.825 133.792ZM148.718 136L150.814 133.312H152.974V136H154.254V128.32H150.478C148.606 128.32 147.598 129.472 147.598 130.816C147.598 131.888 148.238 132.832 149.438 133.184L147.214 136H148.718ZM148.878 130.816C148.878 129.968 149.518 129.472 150.59 129.472H152.974V132.16H150.59C149.518 132.16 148.878 131.664 148.878 130.816ZM161.886 136V129.504H166.334V136H167.614V128.32H160.606V136H161.886ZM171.133 129.6V128.32H169.981V139.52H171.261V134.848C171.821 135.504 172.765 136.192 174.237 136.192C176.429 136.192 178.077 134.464 178.077 132.16C178.077 129.856 176.429 128.128 174.237 128.128C172.765 128.128 171.821 128.816 171.133 129.6ZM176.797 132.16C176.797 133.92 175.581 135.008 174.093 135.008C172.717 135.008 171.693 134.112 171.261 133.12V131.2C171.693 130.208 172.717 129.312 174.093 129.312C175.581 129.312 176.797 130.4 176.797 132.16ZM186.158 134.4V131.392C186.158 129.248 184.862 128.128 182.814 128.128C181.55 128.128 180.494 128.432 179.886 128.64V129.888C180.558 129.6 181.502 129.312 182.686 129.312C184.094 129.312 184.878 130.08 184.878 131.232V131.504C184.238 131.36 183.422 131.264 182.75 131.264C181.102 131.264 179.278 131.872 179.278 133.856C179.278 135.472 180.622 136.192 181.982 136.192C183.23 136.192 184.206 135.808 184.974 135.168C185.198 135.84 185.758 136.096 186.382 136.096C186.702 136.096 187.038 136.032 187.342 135.92V134.88C187.15 134.944 186.942 134.992 186.75 134.992C186.414 134.992 186.158 134.864 186.158 134.4ZM180.59 133.792C180.59 132.672 181.806 132.336 182.926 132.336C183.55 132.336 184.334 132.448 184.878 132.56V133.968C184.206 134.688 183.23 135.088 182.254 135.088C181.406 135.088 180.59 134.688 180.59 133.792ZM189.995 136V132.704H191.499L194.315 136H195.819L192.555 132.144L195.467 128.32H193.979L191.547 131.52H189.995V128.32H188.715V136H189.995ZM200.29 136V129.504H203.106V128.32H196.178V129.504H199.01V136H200.29ZM205.647 136L210.351 130.384V136H211.631V128.32H210.543L205.839 133.936V128.32H204.559V136H205.647ZM215.277 136V132.704H216.781L219.597 136H221.101L217.837 132.144L220.749 128.32H219.261L216.829 131.52H215.277V128.32H213.997V136H215.277ZM228.549 134.4V131.392C228.549 129.248 227.253 128.128 225.205 128.128C223.941 128.128 222.885 128.432 222.277 128.64V129.888C222.949 129.6 223.893 129.312 225.077 129.312C226.485 129.312 227.269 130.08 227.269 131.232V131.504C226.629 131.36 225.813 131.264 225.141 131.264C223.493 131.264 221.669 131.872 221.669 133.856C221.669 135.472 223.013 136.192 224.373 136.192C225.621 136.192 226.597 135.808 227.365 135.168C227.589 135.84 228.149 136.096 228.773 136.096C229.093 136.096 229.429 136.032 229.733 135.92V134.88C229.541 134.944 229.333 134.992 229.141 134.992C228.805 134.992 228.549 134.864 228.549 134.4ZM222.981 133.792C222.981 132.672 224.197 132.336 225.317 132.336C225.941 132.336 226.725 132.448 227.269 132.56V133.968C226.597 134.688 225.621 135.088 224.645 135.088C223.797 135.088 222.981 134.688 222.981 133.792ZM47.464 168V161.504H51.912V168H53.192V160.32H46.184V168H47.464ZM55.031 164.16C55.031 166.784 57.047 168.192 59.127 168.192C61.223 168.192 63.223 166.784 63.223 164.16C63.223 161.536 61.223 160.128 59.127 160.128C57.047 160.128 55.031 161.536 55.031 164.16ZM61.943 164.16C61.943 165.936 60.695 166.976 59.127 166.976C57.559 166.976 56.311 165.936 56.311 164.16C56.311 162.384 57.559 161.344 59.127 161.344C60.695 161.344 61.943 162.384 61.943 164.16ZM66.339 168V164.704H67.843L70.659 168H72.163L68.899 164.144L71.811 160.32H70.323L67.891 163.52H66.339V160.32H65.059V168H66.339ZM79.6115 166.4V163.392C79.6115 161.248 78.3155 160.128 76.2675 160.128C75.0035 160.128 73.9475 160.432 73.3395 160.64V161.888C74.0115 161.6 74.9555 161.312 76.1395 161.312C77.5475 161.312 78.3315 162.08 78.3315 163.232V163.504C77.6915 163.36 76.8755 163.264 76.2035 163.264C74.5555 163.264 72.7315 163.872 72.7315 165.856C72.7315 167.472 74.0755 168.192 75.4355 168.192C76.6835 168.192 77.6595 167.808 78.4275 167.168C78.6515 167.84 79.2115 168.096 79.8355 168.096C80.1555 168.096 80.4915 168.032 80.7955 167.92V166.88C80.6035 166.944 80.3955 166.992 80.2035 166.992C79.8675 166.992 79.6115 166.864 79.6115 166.4ZM74.0435 165.792C74.0435 164.672 75.2595 164.336 76.3795 164.336C77.0035 164.336 77.7875 164.448 78.3315 164.56V165.968C77.6595 166.688 76.6835 167.088 75.7075 167.088C74.8595 167.088 74.0435 166.688 74.0435 165.792ZM87.9124 165.936C87.9124 164.944 87.1924 164.288 86.3284 164.064C87.1924 163.872 87.7524 163.264 87.7524 162.336C87.7524 160.992 86.6484 160.112 84.5044 160.112C83.4804 160.112 82.5204 160.352 81.7524 160.704V161.904C82.4564 161.552 83.4484 161.296 84.3604 161.296C85.5604 161.296 86.4724 161.664 86.4724 162.512C86.4724 163.248 85.8004 163.504 84.9364 163.504H83.2564V164.688H84.9364C85.7044 164.688 86.6324 164.848 86.6324 165.792C86.6324 166.784 85.5124 167.008 84.2964 167.008C83.3684 167.008 82.2804 166.736 81.6244 166.384V167.6C82.3444 167.952 83.3684 168.192 84.4564 168.192C86.5844 168.192 87.9124 167.392 87.9124 165.936ZM93.4414 168C95.3134 168 96.4174 166.928 96.4174 165.504C96.4174 164.08 95.3134 163.008 93.4414 163.008H91.0734V160.32H89.7934V168H93.4414ZM91.0734 164.16H93.2814C94.4014 164.16 95.1214 164.592 95.1214 165.504C95.1214 166.416 94.4014 166.848 93.2814 166.848H91.0734V164.16ZM99.1854 168V160.32H97.9054V168H99.1854ZM105.895 168C107.559 168 108.375 167.136 108.375 165.872C108.375 164.912 107.735 164.304 107.111 164.096C107.687 163.84 108.135 163.2 108.135 162.4C108.135 161.04 107.111 160.32 105.767 160.32H101.559V168H105.895ZM102.839 164.672H105.767C106.407 164.672 107.095 164.88 107.095 165.792C107.095 166.64 106.519 166.88 105.719 166.88H102.839V164.672ZM102.839 161.44H105.639C106.183 161.44 106.839 161.664 106.839 162.528C106.839 163.312 106.311 163.568 105.639 163.568H102.839V161.44ZM116.565 166.4V163.392C116.565 161.248 115.269 160.128 113.221 160.128C111.957 160.128 110.901 160.432 110.293 160.64V161.888C110.965 161.6 111.909 161.312 113.093 161.312C114.501 161.312 115.285 162.08 115.285 163.232V163.504C114.645 163.36 113.829 163.264 113.157 163.264C111.509 163.264 109.685 163.872 109.685 165.856C109.685 167.472 111.029 168.192 112.389 168.192C113.637 168.192 114.613 167.808 115.381 167.168C115.605 167.84 116.165 168.096 116.789 168.096C117.109 168.096 117.445 168.032 117.749 167.92V166.88C117.557 166.944 117.349 166.992 117.157 166.992C116.821 166.992 116.565 166.864 116.565 166.4ZM110.997 165.792C110.997 164.672 112.213 164.336 113.333 164.336C113.957 164.336 114.741 164.448 115.285 164.56V165.968C114.613 166.688 113.637 167.088 112.661 167.088C111.813 167.088 110.997 166.688 110.997 165.792ZM118.594 164.16C118.594 166.896 120.578 168.192 122.85 168.192C123.858 168.192 124.866 168 125.57 167.632V166.384C124.914 166.752 123.986 167.008 123.042 167.008C121.49 167.008 120.034 166.336 119.874 164.72H125.986C126.466 162.544 125.378 160.128 122.418 160.128C120.594 160.128 118.594 161.472 118.594 164.16ZM124.85 163.6H119.874C119.97 162.096 121.186 161.312 122.498 161.312C124.45 161.312 124.962 162.784 124.85 163.6ZM130.9 168V161.504H133.716V160.32H126.788V161.504H129.62V168H130.9ZM134.501 170.4L135.701 166.72H134.341L133.461 170.4H134.501ZM147.872 168V160.32H146.592V164.208C146 164.448 145.456 164.544 144.688 164.544C143.408 164.544 142.624 164.176 142.624 162.88V160.32H141.344V162.976C141.344 164.864 142.544 165.728 144.304 165.728C145.264 165.728 145.888 165.6 146.592 165.328V168H147.872ZM153.447 168V161.504H156.263V160.32H149.335V161.504H152.167V168H153.447ZM156.937 164.16C156.937 166.784 158.953 168.192 161.033 168.192C163.129 168.192 165.129 166.784 165.129 164.16C165.129 161.536 163.129 160.128 161.033 160.128C158.953 160.128 156.937 161.536 156.937 164.16ZM163.849 164.16C163.849 165.936 162.601 166.976 161.033 166.976C159.465 166.976 158.217 165.936 158.217 164.16C158.217 162.384 159.465 161.344 161.033 161.344C162.601 161.344 163.849 162.384 163.849 164.16ZM46.664 202.08V200H53.352V202.08H54.6V198.848H53.48V192.32H47.752C47.784 195.184 47.4 197.152 46.44 198.848H45.416V202.08H46.664ZM48.984 193.472H52.2V198.848H47.832C48.536 197.376 48.92 195.776 48.984 193.472ZM62.549 198.4V195.392C62.549 193.248 61.253 192.128 59.205 192.128C57.941 192.128 56.885 192.432 56.277 192.64V193.888C56.949 193.6 57.893 193.312 59.077 193.312C60.485 193.312 61.269 194.08 61.269 195.232V195.504C60.629 195.36 59.813 195.264 59.141 195.264C57.493 195.264 55.669 195.872 55.669 197.856C55.669 199.472 57.013 200.192 58.373 200.192C59.621 200.192 60.597 199.808 61.365 199.168C61.589 199.84 62.149 200.096 62.773 200.096C63.093 200.096 63.429 200.032 63.733 199.92V198.88C63.541 198.944 63.333 198.992 63.141 198.992C62.805 198.992 62.549 198.864 62.549 198.4ZM56.981 197.792C56.981 196.672 58.197 196.336 59.317 196.336C59.941 196.336 60.725 196.448 61.269 196.56V197.968C60.597 198.688 59.621 199.088 58.645 199.088C57.797 199.088 56.981 198.688 56.981 197.792ZM67.8259 193.504H70.9459V200H72.2259V192.32H66.5779C66.4339 196.448 65.9859 199.04 64.6259 199.04C64.4659 199.04 64.2899 199.008 64.1139 198.944V199.952C64.4499 200.08 64.7539 200.128 65.0419 200.128C67.0259 200.128 67.5699 197.44 67.8259 193.504ZM78.2383 200C80.1103 200 81.2143 198.928 81.2143 197.504C81.2143 196.08 80.1103 195.008 78.2383 195.008H75.8703V192.32H74.5903V200H78.2383ZM75.8703 196.16H78.0783C79.1983 196.16 79.9183 196.592 79.9183 197.504C79.9183 198.416 79.1983 198.848 78.0783 198.848H75.8703V196.16ZM84.1359 200V196.752H88.5839V200H89.8639V192.32H88.5839V195.568H84.1359V192.32H82.8559V200H84.1359ZM91.7029 196.16C91.7029 198.896 93.6869 200.192 95.9589 200.192C96.9669 200.192 97.9749 200 98.6789 199.632V198.384C98.0229 198.752 97.0949 199.008 96.1509 199.008C94.5989 199.008 93.1429 198.336 92.9829 196.72H99.0949C99.5749 194.544 98.4869 192.128 95.5269 192.128C93.7029 192.128 91.7029 193.472 91.7029 196.16ZM97.9589 195.6H92.9829C93.0789 194.096 94.2949 193.312 95.6069 193.312C97.5589 193.312 98.0709 194.784 97.9589 195.6ZM106.741 190.464V189.312C105.941 189.84 105.285 190.016 104.501 190.016C103.717 190.016 103.061 189.84 102.261 189.312V190.464C102.981 190.976 103.733 191.136 104.501 191.136C105.269 191.136 106.021 190.976 106.741 190.464ZM102.053 200L106.757 194.384V200H108.037V192.32H106.949L102.245 197.936V192.32H100.965V200H102.053ZM121.123 200V192.32H119.843V198.816H116.403V192.32H115.123V198.816H111.683V192.32H110.403V200H121.123ZM122.969 196.16C122.969 198.896 124.953 200.192 127.225 200.192C128.233 200.192 129.241 200 129.945 199.632V198.384C129.289 198.752 128.361 199.008 127.417 199.008C125.865 199.008 124.409 198.336 124.249 196.72H130.361C130.841 194.544 129.753 192.128 126.793 192.128C124.969 192.128 122.969 193.472 122.969 196.16ZM129.225 195.6H124.249C124.345 194.096 125.561 193.312 126.873 193.312C128.825 193.312 129.337 194.784 129.225 195.6ZM131.703 196.16C131.703 198.896 133.687 200.192 135.959 200.192C136.967 200.192 137.975 200 138.679 199.632V198.384C138.023 198.752 137.095 199.008 136.151 199.008C134.599 199.008 133.143 198.336 132.983 196.72H139.095C139.575 194.544 138.487 192.128 135.527 192.128C133.703 192.128 131.703 193.472 131.703 196.16ZM137.959 195.6H132.983C133.079 194.096 134.295 193.312 135.607 193.312C137.559 193.312 138.071 194.784 137.959 195.6ZM146.102 193.6V192.32H144.95V203.52H146.23V198.848C146.79 199.504 147.734 200.192 149.206 200.192C151.398 200.192 153.046 198.464 153.046 196.16C153.046 193.856 151.398 192.128 149.206 192.128C147.734 192.128 146.79 192.816 146.102 193.6ZM151.766 196.16C151.766 197.92 150.55 199.008 149.062 199.008C147.686 199.008 146.662 198.112 146.23 197.12V195.2C146.662 194.208 147.686 193.312 149.062 193.312C150.55 193.312 151.766 194.4 151.766 196.16ZM161.127 198.4V195.392C161.127 193.248 159.831 192.128 157.783 192.128C156.519 192.128 155.463 192.432 154.855 192.64V193.888C155.527 193.6 156.471 193.312 157.655 193.312C159.063 193.312 159.847 194.08 159.847 195.232V195.504C159.207 195.36 158.391 195.264 157.719 195.264C156.071 195.264 154.247 195.872 154.247 197.856C154.247 199.472 155.591 200.192 156.951 200.192C158.199 200.192 159.175 199.808 159.943 199.168C160.167 199.84 160.727 200.096 161.351 200.096C161.671 200.096 162.007 200.032 162.311 199.92V198.88C162.119 198.944 161.911 198.992 161.719 198.992C161.383 198.992 161.127 198.864 161.127 198.4ZM155.559 197.792C155.559 196.672 156.775 196.336 157.895 196.336C158.519 196.336 159.303 196.448 159.847 196.56V197.968C159.175 198.688 158.199 199.088 157.223 199.088C156.375 199.088 155.559 198.688 155.559 197.792ZM169.428 197.936C169.428 196.944 168.708 196.288 167.844 196.064C168.708 195.872 169.268 195.264 169.268 194.336C169.268 192.992 168.164 192.112 166.02 192.112C164.996 192.112 164.036 192.352 163.268 192.704V193.904C163.972 193.552 164.964 193.296 165.876 193.296C167.076 193.296 167.988 193.664 167.988 194.512C167.988 195.248 167.316 195.504 166.452 195.504H164.772V196.688H166.452C167.22 196.688 168.148 196.848 168.148 197.792C168.148 198.784 167.028 199.008 165.812 199.008C164.884 199.008 163.796 198.736 163.14 198.384V199.6C163.86 199.952 164.884 200.192 165.972 200.192C168.1 200.192 169.428 199.392 169.428 197.936ZM175.645 200C177.309 200 178.125 199.136 178.125 197.872C178.125 196.912 177.485 196.304 176.861 196.096C177.437 195.84 177.885 195.2 177.885 194.4C177.885 193.04 176.861 192.32 175.517 192.32H171.309V200H175.645ZM172.589 196.672H175.517C176.157 196.672 176.845 196.88 176.845 197.792C176.845 198.64 176.269 198.88 175.469 198.88H172.589V196.672ZM172.589 193.44H175.389C175.933 193.44 176.589 193.664 176.589 194.528C176.589 195.312 176.061 195.568 175.389 195.568H172.589V193.44ZM181.163 200L185.867 194.384V200H187.147V192.32H186.059L181.355 197.936V192.32H180.075V200H181.163ZM192.712 200V193.504H195.528V192.32H188.6V193.504H191.432V200H192.712ZM198.069 200L202.773 194.384V200H204.053V192.32H202.965L198.261 197.936V192.32H196.981V200H198.069ZM205.89 196.16C205.89 198.896 207.874 200.192 210.146 200.192C211.154 200.192 212.162 200 212.866 199.632V198.384C212.21 198.752 211.282 199.008 210.338 199.008C208.786 199.008 207.33 198.336 207.17 196.72H213.282C213.762 194.544 212.674 192.128 209.714 192.128C207.89 192.128 205.89 193.472 205.89 196.16ZM212.146 195.6H207.17C207.266 194.096 208.482 193.312 209.794 193.312C211.746 193.312 212.258 194.784 212.146 195.6ZM47.336 225.6V224.32H46.184V235.52H47.464V230.848C48.024 231.504 48.968 232.192 50.44 232.192C52.632 232.192 54.28 230.464 54.28 228.16C54.28 225.856 52.632 224.128 50.44 224.128C48.968 224.128 48.024 224.816 47.336 225.6ZM53 228.16C53 229.92 51.784 231.008 50.296 231.008C48.92 231.008 47.896 230.112 47.464 229.12V227.2C47.896 226.208 48.92 225.312 50.296 225.312C51.784 225.312 53 226.4 53 228.16ZM62.3615 230.4V227.392C62.3615 225.248 61.0655 224.128 59.0175 224.128C57.7535 224.128 56.6975 224.432 56.0895 224.64V225.888C56.7615 225.6 57.7055 225.312 58.8895 225.312C60.2975 225.312 61.0815 226.08 61.0815 227.232V227.504C60.4415 227.36 59.6255 227.264 58.9535 227.264C57.3055 227.264 55.4815 227.872 55.4815 229.856C55.4815 231.472 56.8255 232.192 58.1855 232.192C59.4335 232.192 60.4095 231.808 61.1775 231.168C61.4015 231.84 61.9615 232.096 62.5855 232.096C62.9055 232.096 63.2415 232.032 63.5455 231.92V230.88C63.3535 230.944 63.1455 230.992 62.9535 230.992C62.6175 230.992 62.3615 230.864 62.3615 230.4ZM56.7935 229.792C56.7935 228.672 58.0095 228.336 59.1295 228.336C59.7535 228.336 60.5375 228.448 61.0815 228.56V229.968C60.4095 230.688 59.4335 231.088 58.4575 231.088C57.6095 231.088 56.7935 230.688 56.7935 229.792ZM70.6624 229.936C70.6624 228.944 69.9424 228.288 69.0784 228.064C69.9424 227.872 70.5024 227.264 70.5024 226.336C70.5024 224.992 69.3984 224.112 67.2544 224.112C66.2304 224.112 65.2704 224.352 64.5024 224.704V225.904C65.2064 225.552 66.1984 225.296 67.1104 225.296C68.3104 225.296 69.2224 225.664 69.2224 226.512C69.2224 227.248 68.5504 227.504 67.6864 227.504H66.0064V228.688H67.6864C68.4544 228.688 69.3824 228.848 69.3824 229.792C69.3824 230.784 68.2624 231.008 67.0464 231.008C66.1184 231.008 65.0304 230.736 64.3744 230.384V231.6C65.0944 231.952 66.1184 232.192 67.2064 232.192C69.3344 232.192 70.6624 231.392 70.6624 229.936ZM75.2634 225.504H78.3834V232H79.6634V224.32H74.0154C73.8714 228.448 73.4234 231.04 72.0634 231.04C71.9034 231.04 71.7274 231.008 71.5514 230.944V231.952C71.8874 232.08 72.1914 232.128 72.4794 232.128C74.4634 232.128 75.0074 229.44 75.2634 225.504ZM83.1158 232L87.8198 226.384V232H89.0998V224.32H88.0118L83.3078 229.936V224.32H82.0278V232H83.1158ZM97.4653 232V224.32H96.1853V228.208C95.5933 228.448 95.0493 228.544 94.2812 228.544C93.0013 228.544 92.2173 228.176 92.2173 226.88V224.32H90.9373V226.976C90.9373 228.864 92.1373 229.728 93.8973 229.728C94.8573 229.728 95.4813 229.6 96.1853 229.328V232H97.4653ZM101.12 232V228.752H105.568V232H106.848V224.32H105.568V227.568H101.12V224.32H99.8403V232H101.12ZM112.863 232C114.735 232 115.839 230.928 115.839 229.504C115.839 228.08 114.735 227.008 112.863 227.008H110.495V224.32H109.215V232H112.863ZM110.495 228.16H112.703C113.823 228.16 114.543 228.592 114.543 229.504C114.543 230.416 113.823 230.848 112.703 230.848H110.495V228.16ZM118.607 232V224.32H117.327V232H118.607ZM125.797 224.32L123.717 227.152L121.621 224.32H120.149L122.981 228.048L119.989 232H121.461L123.717 228.96L125.957 232H127.429L124.453 228.048L127.269 224.32H125.797ZM138.025 235.52V232.192C140.569 232.128 142.521 230.592 142.521 228.16C142.521 225.728 140.569 224.192 138.025 224.128V220.8H136.745V224.128C134.201 224.192 132.249 225.728 132.249 228.16C132.249 230.592 134.201 232.128 136.745 232.192V235.52H138.025ZM133.529 228.16C133.529 226.4 134.809 225.312 136.745 225.248V231.072C134.809 231.008 133.529 229.92 133.529 228.16ZM138.025 225.248C139.961 225.312 141.241 226.4 141.241 228.16C141.241 229.92 139.961 231.008 138.025 231.072V225.248ZM143.812 228.16C143.812 230.784 145.828 232.192 147.908 232.192C150.004 232.192 152.004 230.784 152.004 228.16C152.004 225.536 150.004 224.128 147.908 224.128C145.828 224.128 143.812 225.536 143.812 228.16ZM150.724 228.16C150.724 229.936 149.476 230.976 147.908 230.976C146.34 230.976 145.092 229.936 145.092 228.16C145.092 226.384 146.34 225.344 147.908 225.344C149.476 225.344 150.724 226.384 150.724 228.16ZM154.992 225.6V224.32H153.84V235.52H155.12V230.848C155.68 231.504 156.624 232.192 158.096 232.192C160.288 232.192 161.936 230.464 161.936 228.16C161.936 225.856 160.288 224.128 158.096 224.128C156.624 224.128 155.68 224.816 154.992 225.6ZM160.656 228.16C160.656 229.92 159.44 231.008 157.952 231.008C156.576 231.008 155.552 230.112 155.12 229.12V227.2C155.552 226.208 156.576 225.312 157.952 225.312C159.44 225.312 160.656 226.4 160.656 228.16ZM164.994 232V226.208L167.49 230H168.45L170.946 226.208V232H172.162V224.32H170.77L167.97 228.576L165.17 224.32H163.778V232H164.994Z" fill="black"/>
<path d="M105.509 103.553H51.4906C47.9182 103.553 45 100.691 45 97.159V52.841C45 49.309 47.9182 46.4473 51.4906 46.4473H86.9404C87.9611 46.4473 88.7855 47.2594 88.7855 48.2648C88.7855 49.2703 87.9611 50.0824 86.9404 50.0824H51.4906C49.9465 50.0824 48.6902 51.3199 48.6902 52.841V97.159C48.6902 98.6801 49.9465 99.9176 51.4906 99.9176H105.509C107.054 99.9176 108.31 98.6801 108.31 97.159V52.841C108.31 51.3199 107.054 50.0824 105.509 50.0824H97.5793C96.5586 50.0824 95.7342 49.2703 95.7342 48.2648C95.7342 47.2594 96.5586 46.4473 97.5793 46.4473H105.509C109.095 46.4473 112 49.3219 112 52.841V97.159C112 100.691 109.082 103.553 105.509 103.553Z" fill="#2D527C"/>
<path d="M98.8748 95.5348H63.1371C62.1164 95.5348 61.292 94.7227 61.292 93.7172C61.292 92.7117 62.1164 91.8996 63.1371 91.8996H98.8748C99.5814 91.8996 100.157 91.3324 100.157 90.6363V59.3766C100.157 58.6805 99.5814 58.1133 98.8748 58.1133H63.1371C62.1164 58.1133 61.292 57.3012 61.292 56.2957C61.292 55.2902 62.1164 54.4781 63.1371 54.4781H98.8748C101.623 54.4781 103.861 56.6824 103.861 59.3894V90.6363C103.861 93.3305 101.623 95.5348 98.8748 95.5348Z" fill="#2D527C"/>
<path d="M54.9846 95.5348C53.9639 95.5348 53.1395 94.7227 53.1395 93.7172V56.2828C53.1395 55.2774 53.9639 54.4652 54.9846 54.4652C56.0053 54.4652 56.8297 55.2774 56.8297 56.2828V93.7172C56.8428 94.7227 56.0053 95.5348 54.9846 95.5348Z" fill="#2D527C"/>
<path d="M87.6733 89.502C79.56 89.502 72.9516 82.9922 72.9516 75C72.9516 67.0078 79.56 60.498 87.6733 60.498C95.7866 60.498 102.395 67.0078 102.395 75C102.395 82.9922 95.7866 89.502 87.6733 89.502ZM87.6733 64.1332C81.5883 64.1332 76.6418 69.0059 76.6418 75C76.6418 80.9941 81.5883 85.8668 87.6733 85.8668C93.7582 85.8668 98.7047 80.9941 98.7047 75C98.7047 69.0059 93.7582 64.1332 87.6733 64.1332ZM87.6733 81.5613C83.9961 81.5613 81.0125 78.6223 81.0125 75C81.0125 71.3777 83.9961 68.4387 87.6733 68.4387C91.3504 68.4387 94.334 71.3777 94.334 75C94.334 78.6223 91.3504 81.5613 87.6733 81.5613ZM87.6733 72.0738C86.0375 72.0738 84.7028 73.3887 84.7028 75C84.7028 76.6113 86.0375 77.9262 87.6733 77.9262C89.309 77.9262 90.6438 76.6113 90.6438 75C90.6438 73.3887 89.309 72.0738 87.6733 72.0738Z" fill="#F0BF5F"/>
<path d="M63.124 81.7805H54.9846V87.6715H63.124V81.7805Z" fill="#CEE8FA"/>
<path d="M63.1371 89.4891H54.9846C53.9639 89.4891 53.1395 88.677 53.1395 87.6715V81.7805C53.1395 80.775 53.9639 79.9629 54.9846 79.9629H63.124C64.1447 79.9629 64.9692 80.775 64.9692 81.7805V87.6715C64.9822 88.677 64.1578 89.4891 63.1371 89.4891ZM56.8428 85.8539H61.292V83.598H56.8428V85.8539Z" fill="#2D527C"/>
<path d="M63.124 62.3285H54.9846V68.2195H63.124V62.3285Z" fill="#CEE8FA"/>
<path d="M63.1371 70.0371H54.9846C53.9639 70.0371 53.1395 69.225 53.1395 68.2195V62.3285C53.1395 61.323 53.9639 60.5109 54.9846 60.5109H63.124C64.1447 60.5109 64.9692 61.323 64.9692 62.3285V68.2195C64.9822 69.225 64.1578 70.0371 63.1371 70.0371ZM56.8428 66.4019H61.292V64.1461H56.8428V66.4019Z" fill="#2D527C"/>
<path d="M78.9842 85.377C78.5131 85.377 78.042 85.1965 77.6756 84.8484C76.9559 84.1395 76.9559 82.9793 77.6756 82.2703L82.9623 77.0625C83.682 76.3535 84.8598 76.3535 85.5795 77.0625C86.2992 77.7715 86.2992 78.9316 85.5795 79.6406L80.2928 84.8484C79.9264 85.1965 79.4553 85.377 78.9842 85.377Z" fill="#F0BF5F"/>
<path d="M91.4158 73.1308C90.9447 73.1308 90.4736 72.9504 90.1072 72.6023C89.3875 71.8933 89.3875 70.7332 90.1072 70.0242L95.0537 65.1516C95.7734 64.4426 96.9512 64.4426 97.6709 65.1516C98.3906 65.8605 98.3906 67.0207 97.6709 67.7297L92.7244 72.6023C92.3711 72.9504 91.8869 73.1308 91.4158 73.1308Z" fill="#F0BF5F"/>
<path d="M83.8391 73.0406C83.368 73.0406 82.8969 72.8601 82.5305 72.5121L77.6756 67.7297C76.9559 67.0207 76.9559 65.8605 77.6756 65.1516C78.3953 64.4426 79.5731 64.4426 80.2928 65.1516L85.1477 69.934C85.8674 70.643 85.8674 71.8031 85.1477 72.5121C84.7944 72.873 84.3102 73.0406 83.8391 73.0406Z" fill="#F0BF5F"/>
<path d="M96.3623 85.3769C95.8912 85.3769 95.4201 85.1965 95.0537 84.8484L90.1334 80.0016C89.4137 79.2926 89.4137 78.1324 90.1334 77.4234C90.8531 76.7144 92.0309 76.7144 92.7506 77.4234L97.6709 82.2703C98.3906 82.9793 98.3906 84.1394 97.6709 84.8484C97.3045 85.1965 96.8334 85.3769 96.3623 85.3769Z" fill="#F0BF5F"/>
</svg>
