<svg width="275" height="275" viewBox="0 0 275 275" fill="none" xmlns="http://www.w3.org/2000/svg">
<rect width="275" height="275" rx="15" fill="white"/>
<path d="M54.024 132.976C54.024 133.552 53.8907 134.059 53.624 134.496C53.368 134.923 53.016 135.259 52.568 135.504C52.1307 135.739 51.6613 135.909 51.16 136.016C50.6693 136.133 50.1467 136.192 49.592 136.192C48.152 136.192 46.824 135.957 45.608 135.488V134.144C46.7387 134.677 48.0347 134.933 49.496 134.912C51.5973 134.912 52.648 134.224 52.648 132.848C52.648 131.504 51.6453 130.832 49.64 130.832H47.352V129.552H49.496C50.3173 129.552 50.9733 129.397 51.464 129.088C51.9547 128.768 52.2 128.315 52.2 127.728C52.2 126.501 51.2293 125.888 49.288 125.888C48.1147 125.877 46.952 126.139 45.8 126.672V125.328C46.8987 124.848 48.0987 124.608 49.4 124.608C50.6373 124.608 51.64 124.864 52.408 125.376C53.176 125.877 53.56 126.608 53.56 127.568C53.56 128.219 53.3893 128.768 53.048 129.216C52.7067 129.653 52.264 129.963 51.72 130.144C52.328 130.272 52.8613 130.571 53.32 131.04C53.7893 131.509 54.024 132.155 54.024 132.976ZM57.1359 136H55.8559V128.32H57.1359V131.568H61.5839V128.32H62.8639V136H61.5839V132.752H57.1359V136ZM71.4709 134.4C71.4709 134.795 71.6682 134.992 72.0629 134.992C72.2335 134.992 72.4309 134.955 72.6549 134.88V135.92C72.3349 136.037 72.0149 136.096 71.6949 136.096C70.9589 136.096 70.4895 135.787 70.2869 135.168C69.4655 135.851 68.4682 136.192 67.2949 136.192C66.5482 136.192 65.9082 135.995 65.3749 135.6C64.8522 135.195 64.5909 134.613 64.5909 133.856C64.5909 132.949 64.9269 132.293 65.5989 131.888C66.2815 131.472 67.1029 131.264 68.0629 131.264C68.7669 131.264 69.4762 131.344 70.1909 131.504V131.232C70.1909 130.645 69.9989 130.181 69.6149 129.84C69.2309 129.488 68.6922 129.312 67.9989 129.312C67.0282 129.312 66.0949 129.504 65.1989 129.888V128.64C66.2015 128.299 67.1775 128.128 68.1269 128.128C69.1722 128.128 69.9882 128.411 70.5749 128.976C71.1722 129.531 71.4709 130.336 71.4709 131.392V134.4ZM65.9029 133.792C65.9029 134.219 66.0629 134.544 66.3829 134.768C66.7135 134.981 67.1082 135.088 67.5669 135.088C68.6229 135.088 69.4975 134.715 70.1909 133.968V132.56C69.4655 132.411 68.8149 132.336 68.2389 132.336C67.5882 132.336 67.0335 132.453 66.5749 132.688C66.1269 132.912 65.9029 133.28 65.9029 133.792ZM79.8871 136H78.6071V133.328C77.9138 133.595 77.1511 133.728 76.3191 133.728C75.4018 133.728 74.6765 133.499 74.1431 133.04C73.6205 132.581 73.3591 131.893 73.3591 130.976V128.32H74.6391V130.88C74.6391 131.499 74.8098 131.931 75.1511 132.176C75.5031 132.421 76.0205 132.544 76.7031 132.544C77.4178 132.544 78.0525 132.432 78.6071 132.208V128.32H79.8871V136ZM83.3501 136H82.2621V128.32H83.5421V133.936L88.2461 128.32H89.3341V136H88.0541V130.384L83.3501 136ZM92.9156 136H91.6996V128.32H93.0916L95.8916 132.576L98.6916 128.32H100.084V136H98.8676V130.208L96.3716 134H95.4116L92.9156 130.208V136ZM103.138 135.12C102.327 134.395 101.922 133.408 101.922 132.16C101.922 130.912 102.327 129.931 103.138 129.216C103.948 128.491 104.908 128.128 106.018 128.128C107.138 128.128 108.098 128.491 108.898 129.216C109.708 129.931 110.114 130.912 110.114 132.16C110.114 133.408 109.708 134.395 108.898 135.12C108.098 135.835 107.138 136.192 106.018 136.192C104.908 136.192 103.948 135.835 103.138 135.12ZM108.034 134.224C108.567 133.712 108.834 133.024 108.834 132.16C108.834 131.296 108.567 130.613 108.034 130.112C107.5 129.6 106.828 129.344 106.018 129.344C105.207 129.344 104.535 129.6 104.002 130.112C103.468 130.613 103.202 131.296 103.202 132.16C103.202 133.024 103.468 133.712 104.002 134.224C104.535 134.725 105.207 134.976 106.018 134.976C106.828 134.976 107.5 134.725 108.034 134.224ZM111.422 132.192C111.422 131.52 111.544 130.917 111.79 130.384C112.035 129.851 112.355 129.424 112.75 129.104C113.155 128.784 113.598 128.544 114.078 128.384C114.568 128.213 115.07 128.128 115.582 128.128C116.531 128.128 117.32 128.336 117.95 128.752V130C117.363 129.541 116.627 129.312 115.742 129.312C114.91 129.312 114.195 129.552 113.598 130.032C113 130.512 112.702 131.221 112.702 132.16C112.702 133.088 112.995 133.797 113.582 134.288C114.179 134.768 114.888 135.008 115.71 135.008C116.563 135.008 117.336 134.8 118.03 134.384V135.664C117.304 136.016 116.472 136.192 115.534 136.192C114.424 136.192 113.459 135.845 112.638 135.152C111.827 134.459 111.422 133.472 111.422 132.192ZM123.103 136H121.823V129.504H118.991V128.32H125.919V129.504H123.103V136ZM131.02 136H127.372V128.32H128.652V131.008H131.02C131.937 131.008 132.662 131.243 133.196 131.712C133.729 132.181 133.996 132.779 133.996 133.504C133.996 134.229 133.729 134.827 133.196 135.296C132.662 135.765 131.937 136 131.02 136ZM128.652 132.16V134.848H130.86C131.436 134.848 131.884 134.736 132.204 134.512C132.534 134.288 132.7 133.952 132.7 133.504C132.7 133.056 132.534 132.72 132.204 132.496C131.884 132.272 131.436 132.16 130.86 132.16H128.652ZM145.846 132.272C145.846 132.944 145.728 133.541 145.494 134.064C145.259 134.576 144.944 134.987 144.55 135.296C144.155 135.595 143.728 135.819 143.27 135.968C142.811 136.117 142.331 136.192 141.83 136.192C140.838 136.192 139.926 135.968 139.094 135.52V134.32C139.84 134.779 140.667 135.008 141.574 135.008C143.44 135.008 144.427 134.256 144.534 132.752H140.566V131.568H144.534C144.448 130.789 144.118 130.219 143.542 129.856C142.966 129.493 142.267 129.312 141.446 129.312C140.614 129.312 139.856 129.541 139.174 130V128.816C139.899 128.357 140.704 128.128 141.59 128.128C142.742 128.128 143.739 128.48 144.582 129.184C145.424 129.888 145.846 130.917 145.846 132.272ZM150.634 136H149.354V129.504H146.522V128.32H153.45V129.504H150.634V136ZM155.991 136H154.903V128.32H156.183V133.936L160.887 128.32H161.975V136H160.695V130.384L155.991 136ZM169.156 128.32H170.628L167.812 132.048L170.788 136H169.316L167.076 132.96L164.82 136H163.348L166.34 132.048L163.508 128.32H164.98L167.076 131.152L169.156 128.32ZM47.464 168H46.184V160.32H53.192V168H51.912V161.504H47.464V168ZM56.711 161.6C57.575 160.619 58.6097 160.128 59.815 160.128C60.9137 160.128 61.8257 160.512 62.551 161.28C63.287 162.048 63.655 163.008 63.655 164.16C63.655 165.312 63.287 166.272 62.551 167.04C61.8257 167.808 60.9137 168.192 59.815 168.192C58.599 168.192 57.607 167.744 56.839 166.848V171.52H55.559V160.32H56.711V161.6ZM61.591 166.224C62.1137 165.701 62.375 165.013 62.375 164.16C62.375 163.307 62.1137 162.619 61.591 162.096C61.079 161.573 60.439 161.312 59.671 161.312C59.0203 161.312 58.4443 161.493 57.943 161.856C57.4417 162.219 57.0737 162.667 56.839 163.2V165.12C57.0737 165.653 57.4417 166.101 57.943 166.464C58.4443 166.827 59.0203 167.008 59.671 167.008C60.439 167.008 61.079 166.747 61.591 166.224ZM66.1845 167.12C65.3738 166.395 64.9685 165.408 64.9685 164.16C64.9685 162.912 65.3738 161.931 66.1845 161.216C66.9952 160.491 67.9552 160.128 69.0645 160.128C70.1845 160.128 71.1445 160.491 71.9445 161.216C72.7552 161.931 73.1605 162.912 73.1605 164.16C73.1605 165.408 72.7552 166.395 71.9445 167.12C71.1445 167.835 70.1845 168.192 69.0645 168.192C67.9552 168.192 66.9952 167.835 66.1845 167.12ZM71.0805 166.224C71.6138 165.712 71.8805 165.024 71.8805 164.16C71.8805 163.296 71.6138 162.613 71.0805 162.112C70.5472 161.6 69.8752 161.344 69.0645 161.344C68.2538 161.344 67.5818 161.6 67.0485 162.112C66.5152 162.613 66.2485 163.296 66.2485 164.16C66.2485 165.024 66.5152 165.712 67.0485 166.224C67.5818 166.725 68.2538 166.976 69.0645 166.976C69.8752 166.976 70.5472 166.725 71.0805 166.224ZM82.5005 164.384C82.5005 165.568 82.1378 166.501 81.4125 167.184C80.6978 167.856 79.7538 168.192 78.5805 168.192C77.3858 168.192 76.4205 167.797 75.6845 167.008C74.9592 166.219 74.5965 165.115 74.5965 163.696C74.5965 162.459 74.8098 161.392 75.2365 160.496C75.6632 159.6 76.2392 158.928 76.9645 158.48C77.4552 158.181 77.9618 157.947 78.4845 157.776C79.0178 157.595 79.4552 157.483 79.7965 157.44C80.1485 157.397 80.5112 157.312 80.8845 157.184C81.2578 157.045 81.5672 156.853 81.8125 156.608V157.952C81.5138 158.165 81.1458 158.325 80.7085 158.432C80.2712 158.528 79.7858 158.645 79.2525 158.784C78.7192 158.923 78.2072 159.136 77.7165 159.424C77.2365 159.712 76.8632 160.075 76.5965 160.512C76.3298 160.949 76.0952 161.472 75.8925 162.08C76.1698 161.653 76.5645 161.307 77.0765 161.04C77.5885 160.773 78.1378 160.64 78.7245 160.64C79.7592 160.64 80.6445 160.987 81.3805 161.68C82.1272 162.373 82.5005 163.275 82.5005 164.384ZM75.8765 164.416C75.8765 165.152 76.1218 165.765 76.6125 166.256C77.1032 166.736 77.7485 166.976 78.5485 166.976C79.3698 166.976 80.0205 166.736 80.5005 166.256C80.9805 165.776 81.2205 165.163 81.2205 164.416C81.2205 163.669 80.9805 163.056 80.5005 162.576C80.0205 162.096 79.3698 161.856 78.5485 161.856C77.7805 161.856 77.1405 162.117 76.6285 162.64C76.1272 163.152 75.8765 163.744 75.8765 164.416ZM86.9353 161.504C86.8819 162.347 86.8179 163.083 86.7433 163.712C86.6686 164.341 86.5619 164.949 86.4233 165.536C86.2846 166.112 86.1139 166.581 85.9113 166.944C85.7193 167.307 85.4739 167.595 85.1753 167.808C84.8766 168.021 84.5353 168.128 84.1513 168.128C83.8419 168.128 83.5326 168.069 83.2233 167.952V166.944C83.3939 167.008 83.5646 167.04 83.7353 167.04C84.3753 167.04 84.8393 166.48 85.1273 165.36C85.4259 164.229 85.6126 162.549 85.6873 160.32H91.3353V168H90.0553V161.504H86.9353ZM93.1716 164.16C93.1716 162.901 93.5556 161.915 94.3236 161.2C95.1023 160.485 95.993 160.128 96.9956 160.128C97.9343 160.128 98.7076 160.363 99.3156 160.832C99.9343 161.301 100.34 161.883 100.532 162.576C100.724 163.259 100.734 163.973 100.564 164.72H94.4516C94.5263 165.477 94.8623 166.048 95.4596 166.432C96.057 166.816 96.777 167.008 97.6196 167.008C98.5583 167.008 99.401 166.8 100.148 166.384V167.632C99.433 168.005 98.5263 168.192 97.4276 168.192C96.2116 168.192 95.1983 167.845 94.3876 167.152C93.577 166.459 93.1716 165.461 93.1716 164.16ZM99.4276 163.6C99.4596 163.376 99.4436 163.141 99.3796 162.896C99.3156 162.651 99.1983 162.405 99.0276 162.16C98.8676 161.915 98.617 161.712 98.2756 161.552C97.9343 161.392 97.5343 161.312 97.0756 161.312C96.3823 161.312 95.7796 161.515 95.2676 161.92C94.7663 162.325 94.4943 162.885 94.4516 163.6H99.4276ZM103.65 168H102.434V160.32H103.826L106.626 164.576L109.426 160.32H110.818V168H109.602V162.208L107.106 166H106.146L103.65 162.208V168ZM118.448 168H117.168V160.32H118.448V163.568H122.896V160.32H124.176V168H122.896V164.752H118.448V168ZM132.783 166.4C132.783 166.795 132.981 166.992 133.375 166.992C133.546 166.992 133.743 166.955 133.967 166.88V167.92C133.647 168.037 133.327 168.096 133.007 168.096C132.271 168.096 131.802 167.787 131.599 167.168C130.778 167.851 129.781 168.192 128.607 168.192C127.861 168.192 127.221 167.995 126.687 167.6C126.165 167.195 125.903 166.613 125.903 165.856C125.903 164.949 126.239 164.293 126.911 163.888C127.594 163.472 128.415 163.264 129.375 163.264C130.079 163.264 130.789 163.344 131.503 163.504V163.232C131.503 162.645 131.311 162.181 130.927 161.84C130.543 161.488 130.005 161.312 129.311 161.312C128.341 161.312 127.407 161.504 126.511 161.888V160.64C127.514 160.299 128.49 160.128 129.439 160.128C130.485 160.128 131.301 160.411 131.887 160.976C132.485 161.531 132.783 162.336 132.783 163.392V166.4ZM127.215 165.792C127.215 166.219 127.375 166.544 127.695 166.768C128.026 166.981 128.421 167.088 128.879 167.088C129.935 167.088 130.81 166.715 131.503 165.968V164.56C130.778 164.411 130.127 164.336 129.551 164.336C128.901 164.336 128.346 164.453 127.887 164.688C127.439 164.912 127.215 165.28 127.215 165.792ZM134.812 164.192C134.812 163.52 134.935 162.917 135.18 162.384C135.426 161.851 135.746 161.424 136.14 161.104C136.546 160.784 136.988 160.544 137.468 160.384C137.959 160.213 138.46 160.128 138.972 160.128C139.922 160.128 140.711 160.336 141.34 160.752V162C140.754 161.541 140.018 161.312 139.132 161.312C138.3 161.312 137.586 161.552 136.988 162.032C136.391 162.512 136.092 163.221 136.092 164.16C136.092 165.088 136.386 165.797 136.972 166.288C137.57 166.768 138.279 167.008 139.1 167.008C139.954 167.008 140.727 166.8 141.42 166.384V167.664C140.695 168.016 139.863 168.192 138.924 168.192C137.815 168.192 136.85 167.845 136.028 167.152C135.218 166.459 134.812 165.472 134.812 164.192ZM146.493 168H145.213V161.504H142.381V160.32H149.309V161.504H146.493V168ZM151.2 167.12C150.389 166.395 149.984 165.408 149.984 164.16C149.984 162.912 150.389 161.931 151.2 161.216C152.011 160.491 152.971 160.128 154.08 160.128C155.2 160.128 156.16 160.491 156.96 161.216C157.771 161.931 158.176 162.912 158.176 164.16C158.176 165.408 157.771 166.395 156.96 167.12C156.16 167.835 155.2 168.192 154.08 168.192C152.971 168.192 152.011 167.835 151.2 167.12ZM156.096 166.224C156.629 165.712 156.896 165.024 156.896 164.16C156.896 163.296 156.629 162.613 156.096 162.112C155.563 161.6 154.891 161.344 154.08 161.344C153.269 161.344 152.597 161.6 152.064 162.112C151.531 162.613 151.264 163.296 151.264 164.16C151.264 165.024 151.531 165.712 152.064 166.224C152.597 166.725 153.269 166.976 154.08 166.976C154.891 166.976 155.563 166.725 156.096 166.224ZM162.529 161.504C162.476 162.347 162.412 163.083 162.337 163.712C162.262 164.341 162.156 164.949 162.017 165.536C161.878 166.112 161.708 166.581 161.505 166.944C161.313 167.307 161.068 167.595 160.769 167.808C160.47 168.021 160.129 168.128 159.745 168.128C159.436 168.128 159.126 168.069 158.817 167.952V166.944C158.988 167.008 159.158 167.04 159.329 167.04C159.969 167.04 160.433 166.48 160.721 165.36C161.02 164.229 161.206 162.549 161.281 160.32H166.929V168H165.649V161.504H162.529ZM172.941 168H169.293V160.32H170.573V163.008H172.941C173.859 163.008 174.584 163.243 175.117 163.712C175.651 164.181 175.917 164.779 175.917 165.504C175.917 166.229 175.651 166.827 175.117 167.296C174.584 167.765 173.859 168 172.941 168ZM170.573 164.16V166.848H172.781C173.357 166.848 173.805 166.736 174.125 166.512C174.456 166.288 174.621 165.952 174.621 165.504C174.621 165.056 174.456 164.72 174.125 164.496C173.805 164.272 173.357 164.16 172.781 164.16H170.573ZM178.839 168H177.559V160.32H178.839V163.52H180.391L182.823 160.32H184.311L181.399 164.144L184.663 168H183.159L180.343 164.704H178.839V168ZM186.231 167.12C185.421 166.395 185.015 165.408 185.015 164.16C185.015 162.912 185.421 161.931 186.231 161.216C187.042 160.491 188.002 160.128 189.111 160.128C190.231 160.128 191.191 160.491 191.991 161.216C192.802 161.931 193.207 162.912 193.207 164.16C193.207 165.408 192.802 166.395 191.991 167.12C191.191 167.835 190.231 168.192 189.111 168.192C188.002 168.192 187.042 167.835 186.231 167.12ZM191.127 166.224C191.661 165.712 191.927 165.024 191.927 164.16C191.927 163.296 191.661 162.613 191.127 162.112C190.594 161.6 189.922 161.344 189.111 161.344C188.301 161.344 187.629 161.6 187.095 162.112C186.562 162.613 186.295 163.296 186.295 164.16C186.295 165.024 186.562 165.712 187.095 166.224C187.629 166.725 188.301 166.976 189.111 166.976C189.922 166.976 190.594 166.725 191.127 166.224ZM46.872 199.12C46.0613 198.395 45.656 197.408 45.656 196.16C45.656 194.912 46.0613 193.931 46.872 193.216C47.6827 192.491 48.6427 192.128 49.752 192.128C50.872 192.128 51.832 192.491 52.632 193.216C53.4427 193.931 53.848 194.912 53.848 196.16C53.848 197.408 53.4427 198.395 52.632 199.12C51.832 199.835 50.872 200.192 49.752 200.192C48.6427 200.192 47.6827 199.835 46.872 199.12ZM51.768 198.224C52.3013 197.712 52.568 197.024 52.568 196.16C52.568 195.296 52.3013 194.613 51.768 194.112C51.2347 193.6 50.5627 193.344 49.752 193.344C48.9413 193.344 48.2693 193.6 47.736 194.112C47.2027 194.613 46.936 195.296 46.936 196.16C46.936 197.024 47.2027 197.712 47.736 198.224C48.2693 198.725 48.9413 198.976 49.752 198.976C50.5627 198.976 51.2347 198.725 51.768 198.224ZM61.684 200H60.404V197.328C59.7107 197.595 58.948 197.728 58.116 197.728C57.1987 197.728 56.4733 197.499 55.94 197.04C55.4173 196.581 55.156 195.893 55.156 194.976V192.32H56.436V194.88C56.436 195.499 56.6067 195.931 56.948 196.176C57.3 196.421 57.8173 196.544 58.5 196.544C59.2147 196.544 59.8493 196.432 60.404 196.208V192.32H61.684V200ZM63.531 196.16C63.531 194.901 63.915 193.915 64.683 193.2C65.4617 192.485 66.3523 192.128 67.355 192.128C68.2937 192.128 69.067 192.363 69.675 192.832C70.2937 193.301 70.699 193.883 70.891 194.576C71.083 195.259 71.0937 195.973 70.923 196.72H64.811C64.8857 197.477 65.2217 198.048 65.819 198.432C66.4163 198.816 67.1363 199.008 67.979 199.008C68.9177 199.008 69.7603 198.8 70.507 198.384V199.632C69.7923 200.005 68.8857 200.192 67.787 200.192C66.571 200.192 65.5577 199.845 64.747 199.152C63.9363 198.459 63.531 197.461 63.531 196.16ZM69.787 195.6C69.819 195.376 69.803 195.141 69.739 194.896C69.675 194.651 69.5577 194.405 69.387 194.16C69.227 193.915 68.9763 193.712 68.635 193.552C68.2937 193.392 67.8937 193.312 67.435 193.312C66.7417 193.312 66.139 193.515 65.627 193.92C65.1257 194.325 64.8537 194.885 64.811 195.6H69.787ZM77.1294 200H72.7934V192.32H77.0014C77.6947 192.32 78.26 192.501 78.6974 192.864C79.1454 193.227 79.3694 193.739 79.3694 194.4C79.3694 194.784 79.2734 195.131 79.0814 195.44C78.8894 195.749 78.644 195.968 78.3454 196.096C78.6974 196.213 78.996 196.427 79.2414 196.736C79.4867 197.045 79.6094 197.424 79.6094 197.872C79.6094 198.523 79.396 199.04 78.9694 199.424C78.5534 199.808 77.94 200 77.1294 200ZM74.0734 196.672V198.88H76.9534C77.8707 198.88 78.3294 198.517 78.3294 197.792C78.3294 197.045 77.8867 196.672 77.0014 196.672H74.0734ZM74.0734 193.44V195.568H76.8734C77.6734 195.568 78.0734 195.221 78.0734 194.528C78.0734 194.133 77.956 193.856 77.7214 193.696C77.4867 193.525 77.204 193.44 76.8734 193.44H74.0734ZM82.647 200H81.559V192.32H82.839V197.936L87.543 192.32H88.631V200H87.351V194.384L82.647 200ZM91.4765 202.08H90.2285V198.848H91.2525C92.1592 197.248 92.5965 195.072 92.5645 192.32H98.2925V198.848H99.4125V202.08H98.1645V200H91.4765V202.08ZM93.7965 193.472C93.7432 195.573 93.3592 197.365 92.6445 198.848H97.0125V193.472H93.7965ZM102.402 200H101.122V192.32H102.402V195.568H106.85V192.32H108.13V200H106.85V196.752H102.402V200ZM116.737 198.4C116.737 198.795 116.934 198.992 117.329 198.992C117.499 198.992 117.697 198.955 117.921 198.88V199.92C117.601 200.037 117.281 200.096 116.961 200.096C116.225 200.096 115.755 199.787 115.553 199.168C114.731 199.851 113.734 200.192 112.561 200.192C111.814 200.192 111.174 199.995 110.641 199.6C110.118 199.195 109.857 198.613 109.857 197.856C109.857 196.949 110.193 196.293 110.865 195.888C111.547 195.472 112.369 195.264 113.329 195.264C114.033 195.264 114.742 195.344 115.457 195.504V195.232C115.457 194.645 115.265 194.181 114.881 193.84C114.497 193.488 113.958 193.312 113.265 193.312C112.294 193.312 111.361 193.504 110.465 193.888V192.64C111.467 192.299 112.443 192.128 113.393 192.128C114.438 192.128 115.254 192.411 115.841 192.976C116.438 193.531 116.737 194.336 116.737 195.392V198.4ZM111.169 197.792C111.169 198.219 111.329 198.544 111.649 198.768C111.979 198.981 112.374 199.088 112.833 199.088C113.889 199.088 114.763 198.715 115.457 197.968V196.56C114.731 196.411 114.081 196.336 113.505 196.336C112.854 196.336 112.299 196.453 111.841 196.688C111.393 196.912 111.169 197.28 111.169 197.792ZM119.485 202.4H118.445L119.325 198.72H120.685L119.485 202.4ZM132.856 200H131.576V197.328C130.883 197.595 130.12 197.728 129.288 197.728C128.371 197.728 127.645 197.499 127.112 197.04C126.589 196.581 126.328 195.893 126.328 194.976V192.32H127.608V194.88C127.608 195.499 127.779 195.931 128.12 196.176C128.472 196.421 128.989 196.544 129.672 196.544C130.387 196.544 131.021 196.432 131.576 196.208V192.32H132.856V200ZM138.431 200H137.151V193.504H134.319V192.32H141.247V193.504H138.431V200ZM143.138 199.12C142.327 198.395 141.922 197.408 141.922 196.16C141.922 194.912 142.327 193.931 143.138 193.216C143.948 192.491 144.908 192.128 146.018 192.128C147.138 192.128 148.098 192.491 148.898 193.216C149.708 193.931 150.114 194.912 150.114 196.16C150.114 197.408 149.708 198.395 148.898 199.12C148.098 199.835 147.138 200.192 146.018 200.192C144.908 200.192 143.948 199.835 143.138 199.12ZM148.034 198.224C148.567 197.712 148.834 197.024 148.834 196.16C148.834 195.296 148.567 194.613 148.034 194.112C147.5 193.6 146.828 193.344 146.018 193.344C145.207 193.344 144.535 193.6 144.002 194.112C143.468 194.613 143.202 195.296 143.202 196.16C143.202 197.024 143.468 197.712 144.002 198.224C144.535 198.725 145.207 198.976 146.018 198.976C146.828 198.976 147.5 198.725 148.034 198.224ZM160.27 200H155.934V192.32H160.142C160.835 192.32 161.401 192.501 161.838 192.864C162.286 193.227 162.51 193.739 162.51 194.4C162.51 194.784 162.414 195.131 162.222 195.44C162.03 195.749 161.785 195.968 161.486 196.096C161.838 196.213 162.137 196.427 162.382 196.736C162.627 197.045 162.75 197.424 162.75 197.872C162.75 198.523 162.537 199.04 162.11 199.424C161.694 199.808 161.081 200 160.27 200ZM157.214 196.672V198.88H160.094C161.011 198.88 161.47 198.517 161.47 197.792C161.47 197.045 161.027 196.672 160.142 196.672H157.214ZM157.214 193.44V195.568H160.014C160.814 195.568 161.214 195.221 161.214 194.528C161.214 194.133 161.097 193.856 160.862 193.696C160.627 193.525 160.345 193.44 160.014 193.44H157.214ZM165.388 199.12C164.577 198.395 164.172 197.408 164.172 196.16C164.172 194.912 164.577 193.931 165.388 193.216C166.198 192.491 167.158 192.128 168.268 192.128C169.388 192.128 170.348 192.491 171.148 193.216C171.958 193.931 172.364 194.912 172.364 196.16C172.364 197.408 171.958 198.395 171.148 199.12C170.348 199.835 169.388 200.192 168.268 200.192C167.158 200.192 166.198 199.835 165.388 199.12ZM170.284 198.224C170.817 197.712 171.084 197.024 171.084 196.16C171.084 195.296 170.817 194.613 170.284 194.112C169.75 193.6 169.078 193.344 168.268 193.344C167.457 193.344 166.785 193.6 166.252 194.112C165.718 194.613 165.452 195.296 165.452 196.16C165.452 197.024 165.718 197.712 166.252 198.224C166.785 198.725 167.457 198.976 168.268 198.976C169.078 198.976 169.75 198.725 170.284 198.224ZM175.48 200H174.2V192.32H181.208V200H179.928V193.504H175.48V200ZM184.727 193.6C185.591 192.619 186.625 192.128 187.831 192.128C188.929 192.128 189.841 192.512 190.567 193.28C191.303 194.048 191.671 195.008 191.671 196.16C191.671 197.312 191.303 198.272 190.567 199.04C189.841 199.808 188.929 200.192 187.831 200.192C186.615 200.192 185.623 199.744 184.855 198.848V203.52H183.575V192.32H184.727V193.6ZM189.607 198.224C190.129 197.701 190.391 197.013 190.391 196.16C190.391 195.307 190.129 194.619 189.607 194.096C189.095 193.573 188.455 193.312 187.687 193.312C187.036 193.312 186.46 193.493 185.959 193.856C185.457 194.219 185.089 194.667 184.855 195.2V197.12C185.089 197.653 185.457 198.101 185.959 198.464C186.46 198.827 187.036 199.008 187.687 199.008C188.455 199.008 189.095 198.747 189.607 198.224ZM194.2 199.12C193.389 198.395 192.984 197.408 192.984 196.16C192.984 194.912 193.389 193.931 194.2 193.216C195.011 192.491 195.971 192.128 197.08 192.128C198.2 192.128 199.16 192.491 199.96 193.216C200.771 193.931 201.176 194.912 201.176 196.16C201.176 197.408 200.771 198.395 199.96 199.12C199.16 199.835 198.2 200.192 197.08 200.192C195.971 200.192 195.011 199.835 194.2 199.12ZM199.096 198.224C199.629 197.712 199.896 197.024 199.896 196.16C199.896 195.296 199.629 194.613 199.096 194.112C198.563 193.6 197.891 193.344 197.08 193.344C196.269 193.344 195.597 193.6 195.064 194.112C194.531 194.613 194.264 195.296 194.264 196.16C194.264 197.024 194.531 197.712 195.064 198.224C195.597 198.725 196.269 198.976 197.08 198.976C197.891 198.976 198.563 198.725 199.096 198.224ZM202.484 196.192C202.484 195.52 202.607 194.917 202.852 194.384C203.097 193.851 203.417 193.424 203.812 193.104C204.217 192.784 204.66 192.544 205.14 192.384C205.631 192.213 206.132 192.128 206.644 192.128C207.593 192.128 208.383 192.336 209.012 192.752V194C208.425 193.541 207.689 193.312 206.804 193.312C205.972 193.312 205.257 193.552 204.66 194.032C204.063 194.512 203.764 195.221 203.764 196.16C203.764 197.088 204.057 197.797 204.644 198.288C205.241 198.768 205.951 199.008 206.772 199.008C207.625 199.008 208.399 198.8 209.092 198.384V199.664C208.367 200.016 207.535 200.192 206.596 200.192C205.487 200.192 204.521 199.845 203.7 199.152C202.889 198.459 202.484 197.472 202.484 196.192ZM46.872 231.12C46.0613 230.395 45.656 229.408 45.656 228.16C45.656 226.912 46.0613 225.931 46.872 225.216C47.6827 224.491 48.6427 224.128 49.752 224.128C50.872 224.128 51.832 224.491 52.632 225.216C53.4427 225.931 53.848 226.912 53.848 228.16C53.848 229.408 53.4427 230.395 52.632 231.12C51.832 231.835 50.872 232.192 49.752 232.192C48.6427 232.192 47.6827 231.835 46.872 231.12ZM51.768 230.224C52.3013 229.712 52.568 229.024 52.568 228.16C52.568 227.296 52.3013 226.613 51.768 226.112C51.2347 225.6 50.5627 225.344 49.752 225.344C48.9413 225.344 48.2693 225.6 47.736 226.112C47.2027 226.613 46.936 227.296 46.936 228.16C46.936 229.024 47.2027 229.712 47.736 230.224C48.2693 230.725 48.9413 230.976 49.752 230.976C50.5627 230.976 51.2347 230.725 51.768 230.224ZM55.156 228.192C55.156 227.52 55.2787 226.917 55.524 226.384C55.7693 225.851 56.0893 225.424 56.484 225.104C56.8893 224.784 57.332 224.544 57.812 224.384C58.3027 224.213 58.804 224.128 59.316 224.128C60.2653 224.128 61.0547 224.336 61.684 224.752V226C61.0973 225.541 60.3613 225.312 59.476 225.312C58.644 225.312 57.9293 225.552 57.332 226.032C56.7347 226.512 56.436 227.221 56.436 228.16C56.436 229.088 56.7293 229.797 57.316 230.288C57.9133 230.768 58.6227 231.008 59.444 231.008C60.2973 231.008 61.0707 230.8 61.764 230.384V231.664C61.0387 232.016 60.2067 232.192 59.268 232.192C58.1587 232.192 57.1933 231.845 56.372 231.152C55.5613 230.459 55.156 229.472 55.156 228.192ZM66.8371 232H65.5571V225.504H62.7251V224.32H69.6531V225.504H66.8371V232ZM77.2678 230.4C77.2678 230.795 77.4651 230.992 77.8598 230.992C78.0304 230.992 78.2278 230.955 78.4518 230.88V231.92C78.1318 232.037 77.8118 232.096 77.4918 232.096C76.7558 232.096 76.2864 231.787 76.0838 231.168C75.2624 231.851 74.2651 232.192 73.0918 232.192C72.3451 232.192 71.7051 231.995 71.1718 231.6C70.6491 231.195 70.3878 230.613 70.3878 229.856C70.3878 228.949 70.7238 228.293 71.3958 227.888C72.0784 227.472 72.8998 227.264 73.8598 227.264C74.5638 227.264 75.2731 227.344 75.9878 227.504V227.232C75.9878 226.645 75.7958 226.181 75.4118 225.84C75.0278 225.488 74.4891 225.312 73.7958 225.312C72.8251 225.312 71.8918 225.504 70.9958 225.888V224.64C71.9984 224.299 72.9744 224.128 73.9238 224.128C74.9691 224.128 75.7851 224.411 76.3718 224.976C76.9691 225.531 77.2678 226.336 77.2678 227.392V230.4ZM71.6998 229.792C71.6998 230.219 71.8598 230.544 72.1798 230.768C72.5104 230.981 72.9051 231.088 73.3638 231.088C74.4198 231.088 75.2944 230.715 75.9878 229.968V228.56C75.2624 228.411 74.6118 228.336 74.0358 228.336C73.3851 228.336 72.8304 228.453 72.3718 228.688C71.9238 228.912 71.6998 229.28 71.6998 229.792ZM79.2966 228.16C79.2966 226.901 79.6806 225.915 80.4486 225.2C81.2273 224.485 82.118 224.128 83.1206 224.128C84.0593 224.128 84.8326 224.363 85.4406 224.832C86.0593 225.301 86.4646 225.883 86.6566 226.576C86.8486 227.259 86.8593 227.973 86.6886 228.72H80.5766C80.6513 229.477 80.9873 230.048 81.5846 230.432C82.182 230.816 82.902 231.008 83.7446 231.008C84.6833 231.008 85.526 230.8 86.2726 230.384V231.632C85.558 232.005 84.6513 232.192 83.5526 232.192C82.3366 232.192 81.3233 231.845 80.5126 231.152C79.702 230.459 79.2966 229.461 79.2966 228.16ZM85.5526 227.6C85.5846 227.376 85.5686 227.141 85.5046 226.896C85.4406 226.651 85.3233 226.405 85.1526 226.16C84.9926 225.915 84.742 225.712 84.4006 225.552C84.0593 225.392 83.6593 225.312 83.2006 225.312C82.5073 225.312 81.9046 225.515 81.3926 225.92C80.8913 226.325 80.6193 226.885 80.5766 227.6H85.5526ZM91.6028 232H90.3228V225.504H87.4908V224.32H94.4188V225.504H91.6028V232ZM95.0935 228.192C95.0935 227.52 95.2162 226.917 95.4615 226.384C95.7068 225.851 96.0268 225.424 96.4215 225.104C96.8268 224.784 97.2695 224.544 97.7495 224.384C98.2402 224.213 98.7415 224.128 99.2535 224.128C100.203 224.128 100.992 224.336 101.622 224.752V226C101.035 225.541 100.299 225.312 99.4135 225.312C98.5815 225.312 97.8668 225.552 97.2695 226.032C96.6722 226.512 96.3735 227.221 96.3735 228.16C96.3735 229.088 96.6668 229.797 97.2535 230.288C97.8508 230.768 98.5602 231.008 99.3815 231.008C100.235 231.008 101.008 230.8 101.702 230.384V231.664C100.976 232.016 100.144 232.192 99.2055 232.192C98.0962 232.192 97.1308 231.845 96.3095 231.152C95.4988 230.459 95.0935 229.472 95.0935 228.192ZM104.343 232H102.839L105.063 229.184C104.476 229.013 104.023 228.715 103.703 228.288C103.383 227.861 103.223 227.371 103.223 226.816C103.223 226.112 103.479 225.52 103.991 225.04C104.503 224.56 105.207 224.32 106.103 224.32H109.879V232H108.599V229.312H106.439L104.343 232ZM104.951 225.824C104.652 226.059 104.503 226.389 104.503 226.816C104.503 227.243 104.652 227.573 104.951 227.808C105.26 228.043 105.681 228.16 106.215 228.16H108.599V225.472H106.215C105.681 225.472 105.26 225.589 104.951 225.824ZM116.919 231.12C116.108 230.395 115.703 229.408 115.703 228.16C115.703 226.912 116.108 225.931 116.919 225.216C117.73 224.491 118.69 224.128 119.799 224.128C120.919 224.128 121.879 224.491 122.679 225.216C123.49 225.931 123.895 226.912 123.895 228.16C123.895 229.408 123.49 230.395 122.679 231.12C121.879 231.835 120.919 232.192 119.799 232.192C118.69 232.192 117.73 231.835 116.919 231.12ZM121.815 230.224C122.348 229.712 122.615 229.024 122.615 228.16C122.615 227.296 122.348 226.613 121.815 226.112C121.282 225.6 120.61 225.344 119.799 225.344C118.988 225.344 118.316 225.6 117.783 226.112C117.25 226.613 116.983 227.296 116.983 228.16C116.983 229.024 117.25 229.712 117.783 230.224C118.316 230.725 118.988 230.976 119.799 230.976C120.61 230.976 121.282 230.725 121.815 230.224ZM128.681 232H127.401V225.504H124.569V224.32H131.497V225.504H128.681V232ZM134.23 232H132.95V224.32H134.23V227.52H135.782L138.214 224.32H139.702L136.79 228.144L140.054 232H138.55L135.734 228.704H134.23V232ZM142.477 225.6C143.341 224.619 144.375 224.128 145.581 224.128C146.679 224.128 147.591 224.512 148.317 225.28C149.053 226.048 149.421 227.008 149.421 228.16C149.421 229.312 149.053 230.272 148.317 231.04C147.591 231.808 146.679 232.192 145.581 232.192C144.365 232.192 143.373 231.744 142.605 230.848V235.52H141.325V224.32H142.477V225.6ZM147.357 230.224C147.879 229.701 148.141 229.013 148.141 228.16C148.141 227.307 147.879 226.619 147.357 226.096C146.845 225.573 146.205 225.312 145.437 225.312C144.786 225.312 144.21 225.493 143.709 225.856C143.207 226.219 142.839 226.667 142.605 227.2V229.12C142.839 229.653 143.207 230.101 143.709 230.464C144.21 230.827 144.786 231.008 145.437 231.008C146.205 231.008 146.845 230.747 147.357 230.224ZM154.91 232H151.262V224.32H152.542V227.008H154.91C155.827 227.008 156.553 227.243 157.086 227.712C157.619 228.181 157.886 228.779 157.886 229.504C157.886 230.229 157.619 230.827 157.086 231.296C156.553 231.765 155.827 232 154.91 232ZM152.542 228.16V230.848H154.75C155.326 230.848 155.774 230.736 156.094 230.512C156.425 230.288 156.59 229.952 156.59 229.504C156.59 229.056 156.425 228.72 156.094 228.496C155.774 228.272 155.326 228.16 154.75 228.16H152.542ZM160.654 232H159.374V224.32H160.654V232ZM166.228 232H164.948V225.504H162.116V224.32H169.044V225.504H166.228V232ZM174.145 232H170.497V224.32H171.777V227.008H174.145C175.062 227.008 175.787 227.243 176.321 227.712C176.854 228.181 177.121 228.779 177.121 229.504C177.121 230.229 176.854 230.827 176.321 231.296C175.787 231.765 175.062 232 174.145 232ZM171.777 228.16V230.848H173.985C174.561 230.848 175.009 230.736 175.329 230.512C175.659 230.288 175.825 229.952 175.825 229.504C175.825 229.056 175.659 228.72 175.329 228.496C175.009 228.272 174.561 228.16 173.985 228.16H171.777ZM179.889 232H178.609V224.32H179.889V232ZM183.478 232H182.262V224.32H183.654L186.454 228.576L189.254 224.32H190.646V232H189.43V226.208L186.934 230H185.974L183.478 226.208V232Z" fill="black"/>
<path d="M85.8281 89.0746H56.0707V75.0625C56.0707 70.0996 60.1535 66.0777 65.1916 66.0777H85.8281V89.0746Z" fill="#CEE8FA"/>
<path d="M85.8281 90.9437H56.0707C55.0238 90.9437 54.1732 90.1058 54.1732 89.0746V75.0625C54.1732 69.0812 59.1197 64.2086 65.1916 64.2086H85.8281C86.875 64.2086 87.7256 65.0465 87.7256 66.0777V89.0746C87.7256 90.1058 86.875 90.9437 85.8281 90.9437ZM57.9681 87.2054H83.9176V67.9597H65.1785C61.2004 67.9597 57.9681 71.1437 57.9681 75.0625V87.2054Z" fill="#2D527C"/>
<path d="M105.444 74.2633H51.5561C47.9443 74.2633 45 71.3629 45 67.7922V61.9785C45 58.4207 47.9443 55.5203 51.5561 55.5203H65.1262C66.173 55.5203 67.0236 56.3582 67.0236 57.3894C67.0236 58.4207 66.173 59.2586 65.1262 59.2586H51.5561C50.0381 59.2586 48.7949 60.4832 48.7949 61.9785V67.7922C48.7949 69.2875 50.0381 70.5121 51.5561 70.5121H105.431C106.949 70.5121 108.192 69.2875 108.192 67.7922V61.9785C108.192 60.4832 106.949 59.2586 105.431 59.2586H78.5C77.4531 59.2586 76.6025 58.4207 76.6025 57.3894C76.6025 56.3582 77.4531 55.5203 78.5 55.5203H105.444C109.056 55.5203 112 58.4207 112 61.9785V67.7922C112 71.3629 109.056 74.2633 105.444 74.2633Z" fill="#F0BF5F"/>
<path d="M78.5 59.1555C77.9111 59.1555 77.3484 58.8977 76.9689 58.3949C76.3408 57.557 76.524 56.384 77.3615 55.7781C79.1543 54.4633 82.8707 51.0086 82.8707 48.7012C82.8707 46.2004 81.0256 44.3957 78.5 44.3957C76.0922 44.3957 74.1293 46.3293 74.1293 48.7012C74.1293 49.7324 73.2787 50.5703 72.2318 50.5703C71.1849 50.5703 70.3344 49.7324 70.3344 48.7012V48.5336C70.3344 48.482 70.3343 48.4305 70.3474 48.3789C70.5045 44.0734 74.1031 40.6445 78.5 40.6445C83.1586 40.6445 86.6787 44.1121 86.6787 48.7012C86.6787 53.5223 80.3582 58.266 79.6254 58.7945C79.2851 59.0395 78.8926 59.1555 78.5 59.1555Z" fill="#F0BF5F"/>
<path d="M92.5412 101.256H67.377C66.3301 101.256 65.4795 100.418 65.4795 99.3871V89.0875C65.4795 88.0562 66.3301 87.2183 67.377 87.2183H100.942C101.989 87.2183 102.84 88.0562 102.84 89.0875C102.84 90.1187 101.989 90.9566 100.942 90.9566H69.2744V97.5179H92.5412C93.5881 97.5179 94.4387 98.3558 94.4387 99.3871C94.4387 100.418 93.5881 101.256 92.5412 101.256Z" fill="#2D527C"/>
<path d="M100.929 89.0746V73.5672C100.929 69.4293 97.5269 66.0777 93.3264 66.0777H67.377V89.0746H100.929Z" fill="#CEE8FA"/>
<path d="M100.929 90.9437H67.377C66.3301 90.9437 65.4795 90.1059 65.4795 89.0746V66.0906C65.4795 65.0594 66.3301 64.2215 67.377 64.2215H93.3395C98.5738 64.2215 102.84 68.4238 102.84 73.5801V89.0875C102.84 90.1059 101.976 90.9437 100.929 90.9437ZM69.2744 87.2055H99.0318V73.5672C99.0318 70.4734 96.4801 67.9597 93.3395 67.9597H69.2744V87.2055Z" fill="#2D527C"/>
<path d="M67.377 105.355C66.3301 105.355 65.4795 104.518 65.4795 103.486V99.3871C65.4795 98.3558 66.3301 97.5179 67.377 97.5179C68.4238 97.5179 69.2744 98.3558 69.2744 99.3871V103.486C69.2744 104.518 68.4238 105.355 67.377 105.355Z" fill="#2D527C"/>
<path d="M100.929 105.355C99.8824 105.355 99.0319 104.518 99.0319 103.486V87.8758C99.0319 86.8445 99.8824 86.0066 100.929 86.0066C101.976 86.0066 102.827 86.8445 102.827 87.8758V103.486C102.84 104.518 101.976 105.355 100.929 105.355Z" fill="#2D527C"/>
<path d="M92.5412 105.355C91.4943 105.355 90.6437 104.518 90.6437 103.486V99.3871C90.6437 98.3558 91.4943 97.5179 92.5412 97.5179C93.5881 97.5179 94.4387 98.3558 94.4387 99.3871V103.486C94.4387 104.518 93.5881 105.355 92.5412 105.355Z" fill="#2D527C"/>
<path d="M84.1531 105.355C83.1063 105.355 82.2557 104.518 82.2557 103.486V99.3871C82.2557 98.3558 83.1063 97.5179 84.1531 97.5179C85.2 97.5179 86.0506 98.3558 86.0506 99.3871V103.486C86.0506 104.518 85.2 105.355 84.1531 105.355Z" fill="#2D527C"/>
<path d="M75.765 105.355C74.7181 105.355 73.8676 104.518 73.8676 103.486V99.3871C73.8676 98.3558 74.7181 97.5179 75.765 97.5179C76.8119 97.5179 77.6625 98.3558 77.6625 99.3871V103.486C77.6625 104.518 76.8119 105.355 75.765 105.355Z" fill="#2D527C"/>
</svg>
