<svg width="275" height="275" viewBox="0 0 275 275" fill="none" xmlns="http://www.w3.org/2000/svg">
<rect width="275" height="275" rx="15" fill="white"/>
<path d="M47.816 136V130.928H50.408L54.072 136H55.608L51.464 130.256L55.272 124.8H53.736L50.36 129.648H47.816V124.8H46.472V136H47.816ZM55.7654 132.16C55.7654 134.784 57.7814 136.192 59.8614 136.192C61.9574 136.192 63.9574 134.784 63.9574 132.16C63.9574 129.536 61.9574 128.128 59.8614 128.128C57.7814 128.128 55.7654 129.536 55.7654 132.16ZM62.6774 132.16C62.6774 133.936 61.4294 134.976 59.8614 134.976C58.2934 134.976 57.0454 133.936 57.0454 132.16C57.0454 130.384 58.2934 129.344 59.8614 129.344C61.4294 129.344 62.6774 130.384 62.6774 132.16ZM67.0734 136V132.752H71.5214V136H72.8014V128.32H71.5214V131.568H67.0734V128.32H65.7934V136H67.0734ZM74.6404 132.192C74.6404 134.928 76.7364 136.192 78.7524 136.192C79.7124 136.192 80.5284 136.016 81.2484 135.664V134.384C80.6084 134.768 79.7604 135.008 78.9284 135.008C77.4244 135.008 75.9204 134.128 75.9204 132.16C75.9204 130.144 77.4724 129.312 78.9604 129.312C79.7764 129.312 80.5924 129.552 81.1684 130V128.752C80.5124 128.32 79.6644 128.128 78.8004 128.128C76.8004 128.128 74.6404 129.392 74.6404 132.192ZM86.2754 134.544L83.3794 128.32H82.0194L85.6674 136.016L85.3794 136.72C84.8834 137.968 84.2594 138.592 83.3954 138.592C83.1714 138.592 82.9474 138.56 82.7234 138.496V139.6C83.0114 139.68 83.2834 139.712 83.5554 139.712C84.6754 139.712 85.6514 139.008 86.4514 137.152L90.2274 128.32H88.8674L86.2754 134.544ZM93.7009 129.504H96.8209V136H98.1009V128.32H92.4529C92.3089 132.448 91.8609 135.04 90.5009 135.04C90.3409 135.04 90.1649 135.008 89.9889 134.944V135.952C90.3249 136.08 90.6289 136.128 90.9169 136.128C92.9009 136.128 93.4449 133.44 93.7009 129.504ZM104.113 136C105.985 136 107.089 134.928 107.089 133.504C107.089 132.08 105.985 131.008 104.113 131.008H101.745V128.32H100.465V136H104.113ZM101.745 132.16H103.953C105.073 132.16 105.793 132.592 105.793 133.504C105.793 134.416 105.073 134.848 103.953 134.848H101.745V132.16ZM110.947 136V129.504H113.763V128.32H106.835V129.504H109.667V136H110.947ZM121.377 134.4V131.392C121.377 129.248 120.081 128.128 118.033 128.128C116.769 128.128 115.713 128.432 115.105 128.64V129.888C115.777 129.6 116.721 129.312 117.905 129.312C119.313 129.312 120.097 130.08 120.097 131.232V131.504C119.457 131.36 118.641 131.264 117.969 131.264C116.321 131.264 114.497 131.872 114.497 133.856C114.497 135.472 115.841 136.192 117.201 136.192C118.449 136.192 119.425 135.808 120.193 135.168C120.417 135.84 120.977 136.096 121.601 136.096C121.921 136.096 122.257 136.032 122.561 135.92V134.88C122.369 134.944 122.161 134.992 121.969 134.992C121.633 134.992 121.377 134.864 121.377 134.4ZM115.809 133.792C115.809 132.672 117.025 132.336 118.145 132.336C118.769 132.336 119.553 132.448 120.097 132.56V133.968C119.425 134.688 118.449 135.088 117.473 135.088C116.625 135.088 115.809 134.688 115.809 133.792ZM131.838 138.08V134.816H130.702V128.32H129.422V134.816H125.214V128.32H123.934V136H130.59V138.08H131.838ZM134.631 136L139.335 130.384V136H140.615V128.32H139.527L134.823 133.936V128.32H133.543V136H134.631ZM143.749 136L145.845 133.312H148.005V136H149.285V128.32H145.509C143.637 128.32 142.629 129.472 142.629 130.816C142.629 131.888 143.269 132.832 144.469 133.184L142.245 136H143.749ZM143.909 130.816C143.909 129.968 144.549 129.472 145.621 129.472H148.005V132.16H145.621C144.549 132.16 143.909 131.664 143.909 130.816ZM155.109 132.192C155.109 134.928 157.205 136.192 159.221 136.192C160.181 136.192 160.997 136.016 161.717 135.664V134.384C161.077 134.768 160.229 135.008 159.397 135.008C157.893 135.008 156.389 134.128 156.389 132.16C156.389 130.144 157.941 129.312 159.429 129.312C160.245 129.312 161.061 129.552 161.637 130V128.752C160.981 128.32 160.133 128.128 159.269 128.128C157.269 128.128 155.109 129.392 155.109 132.192ZM173.815 134.4V131.392C173.815 129.248 172.519 128.128 170.471 128.128C169.207 128.128 168.151 128.432 167.543 128.64V129.888C168.215 129.6 169.159 129.312 170.343 129.312C171.751 129.312 172.535 130.08 172.535 131.232V131.504C171.895 131.36 171.079 131.264 170.407 131.264C168.759 131.264 166.935 131.872 166.935 133.856C166.935 135.472 168.279 136.192 169.639 136.192C170.887 136.192 171.863 135.808 172.631 135.168C172.855 135.84 173.415 136.096 174.039 136.096C174.359 136.096 174.695 136.032 174.999 135.92V134.88C174.807 134.944 174.599 134.992 174.407 134.992C174.071 134.992 173.815 134.864 173.815 134.4ZM168.247 133.792C168.247 132.672 169.463 132.336 170.583 132.336C171.207 132.336 171.991 132.448 172.535 132.56V133.968C171.863 134.688 170.887 135.088 169.911 135.088C169.063 135.088 168.247 134.688 168.247 133.792ZM177.652 136V132.704H179.156L181.972 136H183.476L180.212 132.144L183.124 128.32H181.636L179.204 131.52H177.652V128.32H176.372V136H177.652ZM187.947 136V129.504H190.763V128.32H183.835V129.504H186.667V136H187.947ZM193.303 136L198.007 130.384V136H199.287V128.32H198.199L193.495 133.936V128.32H192.215V136H193.303ZM205.989 136C207.653 136 208.469 135.136 208.469 133.872C208.469 132.912 207.829 132.304 207.205 132.096C207.781 131.84 208.229 131.2 208.229 130.4C208.229 129.04 207.205 128.32 205.861 128.32H201.653V136H205.989ZM202.933 132.672H205.861C206.501 132.672 207.189 132.88 207.189 133.792C207.189 134.64 206.613 134.88 205.813 134.88H202.933V132.672ZM202.933 129.44H205.733C206.277 129.44 206.933 129.664 206.933 130.528C206.933 131.312 206.405 131.568 205.733 131.568H202.933V129.44ZM209.89 132.16C209.89 134.784 211.906 136.192 213.986 136.192C216.082 136.192 218.082 134.784 218.082 132.16C218.082 129.536 216.082 128.128 213.986 128.128C211.906 128.128 209.89 129.536 209.89 132.16ZM216.802 132.16C216.802 133.936 215.554 134.976 213.986 134.976C212.418 134.976 211.17 133.936 211.17 132.16C211.17 130.384 212.418 129.344 213.986 129.344C215.554 129.344 216.802 130.384 216.802 132.16ZM221.134 136V130.208L223.63 134H224.59L227.086 130.208V136H228.302V128.32H226.91L224.11 132.576L221.31 128.32H219.918V136H221.134ZM50.52 168C52.184 168 53 167.136 53 165.872C53 164.912 52.36 164.304 51.736 164.096C52.312 163.84 52.76 163.2 52.76 162.4C52.76 161.04 51.736 160.32 50.392 160.32H46.184V168H50.52ZM47.464 164.672H50.392C51.032 164.672 51.72 164.88 51.72 165.792C51.72 166.64 51.144 166.88 50.344 166.88H47.464V164.672ZM47.464 161.44H50.264C50.808 161.44 51.464 161.664 51.464 162.528C51.464 163.312 50.936 163.568 50.264 163.568H47.464V161.44ZM57.6696 161.504H60.7896V168H62.0696V160.32H56.4216C56.2776 164.448 55.8296 167.04 54.4696 167.04C54.3096 167.04 54.1336 167.008 53.9576 166.944V167.952C54.2936 168.08 54.5976 168.128 54.8856 168.128C56.8696 168.128 57.4136 165.44 57.6696 161.504ZM63.906 164.16C63.906 166.896 65.89 168.192 68.162 168.192C69.17 168.192 70.178 168 70.882 167.632V166.384C70.226 166.752 69.298 167.008 68.354 167.008C66.802 167.008 65.346 166.336 65.186 164.72H71.298C71.778 162.544 70.69 160.128 67.73 160.128C65.906 160.128 63.906 161.472 63.906 164.16ZM70.162 163.6H65.186C65.282 162.096 66.498 161.312 67.81 161.312C69.762 161.312 70.274 162.784 70.162 163.6ZM79.1684 168V160.32H77.8884V164.208C77.2964 164.448 76.7524 164.544 75.9844 164.544C74.7044 164.544 73.9204 164.176 73.9204 162.88V160.32H72.6404V162.976C72.6404 164.864 73.8404 165.728 75.6004 165.728C76.5604 165.728 77.1844 165.6 77.8884 165.328V168H79.1684ZM81.0154 164.16C81.0154 166.896 82.9994 168.192 85.2714 168.192C86.2794 168.192 87.2874 168 87.9914 167.632V166.384C87.3354 166.752 86.4074 167.008 85.4634 167.008C83.9114 167.008 82.4554 166.336 82.2954 164.72H88.4074C88.8874 162.544 87.7994 160.128 84.8394 160.128C83.0154 160.128 81.0154 161.472 81.0154 164.16ZM87.2714 163.6H82.2954C82.3914 162.096 83.6074 161.312 84.9194 161.312C86.8714 161.312 87.3834 162.784 87.2714 163.6ZM93.3215 168V161.504H96.1375V160.32H89.2095V161.504H92.0415V168H93.3215ZM107.319 165.936C107.319 164.944 106.599 164.288 105.735 164.064C106.599 163.872 107.159 163.264 107.159 162.336C107.159 160.992 106.055 160.112 103.911 160.112C102.887 160.112 101.927 160.352 101.159 160.704V161.904C101.863 161.552 102.855 161.296 103.767 161.296C104.967 161.296 105.879 161.664 105.879 162.512C105.879 163.248 105.207 163.504 104.343 163.504H102.663V164.688H104.343C105.111 164.688 106.039 164.848 106.039 165.792C106.039 166.784 104.919 167.008 103.703 167.008C102.775 167.008 101.687 166.736 101.031 166.384V167.6C101.751 167.952 102.775 168.192 103.863 168.192C105.991 168.192 107.319 167.392 107.319 165.936ZM115.44 166.4V163.392C115.44 161.248 114.144 160.128 112.096 160.128C110.832 160.128 109.776 160.432 109.168 160.64V161.888C109.84 161.6 110.784 161.312 111.968 161.312C113.376 161.312 114.16 162.08 114.16 163.232V163.504C113.52 163.36 112.704 163.264 112.032 163.264C110.384 163.264 108.56 163.872 108.56 165.856C108.56 167.472 109.904 168.192 111.264 168.192C112.512 168.192 113.488 167.808 114.256 167.168C114.48 167.84 115.04 168.096 115.664 168.096C115.984 168.096 116.32 168.032 116.624 167.92V166.88C116.432 166.944 116.224 166.992 116.032 166.992C115.696 166.992 115.44 166.864 115.44 166.4ZM109.872 165.792C109.872 164.672 111.088 164.336 112.208 164.336C112.832 164.336 113.616 164.448 114.16 164.56V165.968C113.488 166.688 112.512 167.088 111.536 167.088C110.688 167.088 109.872 166.688 109.872 165.792ZM121.453 164.192C121.453 166.928 123.549 168.192 125.565 168.192C126.525 168.192 127.341 168.016 128.061 167.664V166.384C127.421 166.768 126.573 167.008 125.741 167.008C124.237 167.008 122.733 166.128 122.733 164.16C122.733 162.144 124.285 161.312 125.773 161.312C126.589 161.312 127.405 161.552 127.981 162V160.752C127.325 160.32 126.477 160.128 125.613 160.128C123.613 160.128 121.453 161.392 121.453 164.192ZM129.265 164.16C129.265 166.784 131.281 168.192 133.361 168.192C135.457 168.192 137.457 166.784 137.457 164.16C137.457 161.536 135.457 160.128 133.361 160.128C131.281 160.128 129.265 161.536 129.265 164.16ZM136.177 164.16C136.177 165.936 134.929 166.976 133.361 166.976C131.793 166.976 130.545 165.936 130.545 164.16C130.545 162.384 131.793 161.344 133.361 161.344C134.929 161.344 136.177 162.384 136.177 164.16ZM146.797 164.384C146.797 162.096 145.021 160.64 143.021 160.64C141.821 160.64 140.733 161.232 140.189 162.08C140.509 161.104 140.941 160.064 142.013 159.424C143.773 158.4 145.005 158.736 146.109 157.952V156.608C144.989 157.696 143.469 157.12 141.261 158.48C139.885 159.344 138.893 161.12 138.893 163.696C138.893 166.608 140.557 168.192 142.877 168.192C145.197 168.192 146.797 166.784 146.797 164.384ZM140.173 164.416C140.173 163.12 141.245 161.856 142.845 161.856C144.525 161.856 145.517 162.96 145.517 164.416C145.517 165.872 144.525 166.976 142.845 166.976C141.229 166.976 140.173 165.872 140.173 164.416ZM148.125 164.16C148.125 166.784 150.141 168.192 152.221 168.192C154.317 168.192 156.317 166.784 156.317 164.16C156.317 161.536 154.317 160.128 152.221 160.128C150.141 160.128 148.125 161.536 148.125 164.16ZM155.037 164.16C155.037 165.936 153.789 166.976 152.221 166.976C150.653 166.976 149.405 165.936 149.405 164.16C149.405 162.384 150.653 161.344 152.221 161.344C153.789 161.344 155.037 162.384 155.037 164.16ZM163.929 158.464V157.312C163.129 157.84 162.473 158.016 161.689 158.016C160.905 158.016 160.249 157.84 159.449 157.312V158.464C160.169 158.976 160.921 159.136 161.689 159.136C162.457 159.136 163.209 158.976 163.929 158.464ZM159.241 168L163.945 162.384V168H165.225V160.32H164.137L159.433 165.936V160.32H158.153V168H159.241ZM47.464 200V193.504H51.912V200H53.192V192.32H46.184V200H47.464ZM56.711 193.6V192.32H55.559V203.52H56.839V198.848C57.399 199.504 58.343 200.192 59.815 200.192C62.007 200.192 63.655 198.464 63.655 196.16C63.655 193.856 62.007 192.128 59.815 192.128C58.343 192.128 57.399 192.816 56.711 193.6ZM62.375 196.16C62.375 197.92 61.159 199.008 59.671 199.008C58.295 199.008 57.271 198.112 56.839 197.12V195.2C57.271 194.208 58.295 193.312 59.671 193.312C61.159 193.312 62.375 194.4 62.375 196.16ZM64.9685 196.16C64.9685 198.784 66.9845 200.192 69.0645 200.192C71.1605 200.192 73.1605 198.784 73.1605 196.16C73.1605 193.536 71.1605 192.128 69.0645 192.128C66.9845 192.128 64.9685 193.536 64.9685 196.16ZM71.8805 196.16C71.8805 197.936 70.6325 198.976 69.0645 198.976C67.4965 198.976 66.2485 197.936 66.2485 196.16C66.2485 194.384 67.4965 193.344 69.0645 193.344C70.6325 193.344 71.8805 194.384 71.8805 196.16ZM82.9005 202.08V198.816H81.7645V192.32H80.4845V198.816H76.2765V192.32H74.9965V200H81.6525V202.08H82.9005ZM83.9216 196.16C83.9216 198.896 85.9056 200.192 88.1776 200.192C89.1856 200.192 90.1936 200 90.8976 199.632V198.384C90.2416 198.752 89.3136 199.008 88.3696 199.008C86.8176 199.008 85.3616 198.336 85.2016 196.72H91.3136C91.7936 194.544 90.7056 192.128 87.7456 192.128C85.9216 192.128 83.9216 193.472 83.9216 196.16ZM90.1776 195.6H85.2016C85.2976 194.096 86.5136 193.312 87.8256 193.312C89.7776 193.312 90.2896 194.784 90.1776 195.6ZM92.656 196.192C92.656 198.928 94.752 200.192 96.768 200.192C97.728 200.192 98.544 200.016 99.264 199.664V198.384C98.624 198.768 97.776 199.008 96.944 199.008C95.44 199.008 93.936 198.128 93.936 196.16C93.936 194.144 95.488 193.312 96.976 193.312C97.792 193.312 98.608 193.552 99.184 194V192.752C98.528 192.32 97.68 192.128 96.816 192.128C94.816 192.128 92.656 193.392 92.656 196.192ZM100.469 196.192C100.469 198.928 102.565 200.192 104.581 200.192C105.541 200.192 106.357 200.016 107.077 199.664V198.384C106.437 198.768 105.589 199.008 104.757 199.008C103.253 199.008 101.749 198.128 101.749 196.16C101.749 194.144 103.301 193.312 104.789 193.312C105.605 193.312 106.421 193.552 106.997 194V192.752C106.341 192.32 105.493 192.128 104.629 192.128C102.629 192.128 100.469 193.392 100.469 196.192ZM117.27 200C118.934 200 119.75 199.136 119.75 197.872C119.75 196.912 119.11 196.304 118.486 196.096C119.062 195.84 119.51 195.2 119.51 194.4C119.51 193.04 118.486 192.32 117.142 192.32H112.934V200H117.27ZM114.214 196.672H117.142C117.782 196.672 118.47 196.88 118.47 197.792C118.47 198.64 117.894 198.88 117.094 198.88H114.214V196.672ZM114.214 193.44H117.014C117.558 193.44 118.214 193.664 118.214 194.528C118.214 195.312 117.686 195.568 117.014 195.568H114.214V193.44ZM122.98 200V196.752H127.428V200H128.708V192.32H127.428V195.568H122.98V192.32H121.7V200H122.98ZM130.547 196.16C130.547 198.896 132.531 200.192 134.803 200.192C135.811 200.192 136.819 200 137.523 199.632V198.384C136.867 198.752 135.939 199.008 134.995 199.008C133.443 199.008 131.987 198.336 131.827 196.72H137.939C138.419 194.544 137.331 192.128 134.371 192.128C132.547 192.128 130.547 193.472 130.547 196.16ZM136.803 195.6H131.827C131.923 194.096 133.139 193.312 134.451 193.312C136.403 193.312 136.915 194.784 136.803 195.6ZM140.164 202.08V200H146.852V202.08H148.1V198.848H146.98V192.32H141.252C141.284 195.184 140.9 197.152 139.94 198.848H138.916V202.08H140.164ZM142.484 193.472H145.7V198.848H141.332C142.036 197.376 142.42 195.776 142.484 193.472ZM150.961 193.6V192.32H149.809V203.52H151.089V198.848C151.649 199.504 152.593 200.192 154.065 200.192C156.257 200.192 157.905 198.464 157.905 196.16C157.905 193.856 156.257 192.128 154.065 192.128C152.593 192.128 151.649 192.816 150.961 193.6ZM156.625 196.16C156.625 197.92 155.409 199.008 153.921 199.008C152.545 199.008 151.521 198.112 151.089 197.12V195.2C151.521 194.208 152.545 193.312 153.921 193.312C155.409 193.312 156.625 194.4 156.625 196.16ZM159.219 196.16C159.219 198.896 161.203 200.192 163.475 200.192C164.483 200.192 165.491 200 166.195 199.632V198.384C165.539 198.752 164.611 199.008 163.667 199.008C162.115 199.008 160.659 198.336 160.499 196.72H166.611C167.091 194.544 166.003 192.128 163.043 192.128C161.219 192.128 159.219 193.472 159.219 196.16ZM165.475 195.6H160.499C160.595 194.096 161.811 193.312 163.123 193.312C165.075 193.312 165.587 194.784 165.475 195.6ZM169.761 200V196.752H174.209V200H175.489V192.32H174.209V195.568H169.761V192.32H168.481V200H169.761ZM178.944 200L183.648 194.384V200H184.928V192.32H183.84L179.136 197.936V192.32H177.856V200H178.944ZM188.061 200L190.157 197.312H192.317V200H193.597V192.32H189.821C187.949 192.32 186.941 193.472 186.941 194.816C186.941 195.888 187.581 196.832 188.781 197.184L186.557 200H188.061ZM188.221 194.816C188.221 193.968 188.861 193.472 189.933 193.472H192.317V196.16H189.933C188.861 196.16 188.221 195.664 188.221 194.816ZM49.416 230.544L46.52 224.32H45.16L48.808 232.016L48.52 232.72C48.024 233.968 47.4 234.592 46.536 234.592C46.312 234.592 46.088 234.56 45.864 234.496V235.6C46.152 235.68 46.424 235.712 46.696 235.712C47.816 235.712 48.792 235.008 49.592 233.152L53.368 224.32H52.008L49.416 230.544ZM53.9841 228.192C53.9841 230.928 56.0801 232.192 58.0961 232.192C59.0561 232.192 59.8721 232.016 60.5921 231.664V230.384C59.9521 230.768 59.1041 231.008 58.2721 231.008C56.7681 231.008 55.2641 230.128 55.2641 228.16C55.2641 226.144 56.8161 225.312 58.3041 225.312C59.1201 225.312 59.9361 225.552 60.5121 226V224.752C59.8561 224.32 59.0081 224.128 58.1441 224.128C56.1441 224.128 53.9841 225.392 53.9841 228.192ZM65.1853 225.504H68.3053V232H69.5853V224.32H63.9373C63.7933 228.448 63.3453 231.04 61.9853 231.04C61.8253 231.04 61.6493 231.008 61.4733 230.944V231.952C61.8092 232.08 62.1133 232.128 62.4013 232.128C64.3853 232.128 64.9293 229.44 65.1853 225.504ZM75.1816 230.544L72.2856 224.32H70.9256L74.5736 232.016L74.2856 232.72C73.7896 233.968 73.1656 234.592 72.3016 234.592C72.0776 234.592 71.8536 234.56 71.6296 234.496V235.6C71.9176 235.68 72.1896 235.712 72.4616 235.712C73.5816 235.712 74.5576 235.008 75.3576 233.152L79.1336 224.32H77.7736L75.1816 230.544ZM81.839 232V225.504H86.175V224.32H80.559V232H81.839ZM92.9015 232V228.752H97.3495V232H98.6295V224.32H97.3495V227.568H92.9015V224.32H91.6215V232H92.9015ZM107.237 230.4V227.392C107.237 225.248 105.941 224.128 103.893 224.128C102.629 224.128 101.573 224.432 100.965 224.64V225.888C101.637 225.6 102.581 225.312 103.765 225.312C105.173 225.312 105.957 226.08 105.957 227.232V227.504C105.317 227.36 104.501 227.264 103.829 227.264C102.181 227.264 100.357 227.872 100.357 229.856C100.357 231.472 101.701 232.192 103.061 232.192C104.309 232.192 105.285 231.808 106.053 231.168C106.277 231.84 106.837 232.096 107.461 232.096C107.781 232.096 108.117 232.032 108.421 231.92V230.88C108.229 230.944 108.021 230.992 107.829 230.992C107.493 230.992 107.237 230.864 107.237 230.4ZM101.669 229.792C101.669 228.672 102.885 228.336 104.005 228.336C104.629 228.336 105.413 228.448 105.957 228.56V229.968C105.285 230.688 104.309 231.088 103.333 231.088C102.485 231.088 101.669 230.688 101.669 229.792ZM120.513 232V224.32H119.233V230.816H115.793V224.32H114.513V230.816H111.073V224.32H109.793V232H120.513ZM122.359 228.16C122.359 230.896 124.343 232.192 126.615 232.192C127.623 232.192 128.631 232 129.335 231.632V230.384C128.679 230.752 127.751 231.008 126.807 231.008C125.255 231.008 123.799 230.336 123.639 228.72H129.751C130.231 226.544 129.143 224.128 126.183 224.128C124.359 224.128 122.359 225.472 122.359 228.16ZM128.615 227.6H123.639C123.735 226.096 124.951 225.312 126.263 225.312C128.215 225.312 128.727 226.784 128.615 227.6ZM132.902 232V225.504H137.238V224.32H131.622V232H132.902ZM137.89 228.16C137.89 230.784 139.906 232.192 141.986 232.192C144.082 232.192 146.082 230.784 146.082 228.16C146.082 225.536 144.082 224.128 141.986 224.128C139.906 224.128 137.89 225.536 137.89 228.16ZM144.802 228.16C144.802 229.936 143.554 230.976 141.986 230.976C140.418 230.976 139.17 229.936 139.17 228.16C139.17 226.384 140.418 225.344 141.986 225.344C143.554 225.344 144.802 226.384 144.802 228.16ZM151.375 228.192C151.375 230.928 153.471 232.192 155.487 232.192C156.447 232.192 157.263 232.016 157.983 231.664V230.384C157.343 230.768 156.495 231.008 155.663 231.008C154.159 231.008 152.655 230.128 152.655 228.16C152.655 226.144 154.207 225.312 155.695 225.312C156.511 225.312 157.327 225.552 157.903 226V224.752C157.247 224.32 156.399 224.128 155.535 224.128C153.535 224.128 151.375 225.392 151.375 228.192ZM159.187 228.16C159.187 230.896 161.171 232.192 163.443 232.192C164.451 232.192 165.459 232 166.163 231.632V230.384C165.507 230.752 164.579 231.008 163.635 231.008C162.083 231.008 160.627 230.336 160.467 228.72H166.579C167.059 226.544 165.971 224.128 163.011 224.128C161.187 224.128 159.187 225.472 159.187 228.16ZM165.443 227.6H160.467C160.563 226.096 161.779 225.312 163.091 225.312C165.043 225.312 165.555 226.784 165.443 227.6ZM169.602 225.6V224.32H168.45V235.52H169.73V230.848C170.29 231.504 171.234 232.192 172.706 232.192C174.898 232.192 176.546 230.464 176.546 228.16C176.546 225.856 174.898 224.128 172.706 224.128C171.234 224.128 170.29 224.816 169.602 225.6ZM175.266 228.16C175.266 229.92 174.05 231.008 172.562 231.008C171.186 231.008 170.162 230.112 169.73 229.12V227.2C170.162 226.208 171.186 225.312 172.562 225.312C174.05 225.312 175.266 226.4 175.266 228.16ZM182.723 232C184.387 232 185.203 231.136 185.203 229.872C185.203 228.912 184.563 228.304 183.939 228.096C184.515 227.84 184.963 227.2 184.963 226.4C184.963 225.04 183.939 224.32 182.595 224.32H178.387V232H182.723ZM179.667 228.672H182.595C183.235 228.672 183.923 228.88 183.923 229.792C183.923 230.64 183.347 230.88 182.547 230.88H179.667V228.672ZM179.667 225.44H182.467C183.011 225.44 183.667 225.664 183.667 226.528C183.667 227.312 183.139 227.568 182.467 227.568H179.667V225.44ZM188.241 232L192.945 226.384V232H194.225V224.32H193.137L188.433 229.936V224.32H187.153V232H188.241ZM196.062 228.192C196.062 230.928 198.158 232.192 200.174 232.192C201.134 232.192 201.95 232.016 202.67 231.664V230.384C202.03 230.768 201.182 231.008 200.35 231.008C198.846 231.008 197.342 230.128 197.342 228.16C197.342 226.144 198.894 225.312 200.382 225.312C201.198 225.312 202.014 225.552 202.59 226V224.752C201.934 224.32 201.086 224.128 200.222 224.128C198.222 224.128 196.062 225.392 196.062 228.192ZM210.783 230.4V227.392C210.783 225.248 209.487 224.128 207.439 224.128C206.175 224.128 205.119 224.432 204.511 224.64V225.888C205.183 225.6 206.127 225.312 207.311 225.312C208.719 225.312 209.503 226.08 209.503 227.232V227.504C208.863 227.36 208.047 227.264 207.375 227.264C205.727 227.264 203.903 227.872 203.903 229.856C203.903 231.472 205.247 232.192 206.607 232.192C207.855 232.192 208.831 231.808 209.599 231.168C209.823 231.84 210.383 232.096 211.007 232.096C211.327 232.096 211.663 232.032 211.967 231.92V230.88C211.775 230.944 211.567 230.992 211.375 230.992C211.039 230.992 210.783 230.864 210.783 230.4ZM205.215 229.792C205.215 228.672 206.431 228.336 207.551 228.336C208.175 228.336 208.959 228.448 209.503 228.56V229.968C208.831 230.688 207.855 231.088 206.879 231.088C206.031 231.088 205.215 230.688 205.215 229.792Z" fill="black"/>
<path d="M99.025 91.7191H54.975C53.9625 91.7191 53.15 90.8812 53.15 89.8371V87.8519C53.15 74.291 63.85 63.2566 77 63.2566C79.4875 63.2566 81.9375 63.6562 84.2875 64.4296C85.25 64.7519 85.775 65.8089 85.475 66.8015C85.1625 67.7941 84.1375 68.3355 83.175 68.0261C81.1875 67.3687 79.1125 67.0335 77 67.0335C65.8625 67.0335 56.8 76.3793 56.8 87.8648V87.9679H97.2V87.8648C97.2 82.2703 95.075 77.0109 91.225 73.0664C90.5125 72.3316 90.5 71.1457 91.2125 70.398C91.925 69.6632 93.075 69.6503 93.8 70.3851C98.35 75.0386 100.863 81.239 100.863 87.8519V89.8371C100.85 90.8812 100.038 91.7191 99.025 91.7191Z" fill="#F0BF5F"/>
<path d="M77.0001 66.5824C75.9876 66.5824 75.175 65.7445 75.175 64.7004V59.3637C75.175 58.3195 75.9876 57.4816 77.0001 57.4816C78.0126 57.4816 78.8251 58.3195 78.8251 59.3637V64.7004C78.8251 65.7445 78.0126 66.5824 77.0001 66.5824Z" fill="#F0BF5F"/>
<path d="M81.4751 60.8074H72.5251C71.5126 60.8074 70.7001 59.9695 70.7001 58.9254C70.7001 57.8812 71.5126 57.0433 72.5251 57.0433H81.4751C82.4876 57.0433 83.3001 57.8812 83.3001 58.9254C83.3001 59.9695 82.4876 60.8074 81.4751 60.8074Z" fill="#F0BF5F"/>
<path d="M92.9875 89.8371H61V97.7648H92.9875V89.8371Z" fill="#CEE8FA"/>
<path d="M93.0001 99.6469H61C59.9875 99.6469 59.175 98.809 59.175 97.7648V89.8371C59.175 88.793 59.9875 87.9551 61 87.9551H93.0001C94.0126 87.9551 94.8251 88.793 94.8251 89.8371V97.7648C94.8251 98.809 94.0001 99.6469 93.0001 99.6469ZM62.8375 95.8828H91.1751V91.7191H62.8375V95.8828Z" fill="#F0BF5F"/>
<path d="M99.2375 103.811H54.7625C52.6375 103.811 50.9125 102.032 50.9125 99.8402C50.9125 97.6488 52.6375 95.8699 54.7625 95.8699H99.2375C101.362 95.8699 103.087 97.6488 103.087 99.8402C103.075 102.032 101.362 103.811 99.2375 103.811Z" fill="#CEE8FA"/>
<path d="M99.2375 105.693H54.7625C51.6375 105.693 49.0875 103.076 49.0875 99.8403C49.0875 96.6047 51.625 93.9879 54.7625 93.9879H99.2375C102.363 93.9879 104.913 96.6176 104.913 99.8403C104.9 103.076 102.363 105.693 99.2375 105.693ZM54.7625 97.7649C53.65 97.7649 52.75 98.693 52.75 99.8403C52.75 100.988 53.65 101.916 54.7625 101.916H99.2375C100.35 101.916 101.25 100.988 101.25 99.8403C101.25 98.693 100.35 97.7649 99.2375 97.7649H54.7625Z" fill="#2D527C"/>
<path d="M77.0001 51.7324C75.9876 51.7324 75.175 50.8945 75.175 49.8504V46.1895C75.175 45.1453 75.9876 44.3074 77.0001 44.3074C78.0126 44.3074 78.8251 45.1453 78.8251 46.1895V49.8504C78.8251 50.8945 78.0126 51.7324 77.0001 51.7324Z" fill="#2D527C"/>
<path d="M107.175 77.3074H103.625C102.613 77.3074 101.8 76.4695 101.8 75.4254C101.8 74.3813 102.613 73.5434 103.625 73.5434H107.175C108.188 73.5434 109 74.3813 109 75.4254C109 76.4695 108.188 77.3074 107.175 77.3074Z" fill="#2D527C"/>
<path d="M50.375 77.3074H46.825C45.8125 77.3074 45 76.4695 45 75.4254C45 74.3813 45.8125 73.5434 46.825 73.5434H50.375C51.3875 73.5434 52.2 74.3813 52.2 75.4254C52.2 76.4695 51.3875 77.3074 50.375 77.3074Z" fill="#2D527C"/>
<path d="M94.5375 59.2219C94.075 59.2219 93.6 59.0414 93.25 58.6676C92.5375 57.9328 92.5375 56.734 93.25 55.9992L95.75 53.4211C96.4625 52.6863 97.625 52.6863 98.3375 53.4211C99.05 54.1559 99.05 55.3547 98.3375 56.0895L95.825 58.6805C95.475 59.0414 95 59.2219 94.5375 59.2219Z" fill="#2D527C"/>
<path d="M59.4625 59.2219C59 59.2219 58.525 59.0414 58.175 58.6676L55.6625 56.0766C54.95 55.3418 54.95 54.143 55.6625 53.4082C56.375 52.6735 57.5375 52.6735 58.25 53.4082L60.7625 55.9992C61.475 56.734 61.475 57.9328 60.7625 58.6676C60.4 59.0414 59.9375 59.2219 59.4625 59.2219Z" fill="#2D527C"/>
</svg>
