<svg width="275" height="275" viewBox="0 0 275 275" fill="none" xmlns="http://www.w3.org/2000/svg">
<rect width="275" height="275" rx="15" fill="white"/>
<path d="M46.472 124.8V136H47.816V132.032H50.296C52.888 132.032 55.048 131.216 55.048 128.416C55.048 125.616 52.888 124.8 50.296 124.8H46.472ZM53.688 128.416C53.688 130.304 52.184 130.752 50.36 130.752H47.816V126.08H50.36C52.2 126.08 53.688 126.512 53.688 128.416ZM62.7678 134.4V131.392C62.7678 129.248 61.4718 128.128 59.4238 128.128C58.1598 128.128 57.1038 128.432 56.4958 128.64V129.888C57.1678 129.6 58.1118 129.312 59.2958 129.312C60.7038 129.312 61.4878 130.08 61.4878 131.232V131.504C60.8478 131.36 60.0318 131.264 59.3598 131.264C57.7118 131.264 55.8878 131.872 55.8878 133.856C55.8878 135.472 57.2318 136.192 58.5918 136.192C59.8398 136.192 60.8158 135.808 61.5838 135.168C61.8078 135.84 62.3678 136.096 62.9918 136.096C63.3118 136.096 63.6478 136.032 63.9518 135.92V134.88C63.7598 134.944 63.5518 134.992 63.3598 134.992C63.0238 134.992 62.7678 134.864 62.7678 134.4ZM57.1998 133.792C57.1998 132.672 58.4158 132.336 59.5358 132.336C60.1598 132.336 60.9438 132.448 61.4878 132.56V133.968C60.8158 134.688 59.8398 135.088 58.8638 135.088C58.0158 135.088 57.1998 134.688 57.1998 133.792ZM69.6606 136C71.3246 136 72.1406 135.136 72.1406 133.872C72.1406 132.912 71.5006 132.304 70.8766 132.096C71.4526 131.84 71.9006 131.2 71.9006 130.4C71.9006 129.04 70.8766 128.32 69.5326 128.32H65.3246V136H69.6606ZM66.6046 132.672H69.5326C70.1726 132.672 70.8606 132.88 70.8606 133.792C70.8606 134.64 70.2846 134.88 69.4846 134.88H66.6046V132.672ZM66.6046 129.44H69.4046C69.9486 129.44 70.6046 129.664 70.6046 130.528C70.6046 131.312 70.0766 131.568 69.4046 131.568H66.6046V129.44ZM75.3703 136V132.752H79.8183V136H81.0983V128.32H79.8183V131.568H75.3703V128.32H74.0903V136H75.3703ZM87.1133 136C88.9853 136 90.0893 134.928 90.0893 133.504C90.0893 132.08 88.9853 131.008 87.1133 131.008H84.7453V128.32H83.4653V136H87.1133ZM84.7453 132.16H86.9533C88.0733 132.16 88.7933 132.592 88.7933 133.504C88.7933 134.416 88.0733 134.848 86.9533 134.848H84.7453V132.16ZM92.8573 136V128.32H91.5773V136H92.8573ZM96.4469 136V130.208L98.9429 134H99.9029L102.399 130.208V136H103.615V128.32H102.223L99.4229 132.576L96.6229 128.32H95.2309V136H96.4469ZM109.437 132.16C109.437 134.784 111.453 136.192 113.533 136.192C115.629 136.192 117.629 134.784 117.629 132.16C117.629 129.536 115.629 128.128 113.533 128.128C111.453 128.128 109.437 129.536 109.437 132.16ZM116.349 132.16C116.349 133.936 115.101 134.976 113.533 134.976C111.965 134.976 110.717 133.936 110.717 132.16C110.717 130.384 111.965 129.344 113.533 129.344C115.101 129.344 116.349 130.384 116.349 132.16ZM126.969 132.384C126.969 130.096 125.193 128.64 123.193 128.64C121.993 128.64 120.905 129.232 120.361 130.08C120.681 129.104 121.113 128.064 122.185 127.424C123.945 126.4 125.177 126.736 126.281 125.952V124.608C125.161 125.696 123.641 125.12 121.433 126.48C120.057 127.344 119.065 129.12 119.065 131.696C119.065 134.608 120.729 136.192 123.049 136.192C125.369 136.192 126.969 134.784 126.969 132.384ZM120.345 132.416C120.345 131.12 121.417 129.856 123.017 129.856C124.697 129.856 125.689 130.96 125.689 132.416C125.689 133.872 124.697 134.976 123.017 134.976C121.401 134.976 120.345 133.872 120.345 132.416ZM129.977 129.6V128.32H128.825V139.52H130.105V134.848C130.665 135.504 131.609 136.192 133.081 136.192C135.273 136.192 136.921 134.464 136.921 132.16C136.921 129.856 135.273 128.128 133.081 128.128C131.609 128.128 130.665 128.816 129.977 129.6ZM135.641 132.16C135.641 133.92 134.425 135.008 132.937 135.008C131.561 135.008 130.537 134.112 130.105 133.12V131.2C130.537 130.208 131.561 129.312 132.937 129.312C134.425 129.312 135.641 130.4 135.641 132.16ZM145.002 134.4V131.392C145.002 129.248 143.706 128.128 141.658 128.128C140.394 128.128 139.338 128.432 138.73 128.64V129.888C139.402 129.6 140.346 129.312 141.53 129.312C142.938 129.312 143.722 130.08 143.722 131.232V131.504C143.082 131.36 142.266 131.264 141.594 131.264C139.946 131.264 138.122 131.872 138.122 133.856C138.122 135.472 139.466 136.192 140.826 136.192C142.074 136.192 143.05 135.808 143.818 135.168C144.042 135.84 144.602 136.096 145.226 136.096C145.546 136.096 145.882 136.032 146.186 135.92V134.88C145.994 134.944 145.786 134.992 145.594 134.992C145.258 134.992 145.002 134.864 145.002 134.4ZM139.434 133.792C139.434 132.672 140.65 132.336 141.77 132.336C142.394 132.336 143.178 132.448 143.722 132.56V133.968C143.05 134.688 142.074 135.088 141.098 135.088C140.25 135.088 139.434 134.688 139.434 133.792ZM153.303 133.936C153.303 132.944 152.583 132.288 151.719 132.064C152.583 131.872 153.143 131.264 153.143 130.336C153.143 128.992 152.039 128.112 149.895 128.112C148.871 128.112 147.911 128.352 147.143 128.704V129.904C147.847 129.552 148.839 129.296 149.751 129.296C150.951 129.296 151.863 129.664 151.863 130.512C151.863 131.248 151.191 131.504 150.327 131.504H148.647V132.688H150.327C151.095 132.688 152.023 132.848 152.023 133.792C152.023 134.784 150.903 135.008 149.687 135.008C148.759 135.008 147.671 134.736 147.015 134.384V135.6C147.735 135.952 148.759 136.192 149.847 136.192C151.975 136.192 153.303 135.392 153.303 133.936ZM154.656 132.16C154.656 134.784 156.672 136.192 158.752 136.192C160.848 136.192 162.848 134.784 162.848 132.16C162.848 129.536 160.848 128.128 158.752 128.128C156.672 128.128 154.656 129.536 154.656 132.16ZM161.568 132.16C161.568 133.936 160.32 134.976 158.752 134.976C157.184 134.976 155.936 133.936 155.936 132.16C155.936 130.384 157.184 129.344 158.752 129.344C160.32 129.344 161.568 130.384 161.568 132.16ZM165.9 136V130.208L168.396 134H169.356L171.852 130.208V136H173.068V128.32H171.676L168.876 132.576L166.076 128.32H164.684V136H165.9ZM180.57 129.6V128.32H179.418V139.52H180.698V134.848C181.258 135.504 182.202 136.192 183.674 136.192C185.866 136.192 187.514 134.464 187.514 132.16C187.514 129.856 185.866 128.128 183.674 128.128C182.202 128.128 181.258 128.816 180.57 129.6ZM186.234 132.16C186.234 133.92 185.018 135.008 183.53 135.008C182.154 135.008 181.13 134.112 180.698 133.12V131.2C181.13 130.208 182.154 129.312 183.53 129.312C185.018 129.312 186.234 130.4 186.234 132.16ZM195.596 134.4V131.392C195.596 129.248 194.3 128.128 192.252 128.128C190.988 128.128 189.932 128.432 189.324 128.64V129.888C189.996 129.6 190.94 129.312 192.124 129.312C193.532 129.312 194.316 130.08 194.316 131.232V131.504C193.676 131.36 192.86 131.264 192.188 131.264C190.54 131.264 188.716 131.872 188.716 133.856C188.716 135.472 190.06 136.192 191.42 136.192C192.668 136.192 193.644 135.808 194.412 135.168C194.636 135.84 195.196 136.096 195.82 136.096C196.14 136.096 196.476 136.032 196.78 135.92V134.88C196.588 134.944 196.38 134.992 196.188 134.992C195.852 134.992 195.596 134.864 195.596 134.4ZM190.028 133.792C190.028 132.672 191.244 132.336 192.364 132.336C192.988 132.336 193.772 132.448 194.316 132.56V133.968C193.644 134.688 192.668 135.088 191.692 135.088C190.844 135.088 190.028 134.688 190.028 133.792ZM199.369 136V130.208L201.865 134H202.825L205.321 130.208V136H206.537V128.32H205.145L202.345 132.576L199.545 128.32H198.153V136H199.369ZM210.183 136V132.704H211.687L214.503 136H216.007L212.743 132.144L215.655 128.32H214.167L211.735 131.52H210.183V128.32H208.903V136H210.183ZM218.366 136L223.07 130.384V136H224.35V128.32H223.262L218.558 133.936V128.32H217.278V136H218.366ZM47.272 168L51.976 162.384V168H53.256V160.32H52.168L47.464 165.936V160.32H46.184V168H47.272ZM60.8219 168V162.208L63.3179 166H64.2779L66.7739 162.208V168H67.9899V160.32H66.5979L63.7979 164.576L60.9979 160.32H59.6059V168H60.8219ZM69.8279 164.16C69.8279 166.896 71.8119 168.192 74.0839 168.192C75.0919 168.192 76.0999 168 76.8039 167.632V166.384C76.1479 166.752 75.2199 167.008 74.2759 167.008C72.7239 167.008 71.2679 166.336 71.1079 164.72H77.2199C77.6999 162.544 76.6119 160.128 73.6519 160.128C71.8279 160.128 69.8279 161.472 69.8279 164.16ZM76.0839 163.6H71.1079C71.2039 162.096 72.4199 161.312 73.7319 161.312C75.6839 161.312 76.1959 162.784 76.0839 163.6ZM78.5623 164.192C78.5623 166.928 80.6583 168.192 82.6743 168.192C83.6343 168.192 84.4503 168.016 85.1703 167.664V166.384C84.5303 166.768 83.6823 167.008 82.8503 167.008C81.3463 167.008 79.8423 166.128 79.8423 164.16C79.8423 162.144 81.3943 161.312 82.8823 161.312C83.6983 161.312 84.5143 161.552 85.0903 162V160.752C84.4343 160.32 83.5863 160.128 82.7223 160.128C80.7223 160.128 78.5623 161.392 78.5623 164.192ZM90.2434 168V161.504H93.0594V160.32H86.1314V161.504H88.9634V168H90.2434ZM93.7341 164.16C93.7341 166.784 95.7501 168.192 97.8301 168.192C99.9261 168.192 101.926 166.784 101.926 164.16C101.926 161.536 99.9261 160.128 97.8301 160.128C95.7501 160.128 93.7341 161.536 93.7341 164.16ZM100.646 164.16C100.646 165.936 99.3981 166.976 97.8301 166.976C96.2621 166.976 95.0141 165.936 95.0141 164.16C95.0141 162.384 96.2621 161.344 97.8301 161.344C99.3981 161.344 100.646 162.384 100.646 164.16ZM107.219 164.16C107.219 166.784 109.235 168.192 111.315 168.192C113.411 168.192 115.411 166.784 115.411 164.16C115.411 161.536 113.411 160.128 111.315 160.128C109.235 160.128 107.219 161.536 107.219 164.16ZM114.131 164.16C114.131 165.936 112.883 166.976 111.315 166.976C109.747 166.976 108.499 165.936 108.499 164.16C108.499 162.384 109.747 161.344 111.315 161.344C112.883 161.344 114.131 162.384 114.131 164.16ZM124.751 164.384C124.751 162.096 122.975 160.64 120.975 160.64C119.775 160.64 118.687 161.232 118.143 162.08C118.463 161.104 118.895 160.064 119.967 159.424C121.727 158.4 122.959 158.736 124.062 157.952V156.608C122.943 157.696 121.423 157.12 119.215 158.48C117.839 159.344 116.847 161.12 116.847 163.696C116.847 166.608 118.511 168.192 120.831 168.192C123.151 168.192 124.751 166.784 124.751 164.384ZM118.127 164.416C118.127 163.12 119.199 161.856 120.799 161.856C122.479 161.856 123.471 162.96 123.471 164.416C123.471 165.872 122.479 166.976 120.799 166.976C119.183 166.976 118.127 165.872 118.127 164.416ZM129.479 166.544L126.583 160.32H125.223L128.871 168.016L128.583 168.72C128.087 169.968 127.463 170.592 126.599 170.592C126.375 170.592 126.151 170.56 125.927 170.496V171.6C126.215 171.68 126.487 171.712 126.759 171.712C127.879 171.712 128.855 171.008 129.655 169.152L133.431 160.32H132.071L129.479 166.544ZM140.856 168V160.32H139.576V164.208C138.984 164.448 138.44 164.544 137.672 164.544C136.392 164.544 135.608 164.176 135.608 162.88V160.32H134.328V162.976C134.328 164.864 135.528 165.728 137.288 165.728C138.248 165.728 138.872 165.6 139.576 165.328V168H140.856ZM142.703 164.16C142.703 166.896 144.687 168.192 146.959 168.192C147.967 168.192 148.975 168 149.679 167.632V166.384C149.023 166.752 148.095 167.008 147.151 167.008C145.599 167.008 144.143 166.336 143.983 164.72H150.095C150.575 162.544 149.487 160.128 146.527 160.128C144.703 160.128 142.703 161.472 142.703 164.16ZM148.959 163.6H143.983C144.079 162.096 145.295 161.312 146.607 161.312C148.559 161.312 149.071 162.784 148.959 163.6ZM153.245 168V164.752H157.693V168H158.973V160.32H157.693V163.568H153.245V160.32H151.965V168H153.245ZM162.428 168L167.132 162.384V168H168.412V160.32H167.324L162.62 165.936V160.32H161.34V168H162.428ZM171.546 168L173.642 165.312H175.802V168H177.082V160.32H173.306C171.434 160.32 170.426 161.472 170.426 162.816C170.426 163.888 171.066 164.832 172.266 165.184L170.042 168H171.546ZM171.706 162.816C171.706 161.968 172.346 161.472 173.418 161.472H175.802V164.16H173.418C172.346 164.16 171.706 163.664 171.706 162.816ZM47.464 200V196.704H48.968L51.784 200H53.288L50.024 196.144L52.936 192.32H51.448L49.016 195.52H47.464V192.32H46.184V200H47.464ZM60.7365 198.4V195.392C60.7365 193.248 59.4405 192.128 57.3925 192.128C56.1285 192.128 55.0725 192.432 54.4645 192.64V193.888C55.1365 193.6 56.0805 193.312 57.2645 193.312C58.6725 193.312 59.4565 194.08 59.4565 195.232V195.504C58.8165 195.36 58.0005 195.264 57.3285 195.264C55.6805 195.264 53.8565 195.872 53.8565 197.856C53.8565 199.472 55.2005 200.192 56.5605 200.192C57.8085 200.192 58.7845 199.808 59.5525 199.168C59.7765 199.84 60.3365 200.096 60.9605 200.096C61.2805 200.096 61.6165 200.032 61.9205 199.92V198.88C61.7285 198.944 61.5205 198.992 61.3285 198.992C60.9925 198.992 60.7365 198.864 60.7365 198.4ZM55.1685 197.792C55.1685 196.672 56.3845 196.336 57.5045 196.336C58.1285 196.336 58.9125 196.448 59.4565 196.56V197.968C58.7845 198.688 57.8085 199.088 56.8325 199.088C55.9845 199.088 55.1685 198.688 55.1685 197.792ZM63.7734 202.08V200H70.4614V202.08H71.7094V198.848H70.5894V192.32H64.8614C64.8934 195.184 64.5094 197.152 63.5494 198.848H62.5254V202.08H63.7734ZM66.0934 193.472H69.3094V198.848H64.9414C65.6454 197.376 66.0294 195.776 66.0934 193.472ZM74.5704 193.6V192.32H73.4184V203.52H74.6984V198.848C75.2584 199.504 76.2024 200.192 77.6744 200.192C79.8664 200.192 81.5144 198.464 81.5144 196.16C81.5144 193.856 79.8664 192.128 77.6744 192.128C76.2024 192.128 75.2584 192.816 74.5704 193.6ZM80.2344 196.16C80.2344 197.92 79.0184 199.008 77.5304 199.008C76.1544 199.008 75.1304 198.112 74.6984 197.12V195.2C75.1304 194.208 76.1544 193.312 77.5304 193.312C79.0184 193.312 80.2344 194.4 80.2344 196.16ZM82.8279 196.16C82.8279 198.784 84.8439 200.192 86.9239 200.192C89.0199 200.192 91.0199 198.784 91.0199 196.16C91.0199 193.536 89.0199 192.128 86.9239 192.128C84.8439 192.128 82.8279 193.536 82.8279 196.16ZM89.7399 196.16C89.7399 197.936 88.4919 198.976 86.9239 198.976C85.3559 198.976 84.1079 197.936 84.1079 196.16C84.1079 194.384 85.3559 193.344 86.9239 193.344C88.4919 193.344 89.7399 194.384 89.7399 196.16ZM97.1919 200C98.8559 200 99.6719 199.136 99.6719 197.872C99.6719 196.912 99.0319 196.304 98.4079 196.096C98.9839 195.84 99.4319 195.2 99.4319 194.4C99.4319 193.04 98.4079 192.32 97.0639 192.32H92.8559V200H97.1919ZM94.1359 196.672H97.0639C97.7039 196.672 98.3919 196.88 98.3919 197.792C98.3919 198.64 97.8159 198.88 97.0159 198.88H94.1359V196.672ZM94.1359 193.44H96.9359C97.4799 193.44 98.1359 193.664 98.1359 194.528C98.1359 195.312 97.6079 195.568 96.9359 195.568H94.1359V193.44ZM105.078 196.192C105.078 198.928 107.174 200.192 109.19 200.192C110.15 200.192 110.966 200.016 111.686 199.664V198.384C111.046 198.768 110.198 199.008 109.366 199.008C107.862 199.008 106.358 198.128 106.358 196.16C106.358 194.144 107.91 193.312 109.398 193.312C110.214 193.312 111.03 193.552 111.606 194V192.752C110.95 192.32 110.102 192.128 109.238 192.128C107.238 192.128 105.078 193.392 105.078 196.192ZM114.839 200V193.504H119.287V200H120.567V192.32H113.559V200H114.839ZM122.406 196.16C122.406 198.784 124.422 200.192 126.502 200.192C128.598 200.192 130.598 198.784 130.598 196.16C130.598 193.536 128.598 192.128 126.502 192.128C124.422 192.128 122.406 193.536 122.406 196.16ZM129.318 196.16C129.318 197.936 128.07 198.976 126.502 198.976C124.934 198.976 123.686 197.936 123.686 196.16C123.686 194.384 124.934 193.344 126.502 193.344C128.07 193.344 129.318 194.384 129.318 196.16ZM131.906 196.192C131.906 198.928 134.002 200.192 136.018 200.192C136.978 200.192 137.794 200.016 138.514 199.664V198.384C137.874 198.768 137.026 199.008 136.194 199.008C134.69 199.008 133.186 198.128 133.186 196.16C133.186 194.144 134.738 193.312 136.226 193.312C137.042 193.312 137.858 193.552 138.434 194V192.752C137.778 192.32 136.93 192.128 136.066 192.128C134.066 192.128 131.906 193.392 131.906 196.192ZM139.719 196.16C139.719 198.784 141.735 200.192 143.815 200.192C145.911 200.192 147.911 198.784 147.911 196.16C147.911 193.536 145.911 192.128 143.815 192.128C141.735 192.128 139.719 193.536 139.719 196.16ZM146.631 196.16C146.631 197.936 145.383 198.976 143.815 198.976C142.247 198.976 140.999 197.936 140.999 196.16C140.999 194.384 142.247 193.344 143.815 193.344C145.383 193.344 146.631 194.384 146.631 196.16ZM157.251 196.384C157.251 194.096 155.475 192.64 153.475 192.64C152.275 192.64 151.187 193.232 150.643 194.08C150.963 193.104 151.395 192.064 152.467 191.424C154.227 190.4 155.459 190.736 156.562 189.952V188.608C155.443 189.696 153.923 189.12 151.715 190.48C150.339 191.344 149.347 193.12 149.347 195.696C149.347 198.608 151.011 200.192 153.331 200.192C155.651 200.192 157.251 198.784 157.251 196.384ZM150.627 196.416C150.627 195.12 151.699 193.856 153.299 193.856C154.979 193.856 155.971 194.96 155.971 196.416C155.971 197.872 154.979 198.976 153.299 198.976C151.683 198.976 150.627 197.872 150.627 196.416ZM158.578 196.192C158.578 198.928 160.674 200.192 162.69 200.192C163.65 200.192 164.466 200.016 165.186 199.664V198.384C164.546 198.768 163.698 199.008 162.866 199.008C161.362 199.008 159.858 198.128 159.858 196.16C159.858 194.144 161.41 193.312 162.898 193.312C163.714 193.312 164.53 193.552 165.106 194V192.752C164.45 192.32 163.602 192.128 162.738 192.128C160.738 192.128 158.578 193.392 158.578 196.192ZM170.259 200V193.504H173.075V192.32H166.147V193.504H168.979V200H170.259ZM178.864 200C180.528 200 181.344 199.136 181.344 197.872C181.344 196.912 180.704 196.304 180.08 196.096C180.656 195.84 181.104 195.2 181.104 194.4C181.104 193.04 180.08 192.32 178.736 192.32H174.528V200H178.864ZM175.808 196.672H178.736C179.376 196.672 180.064 196.88 180.064 197.792C180.064 198.64 179.488 198.88 178.688 198.88H175.808V196.672ZM175.808 193.44H178.608C179.152 193.44 179.808 193.664 179.808 194.528C179.808 195.312 179.28 195.568 178.608 195.568H175.808V193.44ZM186.354 198.544L183.458 192.32H182.098L185.746 200.016L185.458 200.72C184.962 201.968 184.338 202.592 183.474 202.592C183.25 202.592 183.026 202.56 182.802 202.496V203.6C183.09 203.68 183.362 203.712 183.634 203.712C184.754 203.712 185.73 203.008 186.53 201.152L190.306 192.32H188.946L186.354 198.544ZM190.922 196.16C190.922 198.896 192.906 200.192 195.178 200.192C196.186 200.192 197.194 200 197.898 199.632V198.384C197.242 198.752 196.314 199.008 195.37 199.008C193.818 199.008 192.362 198.336 192.202 196.72H198.314C198.794 194.544 197.706 192.128 194.746 192.128C192.922 192.128 190.922 193.472 190.922 196.16ZM197.178 195.6H192.202C192.298 194.096 193.514 193.312 194.826 193.312C196.778 193.312 197.29 194.784 197.178 195.6ZM203.228 200V193.504H206.044V192.32H199.116V193.504H201.948V200H203.228ZM47.464 232V225.504H51.912V232H53.192V224.32H46.184V232H47.464ZM55.031 228.16C55.031 230.784 57.047 232.192 59.127 232.192C61.223 232.192 63.223 230.784 63.223 228.16C63.223 225.536 61.223 224.128 59.127 224.128C57.047 224.128 55.031 225.536 55.031 228.16ZM61.943 228.16C61.943 229.936 60.695 230.976 59.127 230.976C57.559 230.976 56.311 229.936 56.311 228.16C56.311 226.384 57.559 225.344 59.127 225.344C60.695 225.344 61.943 226.384 61.943 228.16ZM65.3359 234.08V232H72.0239V234.08H73.2719V230.848H72.1519V224.32H66.4239C66.4559 227.184 66.0719 229.152 65.1119 230.848H64.0879V234.08H65.3359ZM67.6559 225.472H70.8719V230.848H66.5039C67.2079 229.376 67.5919 227.776 67.6559 225.472ZM76.2609 232V225.504H80.5969V224.32H74.9809V232H76.2609ZM81.2498 228.16C81.2498 230.784 83.2658 232.192 85.3458 232.192C87.4418 232.192 89.4418 230.784 89.4418 228.16C89.4418 225.536 87.4418 224.128 85.3458 224.128C83.2658 224.128 81.2498 225.536 81.2498 228.16ZM88.1618 228.16C88.1618 229.936 86.9138 230.976 85.3458 230.976C83.7778 230.976 82.5298 229.936 82.5298 228.16C82.5298 226.384 83.7778 225.344 85.3458 225.344C86.9138 225.344 88.1618 226.384 88.1618 228.16ZM94.2278 232V225.504H97.0438V224.32H90.1158V225.504H92.9478V232H94.2278ZM97.7185 228.16C97.7185 230.784 99.7345 232.192 101.815 232.192C103.911 232.192 105.911 230.784 105.911 228.16C105.911 225.536 103.911 224.128 101.815 224.128C99.7345 224.128 97.7185 225.536 97.7185 228.16ZM104.631 228.16C104.631 229.936 103.383 230.976 101.815 230.976C100.247 230.976 98.9985 229.936 98.9985 228.16C98.9985 226.384 100.247 225.344 101.815 225.344C103.383 225.344 104.631 226.384 104.631 228.16ZM112.083 232C113.747 232 114.562 231.136 114.562 229.872C114.562 228.912 113.923 228.304 113.299 228.096C113.875 227.84 114.323 227.2 114.323 226.4C114.323 225.04 113.299 224.32 111.955 224.32H107.747V232H112.083ZM109.027 228.672H111.955C112.595 228.672 113.283 228.88 113.283 229.792C113.283 230.64 112.707 230.88 111.907 230.88H109.027V228.672ZM109.027 225.44H111.827C112.371 225.44 113.027 225.664 113.027 226.528C113.027 227.312 112.499 227.568 111.827 227.568H109.027V225.44ZM117.792 232V228.704H119.296L122.112 232H123.616L120.352 228.144L123.264 224.32H121.776L119.344 227.52H117.792V224.32H116.512V232H117.792ZM125.975 232L130.679 226.384V232H131.959V224.32H130.871L126.167 229.936V224.32H124.887V232H125.975ZM137.781 228.192C137.781 230.928 139.877 232.192 141.893 232.192C142.853 232.192 143.669 232.016 144.389 231.664V230.384C143.749 230.768 142.901 231.008 142.069 231.008C140.565 231.008 139.061 230.128 139.061 228.16C139.061 226.144 140.613 225.312 142.101 225.312C142.917 225.312 143.733 225.552 144.309 226V224.752C143.653 224.32 142.805 224.128 141.941 224.128C139.941 224.128 137.781 225.392 137.781 228.192ZM145.594 228.16C145.594 230.784 147.61 232.192 149.69 232.192C151.786 232.192 153.786 230.784 153.786 228.16C153.786 225.536 151.786 224.128 149.69 224.128C147.61 224.128 145.594 225.536 145.594 228.16ZM152.506 228.16C152.506 229.936 151.258 230.976 149.69 230.976C148.122 230.976 146.874 229.936 146.874 228.16C146.874 226.384 148.122 225.344 149.69 225.344C151.258 225.344 152.506 226.384 152.506 228.16ZM158.572 232V225.504H161.388V224.32H154.46V225.504H157.292V232H158.572ZM163.992 225.6V224.32H162.84V235.52H164.12V230.848C164.68 231.504 165.624 232.192 167.096 232.192C169.288 232.192 170.936 230.464 170.936 228.16C170.936 225.856 169.288 224.128 167.096 224.128C165.624 224.128 164.68 224.816 163.992 225.6ZM169.656 228.16C169.656 229.92 168.44 231.008 166.952 231.008C165.576 231.008 164.552 230.112 164.12 229.12V227.2C164.552 226.208 165.576 225.312 166.952 225.312C168.44 225.312 169.656 226.4 169.656 228.16ZM175.744 230.544L172.848 224.32H171.488L175.136 232.016L174.848 232.72C174.352 233.968 173.728 234.592 172.864 234.592C172.64 234.592 172.416 234.56 172.192 234.496V235.6C172.48 235.68 172.752 235.712 173.024 235.712C174.144 235.712 175.12 235.008 175.92 233.152L179.696 224.32H178.336L175.744 230.544ZM180.945 234.08V232H187.633V234.08H188.881V230.848H187.761V224.32H182.033C182.065 227.184 181.681 229.152 180.721 230.848H179.697V234.08H180.945ZM183.265 225.472H186.481V230.848H182.113C182.817 229.376 183.201 227.776 183.265 225.472ZM191.87 232V228.752H196.318V232H197.598V224.32H196.318V227.568H191.87V224.32H190.59V232H191.87ZM201.053 232L205.757 226.384V232H207.037V224.32H205.949L201.245 229.936V224.32H199.965V232H201.053ZM210.683 232V228.704H212.187L215.003 232H216.507L213.243 228.144L216.155 224.32H214.667L212.235 227.52H210.683V224.32H209.403V232H210.683ZM223.955 230.4V227.392C223.955 225.248 222.659 224.128 220.611 224.128C219.347 224.128 218.291 224.432 217.683 224.64V225.888C218.355 225.6 219.299 225.312 220.483 225.312C221.891 225.312 222.675 226.08 222.675 227.232V227.504C222.035 227.36 221.219 227.264 220.547 227.264C218.899 227.264 217.075 227.872 217.075 229.856C217.075 231.472 218.419 232.192 219.779 232.192C221.027 232.192 222.003 231.808 222.771 231.168C222.995 231.84 223.555 232.096 224.179 232.096C224.499 232.096 224.835 232.032 225.139 231.92V230.88C224.947 230.944 224.739 230.992 224.547 230.992C224.211 230.992 223.955 230.864 223.955 230.4ZM218.387 229.792C218.387 228.672 219.603 228.336 220.723 228.336C221.347 228.336 222.131 228.448 222.675 228.56V229.968C222.003 230.688 221.027 231.088 220.051 231.088C219.203 231.088 218.387 230.688 218.387 229.792Z" fill="black"/>
<g clip-path="url(#clip0_96182:459)">
<path d="M58.6364 102.315H54.1891C53.1966 102.315 52.3973 101.516 52.3973 100.523C52.3973 99.5308 53.1966 98.7316 54.1891 98.7316H58.6364C59.629 98.7316 60.4282 99.5308 60.4282 100.523C60.4282 101.516 59.629 102.315 58.6364 102.315Z" fill="#F0BF5F"/>
<path d="M107.208 102.315H102.49C101.498 102.315 100.698 101.516 100.698 100.523C100.698 99.5308 101.498 98.7316 102.49 98.7316H107.208C108.201 98.7316 109 99.5308 109 100.523C109 101.516 108.201 102.315 107.208 102.315Z" fill="#F0BF5F"/>
<path d="M105.236 102.096H102.49C101.498 102.096 100.699 101.297 100.699 100.304C100.699 99.3117 101.498 98.5125 102.49 98.5125H103.444V97.7262C103.444 94.0652 101.885 91.1133 98.9326 89.1797C96.7798 87.7746 94.047 87.027 91.0306 87.027H64.9013C62.5165 87.027 60.4283 88.7156 59.9384 91.0617L58.3658 98.5125H58.9072C59.8997 98.5125 60.699 99.3117 60.699 100.304C60.699 101.297 59.8997 102.096 58.9072 102.096H56.1615C55.62 102.096 55.1044 101.851 54.7693 101.439C54.4341 101.013 54.2923 100.472 54.4083 99.9434L56.4322 90.327C57.27 86.3437 60.8408 83.4434 64.9142 83.4434H91.0435C94.756 83.4434 98.172 84.3844 100.905 86.1762C104.862 88.7672 107.041 92.8664 107.041 97.7262V100.304C107.028 101.297 106.229 102.096 105.236 102.096Z" fill="#F0BF5F"/>
<path d="M84.959 102.096H71.282C70.2895 102.096 69.4902 101.297 69.4902 100.304C69.4902 99.3117 70.2895 98.5125 71.282 98.5125H84.9719C85.9645 98.5125 86.7637 99.3117 86.7637 100.304C86.7637 101.297 85.9516 102.096 84.959 102.096Z" fill="#F0BF5F"/>
<path d="M91.0305 85.2352C93.7375 85.2352 96.277 85.7895 98.4297 86.8465L95.916 75.9539C95.2199 73.2985 92.8094 71.4422 90.0637 71.4422H74.0922C71.643 71.4422 69.4387 72.9117 68.5106 75.1805L64.7594 85.2352H91.0305Z" fill="#CEE8FA"/>
<path d="M98.4296 88.6383C98.1589 88.6383 97.8882 88.5738 97.6433 88.4578C95.7355 87.5297 93.4409 87.027 91.0304 87.027H64.7593C64.1663 87.027 63.6249 86.7434 63.2897 86.2535C62.9546 85.7766 62.8772 85.1578 63.0835 84.6035L66.8347 74.5488C66.8476 74.5231 66.8476 74.5102 66.8605 74.4844C68.0722 71.5453 70.921 69.6375 74.105 69.6375H90.0765C93.6343 69.6375 96.7538 72.0352 97.6562 75.477C97.6562 75.4899 97.669 75.5156 97.669 75.5285L100.183 86.4211C100.337 87.0914 100.092 87.8004 99.5511 88.2258C99.2288 88.5094 98.8292 88.6383 98.4296 88.6383ZM67.3503 83.4434H91.0433C92.7448 83.4434 94.3948 83.6496 95.9546 84.0492L94.1886 76.3922C93.6858 74.5359 91.9972 73.2469 90.0765 73.2469H74.0921C72.3776 73.2469 70.8437 74.2652 70.1733 75.8508L67.3503 83.4434Z" fill="#F0BF5F"/>
<path d="M84.9589 94.568C83.9663 94.568 83.1671 93.7688 83.1671 92.7762V72.1254C83.1671 71.1328 83.9663 70.3336 84.9589 70.3336C85.9515 70.3336 86.7507 71.1328 86.7507 72.1254V92.7633C86.7507 93.7688 85.9515 94.568 84.9589 94.568Z" fill="#F0BF5F"/>
<path d="M97.463 106.866C93.5442 106.866 90.3602 103.682 90.3602 99.7629C90.3602 95.8441 93.5442 92.6602 97.463 92.6602C101.382 92.6602 104.566 95.8441 104.566 99.7629C104.566 103.682 101.382 106.866 97.463 106.866ZM97.463 96.2437C95.5294 96.2437 93.9438 97.8164 93.9438 99.7629C93.9438 101.709 95.5165 103.282 97.463 103.282C99.3966 103.282 100.982 101.709 100.982 99.7629C100.982 97.8164 99.3966 96.2437 97.463 96.2437Z" fill="#2D527C"/>
<path d="M63.8441 106.866C59.9253 106.866 56.7413 103.682 56.7413 99.7629C56.7413 95.8441 59.9253 92.6602 63.8441 92.6602C67.7628 92.6602 70.9468 95.8441 70.9468 99.7629C70.9597 103.682 67.7628 106.866 63.8441 106.866ZM63.8441 96.2438C61.8976 96.2438 60.3249 97.8164 60.3249 99.7629C60.3249 101.709 61.8976 103.282 63.8441 103.282C65.7905 103.282 67.3632 101.709 67.3632 99.7629C67.3632 97.8164 65.7905 96.2438 63.8441 96.2438Z" fill="#2D527C"/>
<path d="M67.3891 67.7168H44.7918C43.7992 67.7168 43 66.9176 43 65.925V44.9262C43 43.9336 43.7992 43.1344 44.7918 43.1344H67.3891C68.3816 43.1344 69.1809 43.9336 69.1809 44.9262V65.925C69.1809 66.9176 68.3816 67.7168 67.3891 67.7168ZM46.5836 64.1332H65.5973V46.718H46.5836V64.1332Z" fill="#2D527C"/>
<path d="M56.3289 49.2574H52.9902C52.307 49.2574 51.7914 49.6957 51.7914 50.2887V60.5496C51.7914 61.1684 52.423 61.5937 53.3125 61.5937C54.2148 61.5937 54.8336 61.1684 54.8336 60.5496V57.3398H56.1613C58.8554 57.3398 60.4023 55.8832 60.4023 53.3309V53.2535C60.4023 50.6754 58.9586 49.2574 56.3289 49.2574ZM56.1613 54.8519H54.8336V51.9902H56.1613C56.9605 51.9902 57.3472 52.4285 57.3472 53.3309V53.5113C57.3472 54.4137 56.9605 54.8519 56.1613 54.8519Z" fill="#2D527C"/>
<path d="M56.0839 82.7988C55.0913 82.7988 54.2921 81.9996 54.2921 81.007V66.157C54.2921 65.1645 55.0913 64.3652 56.0839 64.3652C57.0765 64.3652 57.8757 65.1645 57.8757 66.157V81.007C57.8886 81.9996 57.0765 82.7988 56.0839 82.7988Z" fill="#2D527C"/>
</g>
<defs>
<clipPath id="clip0_96182:459">
<rect width="66" height="66" fill="white" transform="translate(43 42)"/>
</clipPath>
</defs>
</svg>
