<svg width="275" height="275" viewBox="0 0 275 275" fill="none" xmlns="http://www.w3.org/2000/svg">
<rect width="275" height="275" rx="15" fill="white"/>
<path d="M55.8 136V124.8H54.552L47.816 133.744C47.816 133.424 47.816 133.104 47.816 132.784V124.8H46.472V136H47.72L54.456 127.04C54.456 127.36 54.456 127.68 54.456 128V136H55.8ZM58.8046 138.08V136H65.4926V138.08H66.7406V134.848H65.6206V128.32H59.8926C59.9246 131.184 59.5406 133.152 58.5806 134.848H57.5566V138.08H58.8046ZM61.1246 129.472H64.3406V134.848H59.9726C60.6766 133.376 61.0606 131.776 61.1246 129.472ZM67.7654 132.16C67.7654 134.896 69.7494 136.192 72.0214 136.192C73.0294 136.192 74.0374 136 74.7414 135.632V134.384C74.0854 134.752 73.1574 135.008 72.2134 135.008C70.6614 135.008 69.2054 134.336 69.0454 132.72H75.1574C75.6374 130.544 74.5494 128.128 71.5894 128.128C69.7654 128.128 67.7654 129.472 67.7654 132.16ZM74.0214 131.6H69.0454C69.1414 130.096 70.3574 129.312 71.6694 129.312C73.6214 129.312 74.1334 130.784 74.0214 131.6ZM82.8038 126.464V125.312C82.0038 125.84 81.3478 126.016 80.5638 126.016C79.7798 126.016 79.1238 125.84 78.3238 125.312V126.464C79.0438 126.976 79.7958 127.136 80.5638 127.136C81.3318 127.136 82.0838 126.976 82.8038 126.464ZM78.1158 136L82.8198 130.384V136H84.0998V128.32H83.0118L78.3078 133.936V128.32H77.0278V136H78.1158ZM87.7453 136V132.752H92.1933V136H93.4733V128.32H92.1933V131.568H87.7453V128.32H86.4653V136H87.7453ZM99.4883 136C101.36 136 102.464 134.928 102.464 133.504C102.464 132.08 101.36 131.008 99.4883 131.008H97.1203V128.32H95.8403V136H99.4883ZM97.1203 132.16H99.3283C100.448 132.16 101.168 132.592 101.168 133.504C101.168 134.416 100.448 134.848 99.3283 134.848H97.1203V132.16ZM105.232 136V128.32H103.952V136H105.232ZM107.078 132.16C107.078 134.896 109.062 136.192 111.334 136.192C112.342 136.192 113.35 136 114.054 135.632V134.384C113.398 134.752 112.47 135.008 111.526 135.008C109.974 135.008 108.518 134.336 108.358 132.72H114.47C114.95 130.544 113.862 128.128 110.902 128.128C109.078 128.128 107.078 129.472 107.078 132.16ZM113.334 131.6H108.358C108.454 130.096 109.67 129.312 110.982 129.312C112.934 129.312 113.446 130.784 113.334 131.6ZM119.797 132.192C119.797 134.928 121.893 136.192 123.909 136.192C124.869 136.192 125.685 136.016 126.405 135.664V134.384C125.765 134.768 124.917 135.008 124.085 135.008C122.581 135.008 121.077 134.128 121.077 132.16C121.077 130.144 122.629 129.312 124.117 129.312C124.933 129.312 125.749 129.552 126.325 130V128.752C125.669 128.32 124.821 128.128 123.957 128.128C121.957 128.128 119.797 129.392 119.797 132.192ZM127.609 132.16C127.609 134.784 129.625 136.192 131.705 136.192C133.801 136.192 135.801 134.784 135.801 132.16C135.801 129.536 133.801 128.128 131.705 128.128C129.625 128.128 127.609 129.536 127.609 132.16ZM134.521 132.16C134.521 133.936 133.273 134.976 131.705 134.976C130.137 134.976 128.889 133.936 128.889 132.16C128.889 130.384 130.137 129.344 131.705 129.344C133.273 129.344 134.521 130.384 134.521 132.16ZM137.109 132.16C137.109 134.784 139.125 136.192 141.205 136.192C143.301 136.192 145.301 134.784 145.301 132.16C145.301 129.536 143.301 128.128 141.205 128.128C139.125 128.128 137.109 129.536 137.109 132.16ZM144.021 132.16C144.021 133.936 142.773 134.976 141.205 134.976C139.637 134.976 138.389 133.936 138.389 132.16C138.389 130.384 139.637 129.344 141.205 129.344C142.773 129.344 144.021 130.384 144.021 132.16ZM154.641 132.384C154.641 130.096 152.865 128.64 150.865 128.64C149.665 128.64 148.577 129.232 148.033 130.08C148.353 129.104 148.785 128.064 149.857 127.424C151.617 126.4 152.849 126.736 153.953 125.952V124.608C152.833 125.696 151.313 125.12 149.105 126.48C147.729 127.344 146.737 129.12 146.737 131.696C146.737 134.608 148.401 136.192 150.721 136.192C153.041 136.192 154.641 134.784 154.641 132.384ZM148.017 132.416C148.017 131.12 149.089 129.856 150.689 129.856C152.369 129.856 153.361 130.96 153.361 132.416C153.361 133.872 152.369 134.976 150.689 134.976C149.073 134.976 148.017 133.872 148.017 132.416ZM157.649 129.6V128.32H156.497V139.52H157.777V134.848C158.337 135.504 159.281 136.192 160.753 136.192C162.945 136.192 164.593 134.464 164.593 132.16C164.593 129.856 162.945 128.128 160.753 128.128C159.281 128.128 158.337 128.816 157.649 129.6ZM163.312 132.16C163.312 133.92 162.097 135.008 160.609 135.008C159.233 135.008 158.209 134.112 157.777 133.12V131.2C158.209 130.208 159.233 129.312 160.609 129.312C162.097 129.312 163.312 130.4 163.312 132.16ZM172.674 134.4V131.392C172.674 129.248 171.378 128.128 169.33 128.128C168.066 128.128 167.01 128.432 166.402 128.64V129.888C167.074 129.6 168.018 129.312 169.202 129.312C170.61 129.312 171.394 130.08 171.394 131.232V131.504C170.754 131.36 169.938 131.264 169.266 131.264C167.618 131.264 165.794 131.872 165.794 133.856C165.794 135.472 167.138 136.192 168.498 136.192C169.746 136.192 170.722 135.808 171.49 135.168C171.714 135.84 172.274 136.096 172.898 136.096C173.218 136.096 173.554 136.032 173.858 135.92V134.88C173.666 134.944 173.458 134.992 173.266 134.992C172.93 134.992 172.674 134.864 172.674 134.4ZM167.106 133.792C167.106 132.672 168.322 132.336 169.442 132.336C170.066 132.336 170.85 132.448 171.394 132.56V133.968C170.722 134.688 169.746 135.088 168.77 135.088C167.922 135.088 167.106 134.688 167.106 133.792ZM185.999 136L182.943 132.144L185.647 128.32H184.223L181.887 131.6H180.719V128.32H179.439V131.6H178.271L175.935 128.32H174.511L177.215 132.144L174.159 136H175.599L178.207 132.784H179.439V136H180.719V132.784H181.951L184.559 136H185.999ZM186.39 132.16C186.39 134.896 188.374 136.192 190.646 136.192C191.654 136.192 192.662 136 193.366 135.632V134.384C192.71 134.752 191.782 135.008 190.838 135.008C189.286 135.008 187.83 134.336 187.67 132.72H193.782C194.262 130.544 193.174 128.128 190.214 128.128C188.39 128.128 186.39 129.472 186.39 132.16ZM192.646 131.6H187.67C187.766 130.096 188.982 129.312 190.294 129.312C192.246 129.312 192.758 130.784 192.646 131.6ZM196.933 136V132.752H201.381V136H202.661V128.32H201.381V131.568H196.933V128.32H195.653V136H196.933ZM206.116 136L210.82 130.384V136H212.1V128.32H211.012L206.308 133.936V128.32H205.028V136H206.116ZM215.233 136L217.329 133.312H219.489V136H220.769V128.32H216.993C215.121 128.32 214.113 129.472 214.113 130.816C214.113 131.888 214.753 132.832 215.953 133.184L213.729 136H215.233ZM215.393 130.816C215.393 129.968 216.033 129.472 217.105 129.472H219.489V132.16H217.105C216.033 132.16 215.393 131.664 215.393 130.816ZM50.52 168C52.184 168 53 167.136 53 165.872C53 164.912 52.36 164.304 51.736 164.096C52.312 163.84 52.76 163.2 52.76 162.4C52.76 161.04 51.736 160.32 50.392 160.32H46.184V168H50.52ZM47.464 164.672H50.392C51.032 164.672 51.72 164.88 51.72 165.792C51.72 166.64 51.144 166.88 50.344 166.88H47.464V164.672ZM47.464 161.44H50.264C50.808 161.44 51.464 161.664 51.464 162.528C51.464 163.312 50.936 163.568 50.264 163.568H47.464V161.44ZM58.5976 168C60.4696 168 61.5736 166.928 61.5736 165.504C61.5736 164.08 60.4696 163.008 58.5976 163.008H56.2296V160.32H54.9496V168H58.5976ZM56.2296 164.16H58.4376C59.5576 164.16 60.2776 164.592 60.2776 165.504C60.2776 166.416 59.5576 166.848 58.4376 166.848H56.2296V164.16ZM64.3416 168V160.32H63.0616V168H64.3416ZM66.1873 164.192C66.1873 166.928 68.2833 168.192 70.2993 168.192C71.2593 168.192 72.0753 168.016 72.7953 167.664V166.384C72.1553 166.768 71.3073 167.008 70.4753 167.008C68.9713 167.008 67.4673 166.128 67.4673 164.16C67.4673 162.144 69.0193 161.312 70.5073 161.312C71.3233 161.312 72.1393 161.552 72.7153 162V160.752C72.0593 160.32 71.2113 160.128 70.3473 160.128C68.3473 160.128 66.1873 161.392 66.1873 164.192ZM85.3884 168V160.32H84.1084V166.816H80.6684V160.32H79.3884V166.816H75.9484V160.32H74.6684V168H85.3884ZM87.2341 164.16C87.2341 166.896 89.2181 168.192 91.4901 168.192C92.4981 168.192 93.5061 168 94.2101 167.632V166.384C93.5541 166.752 92.6261 167.008 91.6821 167.008C90.1301 167.008 88.6741 166.336 88.5141 164.72H94.6261C95.1061 162.544 94.0181 160.128 91.0581 160.128C89.2341 160.128 87.2341 161.472 87.2341 164.16ZM93.4901 163.6H88.5141C88.6101 162.096 89.8261 161.312 91.1381 161.312C93.0901 161.312 93.6021 162.784 93.4901 163.6ZM97.7765 168V161.504H102.113V160.32H96.4965V168H97.7765ZM102.765 164.16C102.765 166.784 104.781 168.192 106.861 168.192C108.957 168.192 110.957 166.784 110.957 164.16C110.957 161.536 108.957 160.128 106.861 160.128C104.781 160.128 102.765 161.536 102.765 164.16ZM109.677 164.16C109.677 165.936 108.429 166.976 106.861 166.976C105.293 166.976 104.045 165.936 104.045 164.16C104.045 162.384 105.293 161.344 106.861 161.344C108.429 161.344 109.677 162.384 109.677 164.16ZM118.058 168V161.504H122.506V168H123.786V160.32H116.778V168H118.058ZM125.625 164.16C125.625 166.784 127.641 168.192 129.721 168.192C131.817 168.192 133.817 166.784 133.817 164.16C133.817 161.536 131.817 160.128 129.721 160.128C127.641 160.128 125.625 161.536 125.625 164.16ZM132.537 164.16C132.537 165.936 131.289 166.976 129.721 166.976C128.153 166.976 126.905 165.936 126.905 164.16C126.905 162.384 128.153 161.344 129.721 161.344C131.289 161.344 132.537 162.384 132.537 164.16ZM136.805 161.6V160.32H135.653V171.52H136.933V166.848C137.493 167.504 138.437 168.192 139.909 168.192C142.101 168.192 143.749 166.464 143.749 164.16C143.749 161.856 142.101 160.128 139.909 160.128C138.437 160.128 137.493 160.816 136.805 161.6ZM142.469 164.16C142.469 165.92 141.253 167.008 139.765 167.008C138.389 167.008 137.365 166.112 136.933 165.12V163.2C137.365 162.208 138.389 161.312 139.765 161.312C141.253 161.312 142.469 162.4 142.469 164.16ZM146.358 168L148.454 165.312H150.614V168H151.894V160.32H148.118C146.246 160.32 145.238 161.472 145.238 162.816C145.238 163.888 145.878 164.832 147.078 165.184L144.854 168H146.358ZM146.518 162.816C146.518 161.968 147.158 161.472 148.23 161.472H150.614V164.16H148.23C147.158 164.16 146.518 163.664 146.518 162.816ZM154.742 170.08V168H161.43V170.08H162.678V166.848H161.558V160.32H155.83C155.862 163.184 155.478 165.152 154.518 166.848H153.494V170.08H154.742ZM157.062 161.472H160.278V166.848H155.91C156.614 165.376 156.998 163.776 157.062 161.472ZM165.667 168V164.704H167.171L169.987 168H171.491L168.227 164.144L171.139 160.32H169.651L167.219 163.52H165.667V160.32H164.387V168H165.667ZM178.94 166.4V163.392C178.94 161.248 177.644 160.128 175.596 160.128C174.332 160.128 173.276 160.432 172.668 160.64V161.888C173.34 161.6 174.284 161.312 175.468 161.312C176.876 161.312 177.66 162.08 177.66 163.232V163.504C177.02 163.36 176.204 163.264 175.532 163.264C173.884 163.264 172.06 163.872 172.06 165.856C172.06 167.472 173.404 168.192 174.764 168.192C176.012 168.192 176.988 167.808 177.756 167.168C177.98 167.84 178.54 168.096 179.164 168.096C179.484 168.096 179.82 168.032 180.124 167.92V166.88C179.932 166.944 179.724 166.992 179.532 166.992C179.196 166.992 178.94 166.864 178.94 166.4ZM173.372 165.792C173.372 164.672 174.588 164.336 175.708 164.336C176.332 164.336 177.116 164.448 177.66 164.56V165.968C176.988 166.688 176.012 167.088 175.036 167.088C174.188 167.088 173.372 166.688 173.372 165.792ZM181.689 170.4L182.889 166.72H181.529L180.649 170.4H181.689ZM195.299 166.4V163.392C195.299 161.248 194.003 160.128 191.955 160.128C190.691 160.128 189.635 160.432 189.027 160.64V161.888C189.699 161.6 190.643 161.312 191.827 161.312C193.235 161.312 194.019 162.08 194.019 163.232V163.504C193.379 163.36 192.563 163.264 191.891 163.264C190.243 163.264 188.419 163.872 188.419 165.856C188.419 167.472 189.763 168.192 191.123 168.192C192.371 168.192 193.347 167.808 194.115 167.168C194.339 167.84 194.899 168.096 195.523 168.096C195.843 168.096 196.179 168.032 196.483 167.92V166.88C196.291 166.944 196.083 166.992 195.891 166.992C195.555 166.992 195.299 166.864 195.299 166.4ZM189.731 165.792C189.731 164.672 190.947 164.336 192.067 164.336C192.691 164.336 193.475 164.448 194.019 164.56V165.968C193.347 166.688 192.371 167.088 191.395 167.088C190.547 167.088 189.731 166.688 189.731 165.792ZM49.384 200V193.504H52.2V192.32H45.272V193.504H48.104V200H49.384ZM59.8146 198.4V195.392C59.8146 193.248 58.5186 192.128 56.4706 192.128C55.2066 192.128 54.1506 192.432 53.5426 192.64V193.888C54.2146 193.6 55.1586 193.312 56.3426 193.312C57.7506 193.312 58.5346 194.08 58.5346 195.232V195.504C57.8946 195.36 57.0786 195.264 56.4066 195.264C54.7586 195.264 52.9346 195.872 52.9346 197.856C52.9346 199.472 54.2786 200.192 55.6386 200.192C56.8866 200.192 57.8626 199.808 58.6306 199.168C58.8546 199.84 59.4146 200.096 60.0386 200.096C60.3586 200.096 60.6946 200.032 60.9986 199.92V198.88C60.8066 198.944 60.5986 198.992 60.4066 198.992C60.0706 198.992 59.8146 198.864 59.8146 198.4ZM54.2466 197.792C54.2466 196.672 55.4626 196.336 56.5826 196.336C57.2066 196.336 57.9906 196.448 58.5346 196.56V197.968C57.8626 198.688 56.8866 199.088 55.9106 199.088C55.0626 199.088 54.2466 198.688 54.2466 197.792ZM63.6515 200V196.704H65.1555L67.9715 200H69.4755L66.2115 196.144L69.1235 192.32H67.6355L65.2035 195.52H63.6515V192.32H62.3715V200H63.6515ZM81.5145 200L78.4585 196.144L81.1625 192.32H79.7385L77.4025 195.6H76.2345V192.32H74.9545V195.6H73.7865L71.4505 192.32H70.0265L72.7305 196.144L69.6745 200H71.1145L73.7225 196.784H74.9545V200H76.2345V196.784H77.4665L80.0745 200H81.5145ZM81.906 196.16C81.906 198.896 83.89 200.192 86.162 200.192C87.17 200.192 88.178 200 88.882 199.632V198.384C88.226 198.752 87.298 199.008 86.354 199.008C84.802 199.008 83.346 198.336 83.186 196.72H89.298C89.778 194.544 88.69 192.128 85.73 192.128C83.906 192.128 81.906 193.472 81.906 196.16ZM88.162 195.6H83.186C83.282 194.096 84.498 193.312 85.81 193.312C87.762 193.312 88.274 194.784 88.162 195.6ZM96.4328 200V193.504H100.881V200H102.161V192.32H95.1528V200H96.4328ZM104 196.16C104 198.784 106.016 200.192 108.096 200.192C110.192 200.192 112.192 198.784 112.192 196.16C112.192 193.536 110.192 192.128 108.096 192.128C106.016 192.128 104 193.536 104 196.16ZM110.912 196.16C110.912 197.936 109.664 198.976 108.096 198.976C106.528 198.976 105.28 197.936 105.28 196.16C105.28 194.384 106.528 193.344 108.096 193.344C109.664 193.344 110.912 194.384 110.912 196.16ZM113.5 196.192C113.5 198.928 115.596 200.192 117.612 200.192C118.572 200.192 119.388 200.016 120.108 199.664V198.384C119.468 198.768 118.62 199.008 117.788 199.008C116.284 199.008 114.78 198.128 114.78 196.16C114.78 194.144 116.332 193.312 117.82 193.312C118.636 193.312 119.452 193.552 120.028 194V192.752C119.372 192.32 118.524 192.128 117.66 192.128C115.66 192.128 113.5 193.392 113.5 196.192ZM125.181 200V193.504H127.997V192.32H121.069V193.504H123.901V200H125.181ZM128.672 196.16C128.672 198.784 130.688 200.192 132.768 200.192C134.864 200.192 136.864 198.784 136.864 196.16C136.864 193.536 134.864 192.128 132.768 192.128C130.688 192.128 128.672 193.536 128.672 196.16ZM135.584 196.16C135.584 197.936 134.336 198.976 132.768 198.976C131.2 198.976 129.952 197.936 129.952 196.16C129.952 194.384 131.2 193.344 132.768 193.344C134.336 193.344 135.584 194.384 135.584 196.16ZM139.468 200L141.564 197.312H143.724V200H145.004V192.32H141.228C139.356 192.32 138.348 193.472 138.348 194.816C138.348 195.888 138.988 196.832 140.188 197.184L137.964 200H139.468ZM139.628 194.816C139.628 193.968 140.268 193.472 141.34 193.472H143.724V196.16H141.34C140.268 196.16 139.628 195.664 139.628 194.816ZM148.652 200V196.752H153.1V200H154.38V192.32H153.1V195.568H148.652V192.32H147.372V200H148.652ZM158.027 200V196.752H162.475V200H163.755V192.32H162.475V195.568H158.027V192.32H156.747V200H158.027ZM169.77 200C171.642 200 172.746 198.928 172.746 197.504C172.746 196.08 171.642 195.008 169.77 195.008H167.402V192.32H166.122V200H169.77ZM167.402 196.16H169.61C170.73 196.16 171.45 196.592 171.45 197.504C171.45 198.416 170.73 198.848 169.61 198.848H167.402V196.16ZM175.514 200V192.32H174.234V200H175.514ZM183.663 190.464V189.312C182.863 189.84 182.207 190.016 181.423 190.016C180.639 190.016 179.983 189.84 179.183 189.312V190.464C179.903 190.976 180.655 191.136 181.423 191.136C182.191 191.136 182.943 190.976 183.663 190.464ZM178.975 200L183.679 194.384V200H184.959V192.32H183.871L179.167 197.936V192.32H177.887V200H178.975ZM47.464 232V228.704H48.968L51.784 232H53.288L50.024 228.144L52.936 224.32H51.448L49.016 227.52H47.464V224.32H46.184V232H47.464ZM53.6404 228.16C53.6404 230.784 55.6564 232.192 57.7364 232.192C59.8324 232.192 61.8324 230.784 61.8324 228.16C61.8324 225.536 59.8324 224.128 57.7364 224.128C55.6564 224.128 53.6404 225.536 53.6404 228.16ZM60.5524 228.16C60.5524 229.936 59.3044 230.976 57.7364 230.976C56.1684 230.976 54.9204 229.936 54.9204 228.16C54.9204 226.384 56.1684 225.344 57.7364 225.344C59.3044 225.344 60.5524 226.384 60.5524 228.16ZM66.1853 225.504H69.3053V232H70.5853V224.32H64.9373C64.7933 228.448 64.3453 231.04 62.9853 231.04C62.8253 231.04 62.6493 231.008 62.4733 230.944V231.952C62.8092 232.08 63.1133 232.128 63.4013 232.128C65.3853 232.128 65.9293 229.44 66.1853 225.504ZM74.0376 232L78.7416 226.384V232H80.0216V224.32H78.9336L74.2296 229.936V224.32H72.9496V232H74.0376ZM88.3871 232V224.32H87.1071V228.208C86.5151 228.448 85.9711 228.544 85.2031 228.544C83.9231 228.544 83.1391 228.176 83.1391 226.88V224.32H81.8591V226.976C81.8591 228.864 83.0591 229.728 84.8191 229.728C85.7791 229.728 86.4031 229.6 87.1071 229.328V232H88.3871ZM90.2341 228.16C90.2341 230.896 92.2181 232.192 94.4901 232.192C95.4981 232.192 96.5061 232 97.2101 231.632V230.384C96.5541 230.752 95.6261 231.008 94.6821 231.008C93.1301 231.008 91.6741 230.336 91.5141 228.72H97.6261C98.1061 226.544 97.0181 224.128 94.0581 224.128C92.2341 224.128 90.2341 225.472 90.2341 228.16ZM96.4901 227.6H91.5141C91.6101 226.096 92.8261 225.312 94.1381 225.312C96.0901 225.312 96.6021 226.784 96.4901 227.6ZM98.9685 228.192C98.9685 230.928 101.065 232.192 103.081 232.192C104.041 232.192 104.857 232.016 105.577 231.664V230.384C104.937 230.768 104.089 231.008 103.257 231.008C101.753 231.008 100.249 230.128 100.249 228.16C100.249 226.144 101.801 225.312 103.289 225.312C104.105 225.312 104.921 225.552 105.497 226V224.752C104.841 224.32 103.993 224.128 103.129 224.128C101.129 224.128 98.9685 225.392 98.9685 228.192ZM110.65 232V225.504H113.466V224.32H106.538V225.504H109.37V232H110.65ZM119.254 232C120.918 232 121.734 231.136 121.734 229.872C121.734 228.912 121.094 228.304 120.47 228.096C121.046 227.84 121.494 227.2 121.494 226.4C121.494 225.04 120.47 224.32 119.126 224.32H114.918V232H119.254ZM116.198 228.672H119.126C119.766 228.672 120.454 228.88 120.454 229.792C120.454 230.64 119.878 230.88 119.078 230.88H116.198V228.672ZM116.198 225.44H118.998C119.542 225.44 120.198 225.664 120.198 226.528C120.198 227.312 119.67 227.568 118.998 227.568H116.198V225.44ZM123.156 228.16C123.156 230.896 125.14 232.192 127.412 232.192C128.42 232.192 129.428 232 130.132 231.632V230.384C129.476 230.752 128.548 231.008 127.604 231.008C126.052 231.008 124.596 230.336 124.436 228.72H130.548C131.028 226.544 129.94 224.128 126.98 224.128C125.156 224.128 123.156 225.472 123.156 228.16ZM129.412 227.6H124.436C124.532 226.096 125.748 225.312 127.06 225.312C129.012 225.312 129.524 226.784 129.412 227.6ZM133.698 232V228.752H138.146V232H139.426V224.32H138.146V227.568H133.698V224.32H132.418V232H133.698ZM143.073 232V228.752H147.521V232H148.801V224.32H147.521V227.568H143.073V224.32H141.793V232H143.073ZM154.816 232C156.688 232 157.792 230.928 157.792 229.504C157.792 228.08 156.688 227.008 154.816 227.008H152.448V224.32H151.168V232H154.816ZM152.448 228.16H154.656C155.776 228.16 156.496 228.592 156.496 229.504C156.496 230.416 155.776 230.848 154.656 230.848H152.448V228.16ZM160.56 232V224.32H159.28V232H160.56ZM168.71 222.464V221.312C167.91 221.84 167.254 222.016 166.47 222.016C165.686 222.016 165.03 221.84 164.23 221.312V222.464C164.95 222.976 165.702 223.136 166.47 223.136C167.238 223.136 167.99 222.976 168.71 222.464ZM164.022 232L168.726 226.384V232H170.006V224.32H168.918L164.214 229.936V224.32H162.934V232H164.022ZM177.508 225.6V224.32H176.356V235.52H177.636V230.848C178.196 231.504 179.14 232.192 180.612 232.192C182.804 232.192 184.452 230.464 184.452 228.16C184.452 225.856 182.804 224.128 180.612 224.128C179.14 224.128 178.196 224.816 177.508 225.6ZM183.172 228.16C183.172 229.92 181.956 231.008 180.468 231.008C179.092 231.008 178.068 230.112 177.636 229.12V227.2C178.068 226.208 179.092 225.312 180.468 225.312C181.956 225.312 183.172 226.4 183.172 228.16ZM185.765 228.16C185.765 230.784 187.781 232.192 189.861 232.192C191.957 232.192 193.957 230.784 193.957 228.16C193.957 225.536 191.957 224.128 189.861 224.128C187.781 224.128 185.765 225.536 185.765 228.16ZM192.677 228.16C192.677 229.936 191.429 230.976 189.861 230.976C188.293 230.976 187.045 229.936 187.045 228.16C187.045 226.384 188.293 225.344 189.861 225.344C191.429 225.344 192.677 226.384 192.677 228.16ZM195.265 228.192C195.265 230.928 197.361 232.192 199.377 232.192C200.337 232.192 201.153 232.016 201.873 231.664V230.384C201.233 230.768 200.385 231.008 199.553 231.008C198.049 231.008 196.545 230.128 196.545 228.16C196.545 226.144 198.097 225.312 199.585 225.312C200.401 225.312 201.217 225.552 201.793 226V224.752C201.137 224.32 200.289 224.128 199.425 224.128C197.425 224.128 195.265 225.392 195.265 228.192ZM206.947 232V225.504H209.763V224.32H202.835V225.504H205.667V232H206.947Z" fill="black"/>
<g clip-path="url(#clip0_96182:387)">
<path d="M82.95 98.4074H65.2875C56.375 98.4074 49.125 90.9308 49.125 81.7398V65.9359C49.125 64.9047 49.9375 64.0797 50.925 64.0797C51.9125 64.0797 52.725 64.9176 52.725 65.9359V81.7527C52.725 88.8941 58.35 94.6949 65.275 94.6949H82.9375C83.9375 94.6949 84.7375 95.5328 84.7375 96.5512C84.75 97.5824 83.95 98.4074 82.95 98.4074Z" fill="#2D527C"/>
<path d="M93.4625 97.5824C92.7125 97.5824 92.025 97.1055 91.7625 96.332C91.4375 95.3652 91.925 94.3082 92.8625 93.9601C97.8875 92.1426 101.262 87.2312 101.262 81.7398V79.8707C101.262 78.8394 102.075 78.0144 103.062 78.0144C104.05 78.0144 104.862 78.8523 104.862 79.8707V81.7398C104.862 88.8039 100.525 95.1332 94.05 97.4664C93.8625 97.5437 93.6625 97.5824 93.4625 97.5824Z" fill="#2D527C"/>
<path d="M103.588 72.0719H50.4125C48.425 72.0719 46.8125 70.409 46.8125 68.3594C46.8125 66.3098 48.425 64.6469 50.4125 64.6469H103.6C105.587 64.6469 107.2 66.3098 107.2 68.3594C107.2 70.409 105.588 72.0719 103.588 72.0719Z" fill="#CEE8FA"/>
<path d="M103.588 73.9281H50.4125C47.425 73.9281 45 71.4274 45 68.3465C45 65.2656 47.425 62.7649 50.4125 62.7649H103.6C106.587 62.7649 109.012 65.2656 109.012 68.3465C109.012 71.4274 106.575 73.9281 103.588 73.9281ZM50.4125 66.4903C49.4125 66.4903 48.6125 67.3281 48.6125 68.3465C48.6125 69.3649 49.425 70.2027 50.4125 70.2027H103.6C104.6 70.2027 105.4 69.3649 105.4 68.3465C105.4 67.3281 104.587 66.4903 103.6 66.4903H50.4125Z" fill="#2D527C"/>
<path d="M59.2375 101.901C60.9772 101.901 62.3875 100.446 62.3875 98.6523C62.3875 96.8582 60.9772 95.4039 59.2375 95.4039C57.4978 95.4039 56.0875 96.8582 56.0875 98.6523C56.0875 100.446 57.4978 101.901 59.2375 101.901Z" fill="#CEE8FA"/>
<path d="M59.2375 103.77C56.5 103.77 54.275 101.475 54.275 98.6523C54.275 95.8293 56.5 93.5347 59.2375 93.5347C61.975 93.5347 64.2 95.8293 64.2 98.6523C64.2 101.475 61.975 103.77 59.2375 103.77ZM59.2375 97.2601C58.4875 97.2601 57.8875 97.8918 57.8875 98.6523C57.8875 99.4129 58.5 100.045 59.2375 100.045C59.975 100.045 60.5875 99.4129 60.5875 98.6523C60.5875 97.8918 59.9875 97.2601 59.2375 97.2601Z" fill="#2D527C"/>
<path d="M94.7626 101.901C96.5023 101.901 97.9126 100.446 97.9126 98.6523C97.9126 96.8582 96.5023 95.4039 94.7626 95.4039C93.0229 95.4039 91.6125 96.8582 91.6125 98.6523C91.6125 100.446 93.0229 101.901 94.7626 101.901Z" fill="#CEE8FA"/>
<path d="M94.7626 103.77C92.0251 103.77 89.8 101.475 89.8 98.6523C89.8 95.8293 92.0251 93.5347 94.7626 93.5347C97.5001 93.5347 99.7251 95.8293 99.7251 98.6523C99.7251 101.475 97.4876 103.77 94.7626 103.77ZM94.7626 97.2601C94.0126 97.2601 93.4126 97.8918 93.4126 98.6523C93.4126 99.4129 94.0251 100.045 94.7626 100.045C95.5001 100.045 96.1126 99.4129 96.1126 98.6523C96.1126 97.8918 95.5001 97.2601 94.7626 97.2601Z" fill="#2D527C"/>
<path d="M85.425 51.434H68.575C67.575 51.434 66.775 50.5961 66.775 49.5777C66.775 48.5594 67.5875 47.7215 68.575 47.7215H85.4375C86.4375 47.7215 87.2375 48.5594 87.2375 49.5777C87.2375 50.5961 86.425 51.434 85.425 51.434Z" fill="#F0BF5F"/>
<path d="M86.0125 55.0562C85.0125 55.0562 84.2125 54.2183 84.2125 53.2V44.0863C84.2125 43.0551 85.025 42.2301 86.0125 42.2301C87 42.2301 87.8125 43.0679 87.8125 44.0863V53.2C87.8125 54.2312 87.0125 55.0562 86.0125 55.0562Z" fill="#F0BF5F"/>
<path d="M89.2625 45.9556H82.775C81.775 45.9556 80.975 45.1177 80.975 44.0994C80.975 43.081 81.7875 42.2431 82.775 42.2431H89.2625C90.2625 42.2431 91.0625 43.081 91.0625 44.0994C91.0625 45.1177 90.25 45.9556 89.2625 45.9556Z" fill="#F0BF5F"/>
<path d="M67.9875 55.0562C66.9875 55.0562 66.1875 54.2183 66.1875 53.2V44.0863C66.1875 43.0551 67 42.2301 67.9875 42.2301C68.975 42.2301 69.7875 43.0679 69.7875 44.0863V53.2C69.7875 54.2312 68.9875 55.0562 67.9875 55.0562Z" fill="#F0BF5F"/>
<path d="M71.225 45.9575H64.7375C63.7375 45.9575 62.9375 45.1196 62.9375 44.1012C62.9375 43.0829 63.75 42.245 64.7375 42.245H71.225C72.225 42.245 73.025 43.0829 73.025 44.1012C73.025 45.1196 72.225 45.9575 71.225 45.9575Z" fill="#F0BF5F"/>
<path d="M77 59.3359C76 59.3359 75.2 58.498 75.2 57.4797V49.7582C75.2 48.7269 76.0125 47.9019 77 47.9019C77.9875 47.9019 78.7999 48.7398 78.7999 49.7582V57.4797C78.7999 58.498 78 59.3359 77 59.3359Z" fill="#F0BF5F"/>
<path d="M69.4625 83.1578H59.75C58.525 83.1578 57.525 82.1266 57.525 80.8633V64.6211H71.675V80.8633C71.675 82.1395 70.6875 83.1578 69.4625 83.1578Z" fill="#CEE8FA"/>
<path d="M69.4625 85.027H59.75C57.5375 85.027 55.725 83.1707 55.725 80.8762V64.634C55.725 63.6028 56.5375 62.7778 57.525 62.7778H71.675C72.675 62.7778 73.475 63.6156 73.475 64.634V80.8762C73.4875 83.1578 71.675 85.027 69.4625 85.027ZM59.3375 66.4903V80.8762C59.3375 81.1082 59.525 81.3016 59.75 81.3016H69.4625C69.6875 81.3016 69.875 81.1082 69.875 80.8762V66.4903H59.3375Z" fill="#2D527C"/>
</g>
<defs>
<clipPath id="clip0_96182:387">
<rect width="64" height="66" fill="white" transform="translate(45 40)"/>
</clipPath>
</defs>
</svg>
