<svg width="275" height="275" viewBox="0 0 275 275" fill="none" xmlns="http://www.w3.org/2000/svg">
<rect width="275" height="275" rx="15" fill="white"/>
<path d="M45.224 124.8V126.08H49.16V136H50.504V126.08H54.44V124.8H45.224ZM60.3459 134.4V131.392C60.3459 129.248 59.0499 128.128 57.0019 128.128C55.7379 128.128 54.6819 128.432 54.0739 128.64V129.888C54.7459 129.6 55.6899 129.312 56.8739 129.312C58.2819 129.312 59.0659 130.08 59.0659 131.232V131.504C58.4259 131.36 57.6099 131.264 56.9379 131.264C55.2899 131.264 53.4659 131.872 53.4659 133.856C53.4659 135.472 54.8099 136.192 56.1699 136.192C57.4179 136.192 58.3939 135.808 59.1619 135.168C59.3859 135.84 59.9459 136.096 60.5699 136.096C60.8899 136.096 61.2259 136.032 61.5299 135.92V134.88C61.3379 134.944 61.1299 134.992 60.9379 134.992C60.6019 134.992 60.3459 134.864 60.3459 134.4ZM54.7779 133.792C54.7779 132.672 55.9939 132.336 57.1139 132.336C57.7379 132.336 58.5219 132.448 59.0659 132.56V133.968C58.3939 134.688 57.4179 135.088 56.4419 135.088C55.5939 135.088 54.7779 134.688 54.7779 133.792ZM64.1828 136V132.704H65.6868L68.5028 136H70.0068L66.7428 132.144L69.6548 128.32H68.1668L65.7348 131.52H64.1828V128.32H62.9028V136H64.1828ZM72.3658 136L77.0698 130.384V136H78.3498V128.32H77.2618L72.5578 133.936V128.32H71.2778V136H72.3658ZM81.9313 136V130.208L84.4273 134H85.3873L87.8833 130.208V136H89.0993V128.32H87.7073L84.9073 132.576L82.1073 128.32H80.7153V136H81.9313ZM94.9216 132.16C94.9216 134.784 96.9376 136.192 99.0176 136.192C101.114 136.192 103.114 134.784 103.114 132.16C103.114 129.536 101.114 128.128 99.0176 128.128C96.9376 128.128 94.9216 129.536 94.9216 132.16ZM101.834 132.16C101.834 133.936 100.586 134.976 99.0176 134.976C97.4496 134.976 96.2016 133.936 96.2016 132.16C96.2016 130.384 97.4496 129.344 99.0176 129.344C100.586 129.344 101.834 130.384 101.834 132.16ZM112.454 132.384C112.454 130.096 110.678 128.64 108.678 128.64C107.478 128.64 106.39 129.232 105.846 130.08C106.166 129.104 106.598 128.064 107.67 127.424C109.43 126.4 110.662 126.736 111.766 125.952V124.608C110.646 125.696 109.126 125.12 106.918 126.48C105.542 127.344 104.55 129.12 104.55 131.696C104.55 134.608 106.214 136.192 108.534 136.192C110.854 136.192 112.454 134.784 112.454 132.384ZM105.83 132.416C105.83 131.12 106.902 129.856 108.502 129.856C110.182 129.856 111.174 130.96 111.174 132.416C111.174 133.872 110.182 134.976 108.502 134.976C106.886 134.976 105.83 133.872 105.83 132.416ZM115.461 129.6V128.32H114.309V139.52H115.589V134.848C116.149 135.504 117.093 136.192 118.565 136.192C120.757 136.192 122.405 134.464 122.405 132.16C122.405 129.856 120.757 128.128 118.565 128.128C117.093 128.128 116.149 128.816 115.461 129.6ZM121.125 132.16C121.125 133.92 119.909 135.008 118.421 135.008C117.045 135.008 116.021 134.112 115.589 133.12V131.2C116.021 130.208 117.045 129.312 118.421 129.312C119.909 129.312 121.125 130.4 121.125 132.16ZM130.487 134.4V131.392C130.487 129.248 129.191 128.128 127.143 128.128C125.879 128.128 124.823 128.432 124.215 128.64V129.888C124.887 129.6 125.831 129.312 127.015 129.312C128.423 129.312 129.207 130.08 129.207 131.232V131.504C128.567 131.36 127.751 131.264 127.079 131.264C125.431 131.264 123.607 131.872 123.607 133.856C123.607 135.472 124.951 136.192 126.311 136.192C127.559 136.192 128.535 135.808 129.303 135.168C129.527 135.84 130.087 136.096 130.711 136.096C131.031 136.096 131.367 136.032 131.671 135.92V134.88C131.479 134.944 131.271 134.992 131.079 134.992C130.743 134.992 130.487 134.864 130.487 134.4ZM124.919 133.792C124.919 132.672 126.135 132.336 127.255 132.336C127.879 132.336 128.663 132.448 129.207 132.56V133.968C128.535 134.688 127.559 135.088 126.583 135.088C125.735 135.088 124.919 134.688 124.919 133.792ZM138.787 133.936C138.787 132.944 138.067 132.288 137.203 132.064C138.067 131.872 138.627 131.264 138.627 130.336C138.627 128.992 137.523 128.112 135.379 128.112C134.355 128.112 133.395 128.352 132.627 128.704V129.904C133.331 129.552 134.323 129.296 135.235 129.296C136.435 129.296 137.347 129.664 137.347 130.512C137.347 131.248 136.675 131.504 135.811 131.504H134.131V132.688H135.811C136.579 132.688 137.507 132.848 137.507 133.792C137.507 134.784 136.387 135.008 135.171 135.008C134.243 135.008 133.155 134.736 132.499 134.384V135.6C133.219 135.952 134.243 136.192 135.331 136.192C137.459 136.192 138.787 135.392 138.787 133.936ZM140.14 132.16C140.14 134.784 142.156 136.192 144.236 136.192C146.332 136.192 148.332 134.784 148.332 132.16C148.332 129.536 146.332 128.128 144.236 128.128C142.156 128.128 140.14 129.536 140.14 132.16ZM147.052 132.16C147.052 133.936 145.804 134.976 144.236 134.976C142.668 134.976 141.42 133.936 141.42 132.16C141.42 130.384 142.668 129.344 144.236 129.344C145.804 129.344 147.052 130.384 147.052 132.16ZM151.384 136V130.208L153.88 134H154.84L157.336 130.208V136H158.552V128.32H157.16L154.36 132.576L151.56 128.32H150.168V136H151.384ZM47.336 161.6V160.32H46.184V171.52H47.464V166.848C48.024 167.504 48.968 168.192 50.44 168.192C52.632 168.192 54.28 166.464 54.28 164.16C54.28 161.856 52.632 160.128 50.44 160.128C48.968 160.128 48.024 160.816 47.336 161.6ZM53 164.16C53 165.92 51.784 167.008 50.296 167.008C48.92 167.008 47.896 166.112 47.464 165.12V163.2C47.896 162.208 48.92 161.312 50.296 161.312C51.784 161.312 53 162.4 53 164.16ZM55.5935 164.16C55.5935 166.896 57.5775 168.192 59.8495 168.192C60.8575 168.192 61.8655 168 62.5695 167.632V166.384C61.9135 166.752 60.9855 167.008 60.0415 167.008C58.4895 167.008 57.0335 166.336 56.8735 164.72H62.9855C63.4655 162.544 62.3775 160.128 59.4175 160.128C57.5935 160.128 55.5935 161.472 55.5935 164.16ZM61.8495 163.6H56.8735C56.9695 162.096 58.1855 161.312 59.4975 161.312C61.4495 161.312 61.9615 162.784 61.8495 163.6ZM71.0959 166.4V163.392C71.0959 161.248 69.7999 160.128 67.7519 160.128C66.4879 160.128 65.4319 160.432 64.8239 160.64V161.888C65.4959 161.6 66.4399 161.312 67.6239 161.312C69.0319 161.312 69.8159 162.08 69.8159 163.232V163.504C69.1759 163.36 68.3599 163.264 67.6879 163.264C66.0399 163.264 64.2159 163.872 64.2159 165.856C64.2159 167.472 65.5599 168.192 66.9199 168.192C68.1679 168.192 69.1439 167.808 69.9119 167.168C70.1359 167.84 70.6959 168.096 71.3199 168.096C71.6399 168.096 71.9759 168.032 72.2799 167.92V166.88C72.0879 166.944 71.8799 166.992 71.6879 166.992C71.3519 166.992 71.0959 166.864 71.0959 166.4ZM65.5279 165.792C65.5279 164.672 66.7439 164.336 67.8639 164.336C68.4879 164.336 69.2719 164.448 69.8159 164.56V165.968C69.1439 166.688 68.1679 167.088 67.1919 167.088C66.3439 167.088 65.5279 166.688 65.5279 165.792ZM76.3728 161.504H79.4928V168H80.7728V160.32H75.1248C74.9808 164.448 74.5328 167.04 73.1728 167.04C73.0128 167.04 72.8368 167.008 72.6608 166.944V167.952C72.9967 168.08 73.3008 168.128 73.5888 168.128C75.5728 168.128 76.1168 165.44 76.3728 161.504ZM84.2251 168L88.9291 162.384V168H90.2091V160.32H89.1211L84.4171 165.936V160.32H83.1371V168H84.2251ZM98.3186 165.936C98.3186 164.944 97.5986 164.288 96.7346 164.064C97.5986 163.872 98.1586 163.264 98.1586 162.336C98.1586 160.992 97.0546 160.112 94.9106 160.112C93.8866 160.112 92.9266 160.352 92.1586 160.704V161.904C92.8626 161.552 93.8546 161.296 94.7666 161.296C95.9666 161.296 96.8786 161.664 96.8786 162.512C96.8786 163.248 96.2066 163.504 95.3426 163.504H93.6626V164.688H95.3426C96.1106 164.688 97.0386 164.848 97.0386 165.792C97.0386 166.784 95.9186 167.008 94.7026 167.008C93.7746 167.008 92.6866 166.736 92.0306 166.384V167.6C92.7506 167.952 93.7746 168.192 94.8626 168.192C96.9906 168.192 98.3186 167.392 98.3186 165.936ZM106.44 166.4V163.392C106.44 161.248 105.144 160.128 103.096 160.128C101.832 160.128 100.776 160.432 100.168 160.64V161.888C100.84 161.6 101.784 161.312 102.968 161.312C104.376 161.312 105.16 162.08 105.16 163.232V163.504C104.52 163.36 103.704 163.264 103.032 163.264C101.384 163.264 99.5596 163.872 99.5596 165.856C99.5596 167.472 100.904 168.192 102.264 168.192C103.512 168.192 104.488 167.808 105.256 167.168C105.48 167.84 106.04 168.096 106.664 168.096C106.984 168.096 107.32 168.032 107.624 167.92V166.88C107.432 166.944 107.224 166.992 107.032 166.992C106.696 166.992 106.44 166.864 106.44 166.4ZM100.872 165.792C100.872 164.672 102.088 164.336 103.208 164.336C103.832 164.336 104.616 164.448 105.16 164.56V165.968C104.488 166.688 103.512 167.088 102.536 167.088C101.688 167.088 100.872 166.688 100.872 165.792ZM116.901 170.08V166.816H115.765V160.32H114.485V166.816H110.277V160.32H108.997V168H115.653V170.08H116.901ZM119.694 168L124.398 162.384V168H125.678V160.32H124.59L119.886 165.936V160.32H118.606V168H119.694ZM128.811 168L130.907 165.312H133.067V168H134.347V160.32H130.571C128.699 160.32 127.691 161.472 127.691 162.816C127.691 163.888 128.331 164.832 129.531 165.184L127.307 168H128.811ZM128.971 162.816C128.971 161.968 129.611 161.472 130.683 161.472H133.067V164.16H130.683C129.611 164.16 128.971 163.664 128.971 162.816ZM141.98 168V161.504H146.428V168H147.708V160.32H140.7V168H141.98ZM152.795 161.504H155.915V168H157.195V160.32H151.547C151.403 164.448 150.955 167.04 149.595 167.04C149.435 167.04 149.259 167.008 149.083 166.944V167.952C149.419 168.08 149.723 168.128 150.011 168.128C151.995 168.128 152.539 165.44 152.795 161.504ZM165.799 166.4V163.392C165.799 161.248 164.503 160.128 162.455 160.128C161.191 160.128 160.135 160.432 159.527 160.64V161.888C160.199 161.6 161.143 161.312 162.327 161.312C163.735 161.312 164.519 162.08 164.519 163.232V163.504C163.879 163.36 163.063 163.264 162.391 163.264C160.743 163.264 158.919 163.872 158.919 165.856C158.919 167.472 160.263 168.192 161.623 168.192C162.871 168.192 163.847 167.808 164.615 167.168C164.839 167.84 165.399 168.096 166.023 168.096C166.343 168.096 166.679 168.032 166.983 167.92V166.88C166.791 166.944 166.583 166.992 166.391 166.992C166.055 166.992 165.799 166.864 165.799 166.4ZM160.231 165.792C160.231 164.672 161.447 164.336 162.567 164.336C163.191 164.336 163.975 164.448 164.519 164.56V165.968C163.847 166.688 162.871 167.088 161.895 167.088C161.047 167.088 160.231 166.688 160.231 165.792ZM169.636 168V164.752H174.084V168H175.364V160.32H174.084V163.568H169.636V160.32H168.356V168H169.636ZM177.203 164.16C177.203 166.784 179.219 168.192 181.299 168.192C183.395 168.192 185.395 166.784 185.395 164.16C185.395 161.536 183.395 160.128 181.299 160.128C179.219 160.128 177.203 161.536 177.203 164.16ZM184.115 164.16C184.115 165.936 182.867 166.976 181.299 166.976C179.731 166.976 178.483 165.936 178.483 164.16C178.483 162.384 179.731 161.344 181.299 161.344C182.867 161.344 184.115 162.384 184.115 164.16ZM191.567 168C193.231 168 194.047 167.136 194.047 165.872C194.047 164.912 193.407 164.304 192.783 164.096C193.359 163.84 193.807 163.2 193.807 162.4C193.807 161.04 192.783 160.32 191.439 160.32H187.231V168H191.567ZM188.511 164.672H191.439C192.079 164.672 192.767 164.88 192.767 165.792C192.767 166.64 192.191 166.88 191.391 166.88H188.511V164.672ZM188.511 161.44H191.311C191.855 161.44 192.511 161.664 192.511 162.528C192.511 163.312 191.983 163.568 191.311 163.568H188.511V161.44ZM199.645 168C201.517 168 202.621 166.928 202.621 165.504C202.621 164.08 201.517 163.008 199.645 163.008H197.277V160.32H195.997V168H199.645ZM197.277 164.16H199.485C200.605 164.16 201.325 164.592 201.325 165.504C201.325 166.416 200.605 166.848 199.485 166.848H197.277V164.16ZM205.389 168V160.32H204.109V168H205.389ZM212.578 160.32L210.498 163.152L208.402 160.32H206.93L209.762 164.048L206.77 168H208.242L210.498 164.96L212.738 168H214.21L211.234 164.048L214.05 160.32H212.578ZM51.928 197.936C51.928 196.944 51.208 196.288 50.344 196.064C51.208 195.872 51.768 195.264 51.768 194.336C51.768 192.992 50.664 192.112 48.52 192.112C47.496 192.112 46.536 192.352 45.768 192.704V193.904C46.472 193.552 47.464 193.296 48.376 193.296C49.576 193.296 50.488 193.664 50.488 194.512C50.488 195.248 49.816 195.504 48.952 195.504H47.272V196.688H48.952C49.72 196.688 50.648 196.848 50.648 197.792C50.648 198.784 49.528 199.008 48.312 199.008C47.384 199.008 46.296 198.736 45.64 198.384V199.6C46.36 199.952 47.384 200.192 48.472 200.192C50.6 200.192 51.928 199.392 51.928 197.936ZM60.049 198.4V195.392C60.049 193.248 58.753 192.128 56.705 192.128C55.441 192.128 54.385 192.432 53.777 192.64V193.888C54.449 193.6 55.393 193.312 56.577 193.312C57.985 193.312 58.769 194.08 58.769 195.232V195.504C58.129 195.36 57.313 195.264 56.641 195.264C54.993 195.264 53.169 195.872 53.169 197.856C53.169 199.472 54.513 200.192 55.873 200.192C57.121 200.192 58.097 199.808 58.865 199.168C59.089 199.84 59.649 200.096 60.273 200.096C60.593 200.096 60.929 200.032 61.233 199.92V198.88C61.041 198.944 60.833 198.992 60.641 198.992C60.305 198.992 60.049 198.864 60.049 198.4ZM54.481 197.792C54.481 196.672 55.697 196.336 56.817 196.336C57.441 196.336 58.225 196.448 58.769 196.56V197.968C58.097 198.688 57.121 199.088 56.145 199.088C55.297 199.088 54.481 198.688 54.481 197.792ZM63.0859 202.08V200H69.7739V202.08H71.0219V198.848H69.9019V192.32H64.1739C64.2059 195.184 63.8219 197.152 62.8619 198.848H61.8379V202.08H63.0859ZM65.4059 193.472H68.6219V198.848H64.2539C64.9579 197.376 65.3419 195.776 65.4059 193.472ZM78.9709 198.4V195.392C78.9709 193.248 77.6749 192.128 75.6269 192.128C74.3629 192.128 73.3069 192.432 72.6989 192.64V193.888C73.3709 193.6 74.3149 193.312 75.4989 193.312C76.9069 193.312 77.6909 194.08 77.6909 195.232V195.504C77.0509 195.36 76.2349 195.264 75.5629 195.264C73.9149 195.264 72.0909 195.872 72.0909 197.856C72.0909 199.472 73.4349 200.192 74.7949 200.192C76.0429 200.192 77.0189 199.808 77.7869 199.168C78.0109 199.84 78.5709 200.096 79.1949 200.096C79.5149 200.096 79.8509 200.032 80.1549 199.92V198.88C79.9629 198.944 79.7549 198.992 79.5629 198.992C79.2269 198.992 78.9709 198.864 78.9709 198.4ZM73.4029 197.792C73.4029 196.672 74.6189 196.336 75.7389 196.336C76.3629 196.336 77.1469 196.448 77.6909 196.56V197.968C77.0189 198.688 76.0429 199.088 75.0669 199.088C74.2189 199.088 73.4029 198.688 73.4029 197.792ZM82.8078 200V196.752H87.2558V200H88.5358V192.32H87.2558V195.568H82.8078V192.32H81.5278V200H82.8078ZM91.9908 200L96.6948 194.384V200H97.9748V192.32H96.8868L92.1828 197.936V192.32H90.9028V200H91.9908ZM106.116 190.464V189.312C105.316 189.84 104.66 190.016 103.876 190.016C103.092 190.016 102.436 189.84 101.636 189.312V190.464C102.356 190.976 103.108 191.136 103.876 191.136C104.644 191.136 105.396 190.976 106.116 190.464ZM101.428 200L106.132 194.384V200H107.412V192.32H106.324L101.62 197.936V192.32H100.34V200H101.428ZM114.85 200L119.554 194.384V200H120.834V192.32H119.746L115.042 197.936V192.32H113.762V200H114.85ZM124.48 200V193.504H128.816V192.32H123.2V200H124.48ZM131.43 193.6V192.32H130.278V203.52H131.558V198.848C132.118 199.504 133.062 200.192 134.534 200.192C136.726 200.192 138.374 198.464 138.374 196.16C138.374 193.856 136.726 192.128 134.534 192.128C133.062 192.128 132.118 192.816 131.43 193.6ZM137.094 196.16C137.094 197.92 135.878 199.008 134.39 199.008C133.014 199.008 131.99 198.112 131.558 197.12V195.2C131.99 194.208 133.014 193.312 134.39 193.312C135.878 193.312 137.094 194.4 137.094 196.16ZM146.455 198.4V195.392C146.455 193.248 145.159 192.128 143.111 192.128C141.847 192.128 140.791 192.432 140.183 192.64V193.888C140.855 193.6 141.799 193.312 142.983 193.312C144.391 193.312 145.175 194.08 145.175 195.232V195.504C144.535 195.36 143.719 195.264 143.047 195.264C141.399 195.264 139.575 195.872 139.575 197.856C139.575 199.472 140.919 200.192 142.279 200.192C143.527 200.192 144.503 199.808 145.271 199.168C145.495 199.84 146.055 200.096 146.679 200.096C146.999 200.096 147.335 200.032 147.639 199.92V198.88C147.447 198.944 147.239 198.992 147.047 198.992C146.711 198.992 146.455 198.864 146.455 198.4ZM140.887 197.792C140.887 196.672 142.103 196.336 143.223 196.336C143.847 196.336 144.631 196.448 145.175 196.56V197.968C144.503 198.688 143.527 199.088 142.551 199.088C141.703 199.088 140.887 198.688 140.887 197.792ZM148.484 196.16C148.484 198.896 150.468 200.192 152.74 200.192C153.748 200.192 154.756 200 155.46 199.632V198.384C154.804 198.752 153.876 199.008 152.932 199.008C151.38 199.008 149.924 198.336 149.764 196.72H155.876C156.356 194.544 155.268 192.128 152.308 192.128C150.484 192.128 148.484 193.472 148.484 196.16ZM154.74 195.6H149.764C149.86 194.096 151.076 193.312 152.388 193.312C154.34 193.312 154.852 194.784 154.74 195.6ZM160.79 200V193.504H163.606V192.32H156.678V193.504H159.51V200H160.79ZM173.379 200C175.043 200 175.859 199.136 175.859 197.872C175.859 196.912 175.219 196.304 174.595 196.096C175.171 195.84 175.619 195.2 175.619 194.4C175.619 193.04 174.595 192.32 173.251 192.32H169.043V200H173.379ZM170.323 196.672H173.251C173.891 196.672 174.579 196.88 174.579 197.792C174.579 198.64 174.003 198.88 173.203 198.88H170.323V196.672ZM170.323 193.44H173.123C173.667 193.44 174.323 193.664 174.323 194.528C174.323 195.312 173.795 195.568 173.123 195.568H170.323V193.44ZM184.049 198.4V195.392C184.049 193.248 182.753 192.128 180.705 192.128C179.441 192.128 178.385 192.432 177.777 192.64V193.888C178.449 193.6 179.393 193.312 180.577 193.312C181.985 193.312 182.769 194.08 182.769 195.232V195.504C182.129 195.36 181.313 195.264 180.641 195.264C178.993 195.264 177.169 195.872 177.169 197.856C177.169 199.472 178.513 200.192 179.873 200.192C181.121 200.192 182.097 199.808 182.865 199.168C183.089 199.84 183.649 200.096 184.273 200.096C184.593 200.096 184.929 200.032 185.233 199.92V198.88C185.041 198.944 184.833 198.992 184.641 198.992C184.305 198.992 184.049 198.864 184.049 198.4ZM178.481 197.792C178.481 196.672 179.697 196.336 180.817 196.336C181.441 196.336 182.225 196.448 182.769 196.56V197.968C182.097 198.688 181.121 199.088 180.145 199.088C179.297 199.088 178.481 198.688 178.481 197.792ZM197.374 200L194.318 196.144L197.022 192.32H195.598L193.262 195.6H192.094V192.32H190.814V195.6H189.646L187.31 192.32H185.886L188.59 196.144L185.534 200H186.974L189.582 196.784H190.814V200H192.094V196.784H193.326L195.934 200H197.374ZM199.948 200V196.752H204.396V200H205.676V192.32H204.396V195.568H199.948V192.32H198.668V200H199.948ZM211.275 198.544L208.379 192.32H207.019L210.667 200.016L210.379 200.72C209.883 201.968 209.259 202.592 208.395 202.592C208.171 202.592 207.947 202.56 207.723 202.496V203.6C208.011 203.68 208.283 203.712 208.555 203.712C209.675 203.712 210.651 203.008 211.451 201.152L215.227 192.32H213.867L211.275 198.544ZM227.981 196.16C227.981 193.536 225.981 192.128 223.885 192.128C221.965 192.128 220.093 193.344 219.821 195.568H217.933V192.32H216.653V200H217.933V196.752H219.821C220.093 198.976 221.965 200.192 223.885 200.192C225.981 200.192 227.981 198.784 227.981 196.16ZM221.069 196.16C221.069 194.384 222.317 193.344 223.885 193.344C225.453 193.344 226.701 194.384 226.701 196.16C226.701 197.936 225.453 198.976 223.885 198.976C222.317 198.976 221.069 197.936 221.069 196.16ZM47.336 225.6V224.32H46.184V235.52H47.464V230.848C48.024 231.504 48.968 232.192 50.44 232.192C52.632 232.192 54.28 230.464 54.28 228.16C54.28 225.856 52.632 224.128 50.44 224.128C48.968 224.128 48.024 224.816 47.336 225.6ZM53 228.16C53 229.92 51.784 231.008 50.296 231.008C48.92 231.008 47.896 230.112 47.464 229.12V227.2C47.896 226.208 48.92 225.312 50.296 225.312C51.784 225.312 53 226.4 53 228.16ZM55.5935 228.16C55.5935 230.784 57.6095 232.192 59.6895 232.192C61.7855 232.192 63.7855 230.784 63.7855 228.16C63.7855 225.536 61.7855 224.128 59.6895 224.128C57.6095 224.128 55.5935 225.536 55.5935 228.16ZM62.5055 228.16C62.5055 229.936 61.2575 230.976 59.6895 230.976C58.1215 230.976 56.8735 229.936 56.8735 228.16C56.8735 226.384 58.1215 225.344 59.6895 225.344C61.2575 225.344 62.5055 226.384 62.5055 228.16ZM68.1384 225.504H71.2584V232H72.5384V224.32H66.8904C66.7464 228.448 66.2984 231.04 64.9384 231.04C64.7784 231.04 64.6024 231.008 64.4264 230.944V231.952C64.7624 232.08 65.0664 232.128 65.3544 232.128C67.3384 232.128 67.8824 229.44 68.1384 225.504ZM78.5508 232C80.4228 232 81.5268 230.928 81.5268 229.504C81.5268 228.08 80.4228 227.008 78.5508 227.008H76.1828V224.32H74.9028V232H78.5508ZM76.1828 228.16H78.3908C79.5108 228.16 80.2308 228.592 80.2308 229.504C80.2308 230.416 79.5108 230.848 78.3908 230.848H76.1828V228.16ZM87.6328 234.08V232H94.3208V234.08H95.5688V230.848H94.4488V224.32H88.7208C88.7528 227.184 88.3688 229.152 87.4088 230.848H86.3848V234.08H87.6328ZM89.9528 225.472H93.1688V230.848H88.8008C89.5048 229.376 89.8888 227.776 89.9528 225.472ZM99.9978 225.504H103.118V232H104.398V224.32H98.7498C98.6058 228.448 98.1578 231.04 96.7978 231.04C96.6378 231.04 96.4618 231.008 96.2858 230.944V231.952C96.6217 232.08 96.9258 232.128 97.2138 232.128C99.1978 232.128 99.7418 229.44 99.9978 225.504ZM107.53 232L109.626 229.312H111.786V232H113.066V224.32H109.29C107.418 224.32 106.41 225.472 106.41 226.816C106.41 227.888 107.05 228.832 108.25 229.184L106.026 232H107.53ZM107.69 226.816C107.69 225.968 108.33 225.472 109.402 225.472H111.786V228.16H109.402C108.33 228.16 107.69 227.664 107.69 226.816ZM120.698 232V225.504H125.146V232H126.426V224.32H119.418V232H120.698ZM128.265 228.16C128.265 230.784 130.281 232.192 132.361 232.192C134.457 232.192 136.457 230.784 136.457 228.16C136.457 225.536 134.457 224.128 132.361 224.128C130.281 224.128 128.265 225.536 128.265 228.16ZM135.177 228.16C135.177 229.936 133.929 230.976 132.361 230.976C130.793 230.976 129.545 229.936 129.545 228.16C129.545 226.384 130.793 225.344 132.361 225.344C133.929 225.344 135.177 226.384 135.177 228.16ZM139.573 232V228.752H144.021V232H145.301V224.32H144.021V227.568H139.573V224.32H138.293V232H139.573ZM148.756 232L153.46 226.384V232H154.74V224.32H153.652L148.948 229.936V224.32H147.668V232H148.756ZM158.322 232V226.208L160.818 230H161.778L164.274 226.208V232H165.49V224.32H164.098L161.298 228.576L158.498 224.32H157.106V232H158.322ZM174.096 230.4V227.392C174.096 225.248 172.8 224.128 170.752 224.128C169.488 224.128 168.432 224.432 167.824 224.64V225.888C168.496 225.6 169.44 225.312 170.624 225.312C172.032 225.312 172.816 226.08 172.816 227.232V227.504C172.176 227.36 171.36 227.264 170.688 227.264C169.04 227.264 167.216 227.872 167.216 229.856C167.216 231.472 168.56 232.192 169.92 232.192C171.168 232.192 172.144 231.808 172.912 231.168C173.136 231.84 173.696 232.096 174.32 232.096C174.64 232.096 174.976 232.032 175.28 231.92V230.88C175.088 230.944 174.88 230.992 174.688 230.992C174.352 230.992 174.096 230.864 174.096 230.4ZM168.528 229.792C168.528 228.672 169.744 228.336 170.864 228.336C171.488 228.336 172.272 228.448 172.816 228.56V229.968C172.144 230.688 171.168 231.088 170.192 231.088C169.344 231.088 168.528 230.688 168.528 229.792ZM177.933 232V228.752H182.381V232H183.661V224.32H182.381V227.568H177.933V224.32H176.653V232H177.933ZM187.116 232L191.82 226.384V232H193.1V224.32H192.012L187.308 229.936V224.32H186.028V232H187.116ZM196.233 232L198.329 229.312H200.489V232H201.769V224.32H197.993C196.121 224.32 195.113 225.472 195.113 226.816C195.113 227.888 195.753 228.832 196.953 229.184L194.729 232H196.233ZM196.393 226.816C196.393 225.968 197.033 225.472 198.105 225.472H200.489V228.16H198.105C197.033 228.16 196.393 227.664 196.393 226.816Z" fill="black"/>
<path d="M103.237 101.269H94.4375C93.5 101.269 92.7375 100.483 92.7375 99.516C92.7375 98.5492 93.5 97.7629 94.4375 97.7629H103.237C104.55 97.7629 105.612 96.6672 105.612 95.3137V63.4867C105.612 62.1332 104.55 61.0375 103.237 61.0375H62.2375C60.925 61.0375 59.8625 62.1332 59.8625 63.4867V95.3395C59.8625 96.693 60.925 97.7887 62.2375 97.7887H85.1125C86.05 97.7887 86.8125 98.575 86.8125 99.5418C86.8125 100.509 86.05 101.295 85.1125 101.295H62.2375C59.0625 101.295 56.475 98.6266 56.475 95.3524V63.4867C56.475 60.2125 59.0625 57.5442 62.2375 57.5442H103.237C106.412 57.5442 109 60.2125 109 63.4867V95.3395C109 98.6008 106.412 101.269 103.237 101.269Z" fill="#2D527C"/>
<path d="M68.8375 93.1094C67.2125 93.1094 65.875 91.7301 65.875 90.0543V68.759C65.875 67.0832 67.2125 65.7039 68.8375 65.7039C70.4625 65.7039 71.8 67.0832 71.8 68.759V90.0543C71.7875 91.7301 70.4625 93.1094 68.8375 93.1094Z" fill="#CEE8FA"/>
<path d="M68.8375 94.8496C66.275 94.8496 64.1875 92.6969 64.1875 90.0543V68.759C64.1875 66.1164 66.275 63.9637 68.8375 63.9637C71.4 63.9637 73.4875 66.1164 73.4875 68.759V90.0543C73.4875 92.6969 71.4 94.8496 68.8375 94.8496ZM68.8375 67.457C68.1375 67.457 67.575 68.0371 67.575 68.759V90.0543C67.575 90.7762 68.1375 91.3562 68.8375 91.3562C69.5375 91.3562 70.1 90.7762 70.1 90.0543V68.759C70.1 68.0371 69.525 67.457 68.8375 67.457Z" fill="#F0BF5F"/>
<path d="M82.7375 93.1094C81.1125 93.1094 79.775 91.7301 79.775 90.0543V68.759C79.775 67.0832 81.1125 65.7039 82.7375 65.7039C84.3625 65.7039 85.7 67.0832 85.7 68.759V90.0543C85.7 91.7301 84.375 93.1094 82.7375 93.1094Z" fill="#CEE8FA"/>
<path d="M82.7375 94.8496C80.175 94.8496 78.0875 92.6969 78.0875 90.0543V68.759C78.0875 66.1164 80.175 63.9637 82.7375 63.9637C85.3 63.9637 87.3875 66.1164 87.3875 68.759V90.0543C87.4 92.6969 85.3125 94.8496 82.7375 94.8496ZM82.7375 67.457C82.0375 67.457 81.475 68.0371 81.475 68.759V90.0543C81.475 90.7762 82.0375 91.3562 82.7375 91.3562C83.4375 91.3562 84 90.7762 84 90.0543V68.759C84 68.0371 83.4375 67.457 82.7375 67.457Z" fill="#F0BF5F"/>
<path d="M96.65 93.1094C95.025 93.1094 93.6875 91.7301 93.6875 90.0543V68.759C93.6875 67.0832 95.025 65.7039 96.65 65.7039C98.275 65.7039 99.6125 67.0832 99.6125 68.759V90.0543C99.6125 91.7301 98.275 93.1094 96.65 93.1094Z" fill="#CEE8FA"/>
<path d="M96.65 94.8496C94.0875 94.8496 92 92.6969 92 90.0543V68.759C92 66.1164 94.0875 63.9637 96.65 63.9637C99.2125 63.9637 101.3 66.1164 101.3 68.759V90.0543C101.3 92.6969 99.2125 94.8496 96.65 94.8496ZM96.65 67.457C95.95 67.457 95.3875 68.0371 95.3875 68.759V90.0543C95.3875 90.7762 95.95 91.3562 96.65 91.3562C97.35 91.3562 97.9125 90.7762 97.9125 90.0543V68.759C97.9125 68.0371 97.35 67.457 96.65 67.457Z" fill="#F0BF5F"/>
<path d="M58.175 69.7129H52.2875C51.35 69.7129 50.5875 68.9266 50.5875 67.9598C50.5875 66.993 51.35 66.2066 52.2875 66.2066H58.175C59.1125 66.2066 59.875 66.993 59.875 67.9598C59.875 68.9266 59.1125 69.7129 58.175 69.7129Z" fill="#2D527C"/>
<path d="M58.175 92.5938H52.2875C51.35 92.5938 50.5875 91.8074 50.5875 90.8406C50.5875 89.8738 51.35 89.0875 52.2875 89.0875H58.175C59.1125 89.0875 59.875 89.8738 59.875 90.8406C59.875 91.8074 59.1125 92.5938 58.175 92.5938Z" fill="#2D527C"/>
<path d="M50.925 72.4199C49.9875 72.4199 49.225 71.6336 49.225 70.6668V51.9754C49.225 51.0086 49.9875 50.2223 50.925 50.2223C51.8625 50.2223 52.625 51.0215 52.625 51.9754V70.6668C52.625 71.6336 51.8625 72.4199 50.925 72.4199Z" fill="#F0BF5F"/>
<path d="M50.925 101.269C49.9875 101.269 49.225 100.483 49.225 99.516V79.4066C49.225 78.4398 49.9875 77.6535 50.925 77.6535C51.8625 77.6535 52.625 78.4398 52.625 79.4066V99.516C52.625 100.483 51.8625 101.269 50.925 101.269Z" fill="#2D527C"/>
<path d="M55.175 46.484H46.7V55.9199H55.175V46.484Z" fill="#CEE8FA"/>
<path d="M55.1625 57.6602H46.7C45.7625 57.6602 45 56.8738 45 55.9071V46.484C45 45.5172 45.7625 44.7309 46.7 44.7309H55.175C56.1125 44.7309 56.875 45.5172 56.875 46.484V55.9199C56.8625 56.8738 56.1 57.6602 55.1625 57.6602ZM48.3875 54.1668H53.475V48.2242H48.3875V54.1668Z" fill="#2D527C"/>
</svg>
